SplineFontDB: 3.0
FontName: BetecknaLowerCaseBoldItalic
FullName: BetecknaLowerCase
FamilyName: BetecknaLowerCase
Weight: Medium
Copyright: Drawn by Johan Mattsson
Version: 
ItalicAngle: 0
UnderlinePosition: -200
UnderlineWidth: 50
Ascent: 800
Descent: 200
LayerCount: 2
Layer: 0 1 "Back"  1
Layer: 1 1 "Fore"  0
XUID: [1021 880 1988980000 3066022]
FSType: 0
OS2Version: 3
OS2_WeightWidthSlopeOnly: 0
OS2_UseTypoMetrics: 1
CreationTime: 1176121501
ModificationTime: 1406153134
PfmFamily: 17
TTFWeight: 500
TTFWidth: 5
LineGap: 90
VLineGap: 0
Panose: 2 0 6 3 0 0 0 0 0 0
OS2TypoAscent: 0
OS2TypoAOffset: 1
OS2TypoDescent: 0
OS2TypoDOffset: 1
OS2TypoLinegap: 0
OS2WinAscent: 0
OS2WinAOffset: 1
OS2WinDescent: 0
OS2WinDOffset: 1
HheadAscent: 0
HheadAOffset: 1
HheadDescent: 0
HheadDOffset: 1
OS2SubXSize: 650
OS2SubYSize: 699
OS2SubXOff: 0
OS2SubYOff: 479
OS2SupXSize: 650
OS2SupYSize: 699
OS2SupXOff: 0
OS2SupYOff: 0
OS2StrikeYSize: 49
OS2StrikeYPos: 258
OS2Vendor: 'PfEd'
OS2CodePages: 00000010.01140000
OS2UnicodeRanges: 800000cf.40000000.00000000.00000000
Lookup: 4 0 1 "'liga' Standard Ligatures in Latin lookup 0"  {"'liga' Standard Ligatures in Latin lookup 0 subtable"  } ['liga' ('latn' <'dflt' > ) ]
Lookup: 258 0 0 "'kern' Horizontal Kerning in Latin lookup 0"  {"'kern' Horizontal Kerning in Latin lookup 0 subtable"  } ['kern' ('latn' <'dflt' > ) ]
DEI: 91125
ShortTable: maxp 16
  1
  0
  182
  92
  5
  70
  4
  2
  0
  1
  1
  0
  64
  0
  2
  1
EndShort
LangName: 1033 "" "" "" "FontForge 2.0 : BetecknaLowerCase : 4-10-2008" 
GaspTable: 1 65535 2 0
Encoding: UnicodeBmp
UnicodeInterp: none
NameList: Adobe Glyph List
DisplaySize: -72
AntiAlias: 1
FitToEm: 1
Grid
-1000 142 m 0
 2000 142 l 0
EndSplineSet
BeginChars: 65539 190

StartChar: .notdef
Encoding: 65536 -1 0
Width: 500
Flags: W
LayerCount: 2
Fore
SplineSet
-20.5176 -20 m 1,0,-1
 80.5176 553 l 1,1,-1
 520.518 553 l 1,2,-1
 419.482 -20 l 1,3,-1
 -20.5176 -20 l 1,0,-1
85.3516 70 m 1,0,0
 345.352 70 l 1,0,0
 414.648 463 l 1,0,0
 154.648 463 l 1,0,0
 85.3516 70 l 1,0,0
EndSplineSet
EndChar

StartChar: exclam
Encoding: 33 33 4
Width: 238
GlyphClass: 2
Flags: W
LayerCount: 2
Fore
SplineSet
118.895 713 m 1,0,-1
 248.853 713 l 1,1,-1
 158.585 232 l 1,2,-1
 27.5361 232 l 1,3,-1
 118.895 713 l 1,0,-1
17.7236 117.001 m 128,-1,6
 45.5869 137.832 45.5869 137.832 60.6973 138.174 c 128,-1,7
 75.8076 138.517 75.8076 138.517 76.7422 138.517 c 0,0,0
 105.148 138.517 105.148 138.517 125.698 118.442 c 128,-1,8
 146.247 98.3672 146.247 98.3672 139.835 62 c 0,9,10
 133.17 24.2021 133.17 24.2021 105.163 2.10059 c 128,-1,11
 77.1553 -20 77.1553 -20 47.4639 -20 c 128,-1,12
 17.7725 -20 17.7725 -20 -2.63281 1.50977 c 128,-1,13
 -23.0381 23.0186 -23.0381 23.0186 -16.5176 60 c 0,4,5
 -10.1396 96.1709 -10.1396 96.1709 17.7236 117.001 c 128,-1,6
EndSplineSet
EndChar

StartChar: quotedbl
Encoding: 34 34 5
Width: 340
GlyphClass: 2
Flags: W
LayerCount: 2
Fore
SplineSet
199.471 620.816 m 128,-1,2
 186.368 676.72 186.368 676.72 190.049 697.598 c 0,0,0
 190.097 697.865 190.097 697.865 190.258 698.613 c 0,1,2
 190.422 699.361 190.422 699.361 190.469 699.624 c 0,3,4
 196.624 734.258 196.624 734.258 223.867 754.543 c 128,-1,5
 251.11 774.829 251.11 774.829 265.938 775.172 c 128,-1,6
 280.769 775.516 280.769 775.516 281.67 775.516 c 0,0,0
 309.817 775.516 309.817 775.516 330.179 754.843 c 128,-1,7
 350.54 734.171 350.54 734.171 343.81 696 c 2,8,9
 343.518 694.345 l 1,10,-1
 342.958 692.712 l 2,8,9
 334.02 666.654 334.02 666.654 320.039 642.023 c 128,-1,10
 306.057 617.393 306.057 617.393 296.761 604.856 c 128,-1,11
 287.465 592.319 287.465 592.319 269.845 572.213 c 128,-1,12
 252.226 552.107 252.226 552.107 248.811 547.71 c 2,0,1
 215.823 505.219 l 1,2,-1
 213.195 553.503 l 2,0,1
 212.574 564.912 212.574 564.912 199.471 620.816 c 128,-1,2
25.4707 620.816 m 128,-1,15
 12.3682 676.72 12.3682 676.72 16.0488 697.598 c 0,0,0
 16.0967 697.864 16.0967 697.864 16.2588 698.613 c 0,1,2
 16.4219 699.361 16.4219 699.361 16.4678 699.624 c 0,16,17
 22.625 734.258 22.625 734.258 49.8672 754.543 c 128,-1,18
 77.1104 774.829 77.1104 774.829 91.9395 775.172 c 128,-1,19
 106.768 775.516 106.768 775.516 107.67 775.516 c 0,0,0
 135.817 775.516 135.817 775.516 156.179 754.843 c 128,-1,20
 176.54 734.171 176.54 734.171 169.81 696 c 2,21,22
 169.518 694.345 l 1,23,-1
 168.958 692.712 l 2,21,22
 160.02 666.654 160.02 666.654 146.039 642.023 c 128,-1,23
 132.057 617.393 132.057 617.393 122.762 604.856 c 128,-1,24
 113.466 592.32 113.466 592.32 95.8457 572.214 c 128,-1,25
 78.2256 552.107 78.2256 552.107 74.8115 547.71 c 2,13,14
 41.8242 505.219 l 1,15,-1
 39.1953 553.503 l 2,13,14
 38.5742 564.912 38.5742 564.912 25.4707 620.816 c 128,-1,15
EndSplineSet
EndChar

StartChar: numbersign
Encoding: 35 35 6
Width: 455
GlyphClass: 2
Flags: W
LayerCount: 2
Fore
SplineSet
137.017 640 m 1,0,-1
 254.017 640 l 1,1,-1
 229.331 500 l 1,0,0
 279.331 500 l 1,0,0
 304.017 640 l 1,1,-1
 422.017 640 l 1,2,-1
 397.331 500 l 1,0,0
 455.331 500 l 1,1,-1
 432.231 369 l 1,2,-1
 374.231 369 l 1,0,0
 366.649 326 l 1,0,0
 424.649 326 l 1,1,-1
 402.256 199 l 1,2,-1
 344.256 199 l 1,0,0
 317.983 50 l 1,1,-1
 199.983 50 l 1,2,-1
 226.256 199 l 1,0,0
 176.256 199 l 1,0,0
 149.983 50 l 1,1,-1
 32.9834 50 l 1,2,-1
 59.3164 199.342 l 1,0,0
 1.49316 200.342 l 1,1,-1
 23.6494 326 l 1,2,-1
 81.6494 326 l 1,0,0
 89.4082 370 l 1,0,0
 31.4082 370 l 1,1,-1
 54.5684 501.348 l 1,2,-1
 112.392 500.348 l 1,0,0
 137.017 640 l 1,0,-1
206.369 369.776 m 1,0,0
 198.649 326 l 1,0,0
 248.649 326 l 1,0,0
 256.271 369.221 l 1,0,0
 206.369 369.776 l 1,0,0
EndSplineSet
EndChar

StartChar: dollar
Encoding: 36 36 7
Width: 733
GlyphClass: 2
Flags: W
LayerCount: 2
Fore
SplineSet
259.822 9.50977 m 1,0,1
 229.32 13.7676 229.32 13.7676 198.722 29.3877 c 0,2,3
 160.668 48.8154 160.668 48.8154 142.315 65.1475 c 0,4,5
 124.999 80.5576 124.999 80.5576 110.218 96.0029 c 2,6,-1
 99.8389 106.849 l 1,7,-1
 179.374 212.05 l 1,8,-1
 194.646 194.439 l 2,9,10
 213.895 172.242 213.895 172.242 227.39 160.441 c 0,11,12
 239.951 149.458 239.951 149.458 264.192 138.433 c 0,13,14
 287.131 128 287.131 128 315.092 128 c 0,15,16
 355.934 128 355.934 128 371.83 136.005 c 0,17,18
 390.938 145.627 390.938 145.627 420.824 183.46 c 0,19,20
 437.205 204.195 437.205 204.195 440.685 223.928 c 0,21,22
 443.162 237.98 443.162 237.98 439.263 252.319 c 0,23,24
 430.338 285.137 430.338 285.137 391.243 302.508 c 0,25,26
 329.503 329.941 329.503 329.941 326.358 331.102 c 0,27,28
 267.382 352.86 267.382 352.86 239.213 381.936 c 0,29,30
 205.995 416.222 205.995 416.222 197.803 456.391 c 0,31,32
 191.178 488.871 191.178 488.871 197.242 523.265 c 0,33,34
 198.585 530.879 198.585 530.879 200.55 538.574 c 0,35,36
 211.471 581.359 211.471 581.359 239.167 616.451 c 0,37,38
 266.931 651.629 266.931 651.629 310.279 675.149 c 0,39,40
 343.498 693.174 343.498 693.174 381.157 699.35 c 1,41,-1
 380.108 770 l 1,42,-1
 503.133 770 l 1,43,-1
 478.331 699.698 l 1,44,45
 536.051 691.043 536.051 691.043 573.688 655.553 c 2,46,-1
 585.807 644.127 l 1,47,-1
 505.081 547.752 l 1,48,-1
 490.534 563.033 l 2,49,50
 463.392 591.548 463.392 591.548 416.837 591.548 c 0,51,52
 406.454 591.548 406.454 591.548 395.062 590.154 c 0,53,54
 369.447 587.021 369.447 587.021 349.836 570.021 c 0,55,56
 329.992 552.819 329.992 552.819 323.664 531.975 c 0,57,58
 322.9 529.458 322.9 529.458 322.449 526.904 c 0,59,60
 319.368 509.43 319.368 509.43 330.844 488.827 c 0,61,62
 346.151 461.346 346.151 461.346 382.981 447.921 c 2,63,-1
 451.573 422.921 l 2,64,65
 480.831 412.258 480.831 412.258 510.336 385.197 c 0,66,67
 537.035 360.71 537.035 360.71 554.838 324.037 c 0,68,69
 573.52 285.555 573.52 285.555 567.986 238.188 c 0,70,71
 567.314 232.436 567.314 232.436 566.293 226.647 c 0,72,73
 558.387 181.804 558.387 181.804 529.646 134.983 c 0,74,75
 470.2 38.1396 470.2 38.1396 365.432 14.9014 c 1,76,-1
 362.5 -50 l 1,77,-1
 242.146 -50 l 1,78,-1
 259.822 9.50977 l 1,0,1
EndSplineSet
EndChar

StartChar: percent
Encoding: 37 37 8
Width: 560
GlyphClass: 2
Flags: W
LayerCount: 2
Fore
SplineSet
156.154 473 m 0,0,1
 155.398 469.413 155.398 469.413 155.521 465.416 c 0,2,3
 155.784 456.805 155.784 456.805 163.064 452.042 c 0,4,5
 168.098 448.75 168.098 448.75 173.754 448.75 c 0,6,7
 174.782 448.771 174.782 448.771 175.378 448.824 c 0,8,9
 176.439 448.941 176.439 448.941 177.062 449.054 c 0,10,11
 178.178 449.274 178.178 449.274 178.851 449.453 c 0,12,13
 181.315 450.108 181.315 450.108 185.156 451.943 c 0,14,15
 192.606 455.503 192.606 455.503 196.279 463.638 c 0,16,17
 197.845 467.105 197.845 467.105 199.331 474 c 0,18,19
 199.766 476.021 199.766 476.021 199.856 478.776 c 0,20,21
 200.069 485.282 200.069 485.282 196.399 488.941 c 0,22,23
 190.321 495 190.321 495 181.533 495 c 0,24,25
 177.238 495 177.238 495 173.021 493.231 c 0,26,27
 170.207 492.052 170.207 492.052 165.144 488.521 c 0,28,29
 159.595 484.652 159.595 484.652 157.227 477.36 c 0,30,31
 156.862 476.363 156.862 476.363 156.154 473 c 0,0,1
80.6162 541.208 m 128,-1,11
 105.19 570.359 105.19 570.359 135.135 581.229 c 128,-1,12
 165.079 592.096 165.079 592.096 194.261 592.096 c 0,0,0
 197.29 592.096 197.29 592.096 215.095 591.467 c 128,-1,13
 232.898 590.838 232.898 590.838 259.248 576.712 c 128,-1,14
 285.597 562.586 285.597 562.586 299.702 533.821 c 128,-1,15
 313.807 505.056 313.807 505.056 307.449 469 c 0,16,17
 300.774 431.148 300.774 431.148 276.368 401.25 c 128,-1,18
 251.961 371.351 251.961 371.351 220.505 357.714 c 128,-1,19
 189.049 344.078 189.049 344.078 171.9 343.778 c 128,-1,20
 154.751 343.479 154.751 343.479 153.346 343.479 c 0,0,0
 121.968 343.479 121.968 343.479 95.5527 356.357 c 128,-1,21
 69.1377 369.236 69.1377 369.236 55.376 399.741 c 128,-1,22
 41.6152 430.245 41.6152 430.245 48.9785 472 c 0,9,10
 56.041 512.056 56.041 512.056 80.6162 541.208 c 128,-1,11
365.141 161 m 0,11,12
 364.383 157.488 364.383 157.488 364.51 153.462 c 0,13,14
 364.77 145.248 364.77 145.248 371.844 140.717 c 0,15,16
 376.674 137.622 376.674 137.622 382.433 137.622 c 0,17,18
 383.512 137.644 383.512 137.644 384.136 137.7 c 0,19,20
 388.274 138.077 388.274 138.077 394.318 140.943 c 0,21,22
 401.836 144.507 401.836 144.507 405.427 152.312 c 0,23,24
 406.975 155.678 406.975 155.678 408.316 162 c 0,25,26
 408.808 164.314 408.808 164.314 408.899 167.349 c 0,27,28
 409.165 176.092 409.165 176.092 401.997 180.699 c 0,29,30
 397.438 183.628 397.438 183.628 391.487 183.628 c 0,31,32
 385.795 183.628 385.795 183.628 378.82 180.283 c 0,33,34
 369.396 175.765 369.396 175.765 366.325 165.942 c 1,35,36
 366.108 165.49 366.108 165.49 365.141 161 c 0,11,12
290.343 230.283 m 128,-1,33
 315.455 259.354 315.455 259.354 344.307 270.029 c 128,-1,34
 373.16 280.704 373.16 280.704 401.059 280.704 c 0,0,0
 405.388 280.704 405.388 280.704 423.711 279.731 c 128,-1,35
 442.034 278.758 442.034 278.758 468.202 264.729 c 128,-1,36
 494.371 250.7 494.371 250.7 509.193 222.51 c 128,-1,37
 524.016 194.32 524.016 194.32 517.436 157 c 0,38,39
 510.716 118.894 510.716 118.894 485.858 89.6426 c 128,-1,40
 461.001 60.3916 461.001 60.3916 429.605 46.2363 c 128,-1,41
 398.209 32.0811 398.209 32.0811 380.975 31.7803 c 128,-1,42
 363.739 31.4785 363.739 31.4785 362.332 31.4785 c 0,0,0
 330.895 31.4785 330.895 31.4785 305.056 44.3613 c 128,-1,43
 279.218 57.2451 279.218 57.2451 264.896 87.6689 c 128,-1,44
 250.575 118.094 250.575 118.094 257.964 160 c 0,31,32
 265.23 201.212 265.23 201.212 290.343 230.283 c 128,-1,33
511.396 587.781 m 1,33,-1
 580.727 499.997 l 1,34,-1
 35.8428 23.2188 l 1,35,-1
 -33.4873 111.003 l 1,36,-1
 511.396 587.781 l 1,33,-1
EndSplineSet
EndChar

StartChar: ampersand
Encoding: 38 38 9
Width: 754
GlyphClass: 2
Flags: W
LayerCount: 2
Fore
SplineSet
489.774 223.629 m 1,0,0
 518.904 275.686 518.904 275.686 528.063 327.628 c 0,0,0
 529.571 336.182 529.571 336.182 530.539 344.736 c 2,3,-1
 532.942 366 l 1,4,-1
 657.708 366 l 1,5,-1
 653.637 345.546 l 2,4,5
 628.218 217.846 628.218 217.846 563.96 127.992 c 1,0,0
 677.57 -20 l 1,1,-1
 504.691 -20 l 1,2,-1
 465.617 29.5498 l 1,0,0
 379.763 -30.6748 379.763 -30.6748 263.083 -41.9209 c 0,11,12
 254.541 -42.7441 254.541 -42.7441 241.791 -42.7441 c 0,0,0
 196.099 -42.7441 196.099 -42.7441 147.32 -25.6426 c 128,-1,13
 98.541 -8.54102 98.541 -8.54102 58.7188 38.4482 c 128,-1,14
 18.8965 85.4375 18.8965 85.4375 14.9033 145.56 c 0,15,16
 13.1172 172.436 13.1172 172.436 19.4678 208.45 c 128,-1,17
 25.8184 244.464 25.8184 244.464 42.0879 274.962 c 128,-1,18
 58.3574 305.461 58.3574 305.461 75.8887 328.598 c 128,-1,19
 93.4199 351.734 93.4199 351.734 116.264 373.4 c 128,-1,20
 139.108 395.066 139.108 395.066 154.316 406.916 c 128,-1,21
 169.526 418.766 169.526 418.766 181.021 426.9 c 1,0,0
 171.277 463.652 171.277 463.652 173.431 485.537 c 128,-1,24
 175.585 507.422 175.585 507.422 177.013 515.52 c 0,0,0
 182.876 548.774 182.876 548.774 200.084 577.935 c 128,-1,25
 217.292 607.095 217.292 607.095 238.375 629.392 c 128,-1,26
 259.459 651.689 259.459 651.689 279.617 665.637 c 0,27,28
 323.851 696.243 323.851 696.243 363.03 700.059 c 128,-1,29
 402.211 703.875 402.211 703.875 416.605 703.875 c 0,0,0
 460.167 703.875 460.167 703.875 504.804 687.541 c 128,-1,30
 549.44 671.207 549.44 671.207 561.279 632.711 c 2,31,-1
 565.334 619.528 l 1,32,-1
 468.937 541.412 l 1,33,-1
 459.094 560.67 l 2,32,33
 446.833 584.652 446.833 584.652 421.873 586.244 c 128,-1,34
 396.913 587.836 396.913 587.836 392.444 587.836 c 0,0,0
 351.849 587.836 351.849 587.836 327.254 564.741 c 0,35,36
 304.335 543.221 304.335 543.221 299.661 516.717 c 0,0,0
 292.399 475.529 292.399 475.529 333.836 423.901 c 2,0,-1
 489.774 223.629 l 1,0,0
234.249 327.321 m 1,0,0
 195.004 295.781 195.004 295.781 173.217 264.048 c 128,-1,39
 151.432 232.314 151.432 232.314 147.076 207.615 c 0,0,0
 144.319 191.978 144.319 191.978 146.777 176.324 c 0,40,41
 152.001 143.05 152.001 143.05 180.152 117.559 c 128,-1,42
 208.303 92.0684 208.303 92.0684 236.127 83.2129 c 128,-1,43
 263.95 74.3574 263.95 74.3574 283.198 74.3574 c 0,0,0
 287.324 74.3574 287.324 74.3574 292.803 74.8867 c 0,44,45
 349.373 80.3594 349.373 80.3594 398.841 116.802 c 1,0,0
 234.249 327.321 l 1,0,0
EndSplineSet
EndChar

StartChar: quotesingle
Encoding: 39 39 10
Width: 154
GlyphClass: 2
Flags: W
LayerCount: 2
Fore
SplineSet
8.61328 699 m 0,2,3
 14.7861 734.003 14.7861 734.003 41.9629 754.823 c 128,-1,4
 69.1406 775.643 69.1406 775.643 84.1777 776.354 c 128,-1,5
 99.2139 777.062 99.2139 777.062 100.989 777.062 c 0,0,0
 127.87 777.062 127.87 777.062 147.609 757.13 c 128,-1,6
 167.349 737.198 167.349 737.198 160.613 699 c 0,7,8
 153.823 660.491 153.823 660.491 125.871 617.576 c 128,-1,9
 97.9189 574.66 97.9189 574.66 71.7236 546.096 c 2,0,1
 50.7607 523.236 l 1,2,-1
 39.1553 546.906 l 2,0,1
 -3.03418 632.944 -3.03418 632.944 8.61328 699 c 0,2,3
EndSplineSet
EndChar

StartChar: parenleft
Encoding: 40 40 11
Width: 268
GlyphClass: 2
Flags: W
LayerCount: 2
Fore
SplineSet
19.9346 324.095 m 128,-1,2
 49.1504 489.785 49.1504 489.785 52.75 503.945 c 0,3,4
 79.5322 609.328 79.5322 609.328 146.355 682.748 c 128,-1,5
 213.178 756.168 213.178 756.168 304.655 793.323 c 2,6,-1
 334.833 805.58 l 1,7,-1
 309.46 661.679 l 1,8,-1
 299.993 655.699 l 2,7,8
 214.815 601.895 214.815 601.895 186.28 502.655 c 0,9,10
 184.053 494.906 184.053 494.906 154.279 326.049 c 128,-1,11
 124.505 157.191 124.505 157.191 124.146 150.168 c 0,12,13
 118.964 48.9287 118.964 48.9287 182.595 -8.19141 c 2,14,-1
 189.284 -14.1973 l 1,15,-1
 162.167 -167.991 l 1,16,-1
 135.877 -153.979 l 2,15,16
 60.3311 -113.716 60.3311 -113.716 20.2793 -37.4365 c 128,-1,17
 -19.7715 38.8418 -19.7715 38.8418 -10.3506 146.216 c 0,0,1
 -9.28125 158.404 -9.28125 158.404 19.9346 324.095 c 128,-1,2
EndSplineSet
EndChar

StartChar: parenright
Encoding: 41 41 12
Width: 295
GlyphClass: 2
Flags: W
LayerCount: 2
Fore
SplineSet
135.035 -34.9688 m 128,-1,2
 68.0586 -111.701 68.0586 -111.701 -21.7217 -151.979 c 2,3,-1
 -52.9521 -165.991 l 1,4,-1
 -25.8516 -12.293 l 1,5,-1
 -17.167 -6.28711 l 2,4,5
 66.9229 51.8594 66.9229 51.8594 97.2715 152.18 c 0,6,7
 99.376 159.133 99.376 159.133 129.097 327.69 c 128,-1,8
 158.818 496.248 158.818 496.248 159.445 504.746 c 0,9,10
 166.778 604.098 166.778 604.098 100.762 658.792 c 2,11,-1
 93.5342 664.779 l 1,12,-1
 118.952 808.932 l 1,13,-1
 144.921 796.238 l 2,12,13
 223.006 758.072 223.006 758.072 263.776 684.685 c 128,-1,14
 304.547 611.298 304.547 611.298 294.472 505.806 c 2,15,16
 231.542 149.015 l 2,0,1
 202.012 41.7627 202.012 41.7627 135.035 -34.9688 c 128,-1,2
EndSplineSet
EndChar

StartChar: asterisk
Encoding: 42 42 13
Width: 212
GlyphClass: 2
Flags: W
LayerCount: 2
Fore
SplineSet
154.936 737.587 m 1,0,1
 154.932 737.604 154.932 737.604 154.933 737.607 c 1,2,3
 154.926 737.608 154.926 737.608 154.936 737.587 c 1,0,1
156.157 736.662 m 1,4,-1
 184.663 735.99 l 1,5,-1
 198.524 735.555 l 1,6,-1
 204.372 698.317 l 1,7,-1
 185.168 658 l 1,8,-1
 178.57 658 l 1,9,-1
 195.704 637.199 l 1,10,-1
 169.866 603.405 l 1,11,-1
 132.604 578.722 l 1,12,-1
 96.4395 621.334 l 1,13,-1
 46.9521 579.264 l 1,14,-1
 15.3115 603.168 l 1,15,-1
 2.97168 638.115 l 1,16,-1
 27.6191 658 l 1,17,-1
 17.6719 658 l 1,18,-1
 14.7051 698.269 l 1,19,-1
 32.0371 736.439 l 1,20,-1
 75.8438 735.178 l 1,21,-1
 79.3906 755 l 1,22,-1
 82.2812 771.396 l 1,23,-1
 123.692 779.396 l 1,24,-1
 162.281 771.396 l 1,25,-1
 156.157 736.662 l 1,4,-1
60.7773 658 m 1,26,-1
 62.2676 658 l 1,27,-1
 60.7773 658 l 1,26,-1
EndSplineSet
EndChar

StartChar: plus
Encoding: 43 43 14
Width: 495
GlyphClass: 2
Flags: W
LayerCount: 2
Fore
SplineSet
304.534 295.146 m 1,0,0
 277.178 140 l 1,1,-1
 147.307 140 l 1,2,-1
 173.613 294.857 l 1,0,0
 33.3066 293.856 l 1,1,-1
 56.4805 425.281 l 1,2,-1
 198.708 423.287 l 1,0,0
 221.407 569 l 1,1,-1
 351.822 569 l 1,2,-1
 326.457 425.146 l 1,0,0
 463.633 426.146 l 1,1,-1
 440.711 296.146 l 1,2,-1
 304.534 295.146 l 1,0,0
EndSplineSet
EndChar

StartChar: comma
Encoding: 44 44 15
Width: 154
GlyphClass: 2
Flags: W
LayerCount: 2
Fore
SplineSet
40.4023 125.186 m 0,0,1
 66.7832 144.829 66.7832 144.829 95.5342 145.494 c 0,2,3
 96.4424 145.516 96.4424 145.516 97.3418 145.516 c 0,4,5
 125.489 145.516 125.489 145.516 145.052 125.655 c 0,6,7
 166.212 104.171 166.212 104.171 159.481 66 c 0,8,9
 155.143 41.3936 155.143 41.3936 140.135 18.751 c 0,10,11
 126.821 -1.33594 126.821 -1.33594 115.592 -13.7637 c 0,12,13
 103.487 -27.1602 103.487 -27.1602 79.8408 -42.9482 c 0,14,15
 57.2021 -58.0625 57.2021 -58.0625 51.0518 -60.8887 c 0,16,17
 47.624 -62.4639 47.624 -62.4639 30.7549 -71.96 c 0,18,19
 14.7002 -80.998 14.7002 -80.998 5.75684 -68.1475 c 0,20,21
 -3.1875 -55.2969 -3.1875 -55.2969 10.0391 -42.1963 c 0,22,23
 14.7324 -37.5488 14.7324 -37.5488 21.4404 -28.5771 c 0,24,25
 28.6113 -18.9863 28.6113 -18.9863 35.7246 -7.44531 c 0,26,27
 40.4111 0.157227 40.4111 0.157227 43.9023 6.88574 c 1,28,29
 27.5244 8.71777 27.5244 8.71777 16.998 21.3438 c 0,30,31
 4.01562 36.917 4.01562 36.917 4.45508 56.2793 c 0,32,33
 4.56738 61.1914 4.56738 61.1914 5.47949 66.3643 c 0,34,35
 5.55664 66.8018 5.55664 66.8018 5.79492 67.9297 c 0,36,37
 6.03223 69.0576 6.03223 69.0576 6.11133 69.499 c 0,38,39
 12.3076 104.266 12.3076 104.266 40.4023 125.186 c 0,0,1
EndSplineSet
EndChar

StartChar: hyphen
Encoding: 45 45 16
Width: 470
GlyphClass: 2
Flags: W
LayerCount: 2
Fore
SplineSet
446.446 197 m 1,0,-1
 17.4463 197 l 1,1,-1
 40.3594 326.948 l 1,2,-1
 469.554 328.052 l 1,3,-1
 446.446 197 l 1,0,-1
EndSplineSet
EndChar

StartChar: period
Encoding: 46 46 17
Width: 190
GlyphClass: 2
Flags: W
LayerCount: 2
Fore
SplineSet
29.3721 117.001 m 128,-1,1
 57.2354 137.832 57.2354 137.832 72.3457 138.174 c 128,-1,2
 87.457 138.517 87.457 138.517 88.3906 138.517 c 0,3,4
 116.797 138.517 116.797 138.517 137.347 118.442 c 128,-1,5
 157.896 98.3672 157.896 98.3672 151.483 62 c 0,6,7
 144.818 24.2021 144.818 24.2021 116.812 2.10059 c 128,-1,8
 88.8037 -20 88.8037 -20 59.1123 -20 c 128,-1,9
 29.4209 -20 29.4209 -20 9.01562 1.50977 c 128,-1,10
 -11.3896 23.0186 -11.3896 23.0186 -4.86914 60 c 0,11,0
 1.50879 96.1709 1.50879 96.1709 29.3721 117.001 c 128,-1,1
EndSplineSet
EndChar

StartChar: slash
Encoding: 47 47 18
Width: 500
GlyphClass: 2
Flags: W
LayerCount: 2
Fore
SplineSet
118.159 -20 m 1,0,-1
 -31.9209 -20 l 1,1,-1
 388.371 721.729 l 1,2,-1
 531.844 724.588 l 1,3,-1
 118.159 -20 l 1,0,-1
EndSplineSet
EndChar

StartChar: zero
Encoding: 48 48 19
Width: 569
GlyphClass: 2
Flags: W
LayerCount: 2
Fore
SplineSet
146.135 367 m 0,0,1
 123.755 240.073 123.755 240.073 153.978 182.478 c 0,2,3
 183.507 126.205 183.507 126.205 215.743 123.618 c 128,-1,4
 247.981 121.031 247.981 121.031 252.939 121.031 c 0,0,0
 304.928 121.031 304.928 121.031 347.947 167.084 c 0,5,6
 403.341 226.382 403.341 226.382 426.9 360 c 0,7,8
 450.61 494.465 450.61 494.465 408.879 551.543 c 0,9,10
 386.739 581.825 386.739 581.825 362.317 587.607 c 128,-1,11
 337.895 593.39 337.895 593.39 325.453 593.39 c 0,0,0
 301.233 593.39 301.233 593.39 268.715 579.435 c 128,-1,12
 236.195 565.479 236.195 565.479 205.225 524.881 c 0,13,14
 164.579 471.601 164.579 471.601 146.135 367 c 0,0,1
112.155 598.776 m 0,17,18
 170.443 670.158 170.443 670.158 235.628 695.774 c 128,-1,19
 300.812 721.39 300.812 721.39 350.479 721.39 c 0,0,0
 375.752 721.39 375.752 721.39 424.304 710.874 c 128,-1,20
 472.854 700.357 472.854 700.357 518.177 642.883 c 0,21,22
 592.937 548.082 592.937 548.082 559.576 358.169 c 0,23,24
 559.131 355.631 559.131 355.631 558.313 350.64 c 0,25,26
 557.497 345.648 557.497 345.648 557.05 343.111 c 0,0,0
 526.525 169.996 526.525 169.996 440.97 76.1592 c 0,25,26
 378.345 7.4707 378.345 7.4707 321.061 -7.74023 c 128,-1,27
 263.776 -22.9502 263.776 -22.9502 230.709 -22.9502 c 0,0,0
 187.515 -22.9502 187.515 -22.9502 131.966 -1.3252 c 128,-1,28
 76.416 20.2988 76.416 20.2988 37.1084 89.0137 c 0,29,30
 -17.9199 185.208 -17.9199 185.208 13.0771 361 c 0,15,16
 39.2637 509.509 39.2637 509.509 112.155 598.776 c 0,17,18
EndSplineSet
EndChar

StartChar: one
Encoding: 49 49 20
Width: 392
GlyphClass: 2
Flags: W
LayerCount: 2
Fore
SplineSet
189.83 580 m 1,0,-1
 75.958 580 l 1,1,-1
 102.837 740 l 1,2,-1
 354.831 740 l 1,3,-1
 332.219 605.105 l 1,4,-1
 243.765 98 l 1,5,-1
 244.803 98 l 1,6,-1
 223.996 -20 l 1,7,-1
 87.251 -20 l 1,8,-1
 100.004 58 l 1,9,-1
 98.7871 58 l 1,10,-1
 189.83 580 l 1,0,-1
EndSplineSet
EndChar

StartChar: two
Encoding: 50 50 21
Width: 540
GlyphClass: 2
Flags: W
LayerCount: 2
Fore
SplineSet
333.739 407.539 m 2,0,1
 384.5 468.97 384.5 468.97 393.062 517.531 c 0,2,3
 394.626 526.396 394.626 526.396 394.753 534.815 c 0,4,5
 395.484 583.479 395.484 583.479 344.754 595.5 c 0,6,7
 336.476 597.462 336.476 597.462 327.201 597.462 c 0,8,9
 305.134 597.462 305.134 597.462 276.762 586.52 c 0,10,11
 239.055 571.979 239.055 571.979 222.257 539.537 c 2,12,-1
 209.758 515.396 l 1,13,-1
 108.248 588.757 l 1,14,-1
 118.842 604.746 l 2,15,16
 196.583 722.08 196.583 722.08 342.133 722.08 c 0,17,18
 345.664 722.08 345.664 722.08 349.917 721.996 c 0,19,20
 458.968 719.824 458.968 719.824 504.211 660.156 c 0,21,22
 541.833 610.538 541.833 610.538 528.622 535.616 c 0,23,24
 525.802 519.624 525.802 519.624 520.649 502.52 c 0,25,26
 492.598 409.427 492.598 409.427 400.444 307.127 c 2,27,-1
 217.763 110.146 l 1,28,-1
 471.78 111.073 l 1,29,-1
 448.679 -19.9443 l 1,30,-1
 50.4824 -21.0557 l 1,31,-1
 50.6689 -20 l 1,32,-1
 -69.8984 -20 l 1,33,-1
 333.739 407.539 l 2,0,1
EndSplineSet
EndChar

StartChar: three
Encoding: 51 51 22
Width: 510
GlyphClass: 2
Flags: W
LayerCount: 2
Fore
SplineSet
350.02 470.905 m 128,-1,2
 369.222 502.002 369.222 502.002 372.755 522.039 c 0,0,0
 376.17 541.407 376.17 541.407 370.492 559.136 c 0,3,4
 360.308 590.933 360.308 590.933 317.67 600.412 c 0,5,6
 306.561 602.883 306.561 602.883 290.73 602.883 c 0,0,0
 269.954 602.883 269.954 602.883 240.391 596.204 c 128,-1,7
 210.827 589.524 210.827 589.524 190.304 562.077 c 2,8,-1
 176.732 543.928 l 1,9,-1
 77.4238 614.51 l 1,10,-1
 93.0713 631.786 l 2,9,10
 174.875 722.104 174.875 722.104 319.566 722.104 c 0,0,0
 322.815 722.104 322.815 722.104 329.501 721.996 c 0,11,12
 400.072 720.88 400.072 720.88 446.472 686.661 c 128,-1,13
 492.871 652.441 492.871 652.441 503.517 610.236 c 128,-1,14
 514.163 568.03 514.163 568.03 507.517 530.336 c 0,0,0
 503.994 510.358 503.994 510.358 490.514 473.652 c 128,-1,15
 477.034 436.945 477.034 436.945 432.538 391.426 c 1,0,0
 460.827 350.825 460.827 350.825 472.951 303.587 c 128,-1,18
 485.076 256.349 485.076 256.349 476.985 210.465 c 1,0,0
 477.072 210.954 477.072 210.954 476.678 208.828 c 0,1,2
 476.286 206.702 476.286 206.702 471.481 182.595 c 128,-1,19
 466.676 158.488 466.676 158.488 439.247 114.695 c 128,-1,20
 411.818 70.9023 411.818 70.9023 371.383 39.7773 c 128,-1,21
 330.947 8.65137 330.947 8.65137 280.636 -9.54688 c 128,-1,22
 230.323 -27.7461 230.323 -27.7461 177.26 -27.9932 c 0,23,24
 174.845 -28.0049 174.845 -28.0049 169.911 -28.1357 c 0,25,26
 164.978 -28.2666 164.978 -28.2666 162.329 -28.2666 c 0,0,0
 55.8447 -28.2666 55.8447 -28.2666 -36.9365 26.3525 c 2,25,-1
 -56.8174 38.0566 l 1,26,-1
 44.627 136.616 l 1,27,-1
 57.3066 130.085 l 2,26,27
 88.8076 113.858 88.8076 113.858 115.357 106.429 c 128,-1,28
 141.906 99 141.906 99 154.203 99 c 128,-1,29
 166.501 99 166.501 99 181.594 99.4453 c 0,30,31
 196.688 99.8896 196.688 99.8896 203.044 99.9912 c 0,30,31
 241.464 100.604 241.464 100.604 271.438 118.362 c 128,-1,32
 301.414 136.12 301.414 136.12 316.429 163.168 c 128,-1,33
 331.443 190.217 331.443 190.217 336.563 219.255 c 0,0,0
 336.975 221.589 336.975 221.589 339.307 237.322 c 128,-1,34
 341.638 253.056 341.638 253.056 327.238 277.978 c 128,-1,35
 312.839 302.899 312.839 302.899 283.84 314 c 1,0,0
 176.95 314 l 1,1,-1
 193.151 431.517 l 1,2,-1
 297.436 433.961 l 1,0,0
 330.817 439.809 330.817 439.809 350.02 470.905 c 128,-1,2
EndSplineSet
EndChar

StartChar: four
Encoding: 52 52 23
Width: 477
GlyphClass: 2
Flags: W
LayerCount: 2
Fore
SplineSet
281.72 263 m 1,0,0
 313.819 445.047 l 1,0,0
 160.129 263 l 1,0,0
 281.72 263 l 1,0,0
416.896 264 m 1,0,0
 463.132 264 l 1,1,-1
 439.621 139 l 1,2,-1
 397.855 139 l 1,0,0
 369.819 -20 l 1,1,-1
 229.819 -20 l 1,2,-1
 258.385 142 l 1,0,0
 -41.6152 142 l 1,1,-1
 -29.4131 211.205 l 1,2,-1
 428.652 742 l 1,3,-1
 501.181 742 l 1,4,-1
 416.896 264 l 1,0,0
EndSplineSet
EndChar

StartChar: five
Encoding: 53 53 24
Width: 509
GlyphClass: 2
Flags: W
LayerCount: 2
Fore
SplineSet
155.978 720 m 1,0,-1
 487.428 720 l 1,1,-1
 469.269 600 l 1,2,-1
 267.461 600 l 1,0,0
 237.278 442.369 l 1,0,0
 241.145 442.4 241.145 442.4 244.913 442.4 c 0,0,0
 300.183 442.4 300.183 442.4 338.453 434.763 c 128,-1,6
 376.723 427.126 376.723 427.126 417.893 395.586 c 0,7,8
 452.827 368.822 452.827 368.822 467.453 327.856 c 128,-1,9
 482.077 286.891 482.077 286.891 479.831 258.794 c 128,-1,10
 477.585 230.697 477.585 230.697 475.688 219.943 c 0,0,0
 469.544 185.094 469.544 185.094 449.967 144.797 c 128,-1,11
 430.389 104.501 430.389 104.501 394.109 67.1182 c 128,-1,12
 357.831 29.7344 357.831 29.7344 303.077 7.05664 c 128,-1,13
 248.323 -15.6211 248.323 -15.6211 184.672 -15.9863 c 0,14,15
 182.229 -16 182.229 -16 177.342 -16.1875 c 0,16,17
 172.453 -16.375 172.453 -16.375 169.798 -16.375 c 0,0,0
 116.251 -16.375 116.251 -16.375 61.7461 4.32324 c 128,-1,16
 7.24219 25.0225 7.24219 25.0225 -33.3428 56.4756 c 2,17,-1
 -48.7861 68.4443 l 1,18,-1
 39.3477 161.166 l 1,19,-1
 52.9502 152.238 l 2,18,19
 97.1748 123.213 97.1748 123.213 125.876 112.381 c 128,-1,20
 154.577 101.55 154.577 101.55 200.743 101.998 c 0,21,22
 241.348 102.392 241.348 102.392 275.302 125.742 c 128,-1,23
 309.256 149.093 309.256 149.093 322.369 174.368 c 128,-1,24
 335.48 199.643 335.48 199.643 339.054 219.906 c 0,0,0
 341.209 232.133 341.209 232.133 340.796 254.511 c 128,-1,25
 340.383 276.89 340.383 276.89 321.396 294.37 c 0,26,27
 284.45 328.387 284.45 328.387 223.266 332.023 c 2,28,-1
 85.6201 327.303 l 1,29,-1
 155.978 720 l 1,0,-1
EndSplineSet
EndChar

StartChar: six
Encoding: 54 54 25
Width: 590
GlyphClass: 2
Flags: W
LayerCount: 2
Fore
SplineSet
14.6953 307.655 m 0,0,1
 19.4951 343.448 19.4951 343.448 25.4766 380.227 c 0,2,3
 25.7363 381.823 25.7363 381.823 26.0215 383.439 c 0,4,5
 32.71 421.373 32.71 421.373 53.5117 470.758 c 0,6,7
 75.0938 521.993 75.0938 521.993 108.676 569.396 c 0,8,9
 157.402 638.18 157.402 638.18 231.738 679.968 c 0,10,11
 306.443 721.963 306.443 721.963 381.122 721.999 c 0,12,13
 382.176 722 382.176 722 384.342 722.019 c 0,14,15
 386.507 722.037 386.507 722.037 387.557 722.037 c 0,16,17
 474.413 722.037 474.413 722.037 515.67 694.114 c 2,18,-1
 529.705 684.615 l 1,19,-1
 451.696 568.126 l 1,20,-1
 435.442 587.857 l 2,21,22
 431.202 593.007 431.202 593.007 410.466 598.64 c 0,23,24
 397.793 602.083 397.793 602.083 379.829 602.083 c 0,25,26
 367.646 602.083 367.646 602.083 350.04 600.132 c 0,27,28
 308.077 595.481 308.077 595.481 274.342 573.805 c 0,29,30
 239.801 551.61 239.801 551.61 217.211 518.864 c 0,31,32
 193.307 484.212 193.307 484.212 178.853 447.293 c 0,33,34
 169.416 423.192 169.416 423.192 163.146 398.099 c 1,35,36
 192.349 419.252 192.349 419.252 222.595 432.554 c 0,37,38
 272.875 454.666 272.875 454.666 310.602 457.444 c 0,39,40
 319.436 458.096 319.436 458.096 328.299 458.096 c 0,41,42
 356.472 458.096 356.472 458.096 384.885 451.523 c 0,43,44
 421.432 443.071 421.432 443.071 438.356 434.707 c 0,45,46
 452.068 427.932 452.068 427.932 468.609 417.258 c 0,47,48
 504.761 393.93 504.761 393.93 522.324 340.518 c 0,49,50
 539.671 287.765 539.671 287.765 528.427 224 c 0,51,52
 512.986 136.432 512.986 136.432 456.35 77.6465 c 0,53,54
 364.689 -17.4902 364.689 -17.4902 239.843 -18 c 0,55,56
 102.014 -18.5625 102.014 -18.5625 45.8174 92.6172 c 0,57,58
 31.5703 120.804 31.5703 120.804 20.4199 173.785 c 0,59,60
 10.0547 223.032 10.0547 223.032 10.7227 252.76 c 0,61,62
 11.4043 283.111 11.4043 283.111 14.6953 307.655 c 0,0,1
151.779 226 m 0,39,40
 145.117 188.212 145.117 188.212 158.965 161.124 c 128,-1,41
 172.811 134.035 172.811 134.035 197.651 122.259 c 128,-1,42
 222.491 110.482 222.491 110.482 254.331 110.482 c 1,0,0
 254.046 110.482 254.046 110.482 255.125 110.487 c 0,1,2
 256.205 110.492 256.205 110.492 273.022 110.716 c 128,-1,43
 289.841 110.939 289.841 110.939 320.176 124.285 c 128,-1,44
 350.511 137.631 350.511 137.631 373.819 165.786 c 128,-1,45
 397.127 193.94 397.127 193.94 404.014 233 c 0,46,47
 411.243 274 411.243 274 389.998 301.375 c 128,-1,48
 368.753 328.75 368.753 328.75 333.227 338.443 c 0,0,0
 325.828 340.462 325.828 340.462 310.791 340.462 c 0,0,0
 305.026 340.462 305.026 340.462 294.703 338.843 c 128,-1,51
 284.379 337.224 284.379 337.224 262.007 330.842 c 0,52,53
 227.271 320.934 227.271 320.934 191.787 286.297 c 128,-1,54
 156.305 251.661 156.305 251.661 151.779 226 c 0,39,40
EndSplineSet
EndChar

StartChar: seven
Encoding: 55 55 26
Width: 481
GlyphClass: 2
Flags: W
LayerCount: 2
Fore
SplineSet
116.452 711.055 m 1,0,-1
 522.257 709.945 l 1,1,-1
 504.501 609.245 l 1,2,-1
 505.658 601.875 l 1,3,-1
 113.428 -20 l 1,4,-1
 -54.0439 -20 l 1,5,-1
 334.399 578 l 1,6,-1
 92.9912 578 l 1,7,-1
 116.452 711.055 l 1,0,-1
EndSplineSet
EndChar

StartChar: eight
Encoding: 56 56 27
Width: 555
GlyphClass: 2
Flags: W
LayerCount: 2
Fore
SplineSet
111.692 601.536 m 128,-1,2
 141.877 649.957 141.877 649.957 181.521 676.839 c 0,3,4
 251.009 723.958 251.009 723.958 294.275 724.229 c 130,-1,5
 339.614 724.506 l 2,0,0
 423.757 724.508 423.757 724.508 475.312 682.276 c 0,6,7
 508.85 654.805 508.85 654.805 524.279 605.402 c 128,-1,8
 539.708 555.999 539.708 555.999 529.293 504.335 c 0,9,10
 520.534 460.889 520.534 460.889 456.661 387.606 c 1,0,0
 535.415 317.752 535.415 317.752 515.887 207 c 0,13,14
 499.444 113.753 499.444 113.753 446.457 58.6475 c 0,15,16
 401.305 11.6904 401.305 11.6904 338.584 -12.6553 c 128,-1,17
 275.863 -37 275.863 -37 211.863 -37 c 0,18,19
 142.482 -37 142.482 -37 86.4395 -8.93359 c 128,-1,20
 30.3984 19.1328 30.3984 19.1328 3.54395 71.6689 c 0,21,22
 -23.6094 124.788 -23.6094 124.788 -9.29004 206 c 0,23,24
 9.22656 311.012 9.22656 311.012 107.614 381.855 c 1,0,0
 65.7441 445.948 65.7441 445.948 74.3564 504.501 c 0,0,1
 81.5068 553.115 81.5068 553.115 111.692 601.536 c 128,-1,2
132.769 212 m 0,27,28
 126.071 174.017 126.071 174.017 139.457 146.428 c 128,-1,29
 152.844 118.84 152.844 118.84 178.121 106.391 c 128,-1,30
 203.397 93.9424 203.397 93.9424 219.885 93.7227 c 129,-1,31
 236.371 93.502 236.371 93.502 237.408 93.4922 c 0,32,33
 238.445 93.4834 238.445 93.4834 238.864 93.4834 c 0,0,0
 270.694 93.4834 270.694 93.4834 300.144 105.664 c 128,-1,32
 329.592 117.844 329.592 117.844 352.233 145.372 c 128,-1,33
 374.874 172.899 374.874 172.899 381.769 212 c 0,34,35
 389.116 253.674 389.116 253.674 370.259 281.827 c 128,-1,36
 351.401 309.98 351.401 309.98 317.179 318.505 c 0,37,38
 302.944 322.05 302.944 322.05 277.691 322.05 c 0,0,0
 252.042 322.05 252.042 322.05 231.4 316.684 c 0,39,40
 194.499 307.09 194.499 307.09 167.23 279.942 c 128,-1,41
 139.962 252.794 139.962 252.794 132.769 212 c 0,27,28
316.133 438.702 m 0,0,0
 346.926 444.801 346.926 444.801 370.311 467.143 c 128,-1,44
 393.696 489.484 393.696 489.484 399.959 525 c 0,45,46
 404.655 551.635 404.655 551.635 394.504 570.716 c 128,-1,47
 384.353 589.797 384.353 589.797 364.968 598.659 c 128,-1,48
 345.582 607.521 345.582 607.521 321.568 607.521 c 1,0,0
 321.854 607.521 321.854 607.521 320.803 607.516 c 0,1,2
 319.752 607.51 319.752 607.51 306.736 607.29 c 128,-1,49
 293.722 607.07 293.722 607.07 270.936 597.936 c 128,-1,50
 248.148 588.801 248.148 588.801 230.801 569.642 c 128,-1,51
 213.452 550.482 213.452 550.482 208.782 524 c 0,52,53
 202.365 487.604 202.365 487.604 218.112 465.505 c 128,-1,54
 233.858 443.406 233.858 443.406 262.689 437.788 c 0,0,0
 268.199 436.714 268.199 436.714 284.616 436.714 c 0,0,0
 306.095 436.714 306.095 436.714 316.133 438.702 c 0,0,0
EndSplineSet
EndChar

StartChar: nine
Encoding: 57 57 28
Width: 515
GlyphClass: 2
Flags: W
LayerCount: 2
Fore
SplineSet
177.751 501 m 0,0,1
 169.972 456.883 169.972 456.883 188.442 432.484 c 128,-1,2
 206.914 408.085 206.914 408.085 224.94 406.098 c 128,-1,3
 242.967 404.111 242.967 404.111 250.136 404.111 c 0,0,0
 275.389 404.111 275.389 404.111 305.501 414.659 c 128,-1,4
 335.613 425.206 335.613 425.206 356.316 447.895 c 0,5,6
 380.465 474.359 380.465 474.359 388.066 508.613 c 0,0,0
 394.268 536.56 394.268 536.56 382.294 560.682 c 128,-1,9
 370.319 584.804 370.319 584.804 350.141 593.738 c 128,-1,10
 329.962 602.673 329.962 602.673 306.01 602.673 c 0,0,0
 302.838 602.673 302.838 602.673 287.095 601.941 c 128,-1,11
 271.353 601.209 271.353 601.209 246.366 590.306 c 128,-1,12
 221.381 579.403 221.381 579.403 202.317 555.808 c 128,-1,13
 183.255 532.213 183.255 532.213 177.751 501 c 0,0,1
102.354 625.323 m 0,1,2
 147.815 680.771 147.815 680.771 207.07 705.707 c 0,3,4
 264.798 730 264.798 730 326.13 730 c 0,5,6
 387.543 730 387.543 730 435.752 705.643 c 0,7,8
 485.244 680.637 485.244 680.637 510.101 625.085 c 0,9,10
 533.806 572.104 533.806 572.104 521.636 500.168 c 0,11,12
 521.005 496.439 521.005 496.439 520.707 495.202 c 0,13,14
 497.797 399.982 497.797 399.982 417.581 254.948 c 0,15,16
 337.829 110.754 337.829 110.754 234.016 -11.1895 c 2,17,-1
 226.443 -20.083 l 1,18,-1
 47.7412 -18.6855 l 1,19,-1
 163.841 104.097 l 2,20,21
 188.838 131.083 188.838 131.083 230.38 185.606 c 0,22,23
 270.534 238.309 270.534 238.309 297.427 286.366 c 1,24,25
 263.839 276 263.839 276 224.077 276 c 0,26,27
 168.55 276 168.55 276 124.51 298.95 c 0,28,29
 79.5264 322.393 79.5264 322.393 55.4912 373.657 c 0,30,31
 31.3691 425.108 31.3691 425.108 43.6934 495 c 0,32,33
 56.8965 569.88 56.8965 569.88 102.354 625.323 c 0,1,2
EndSplineSet
EndChar

StartChar: colon
Encoding: 58 58 29
Width: 161
GlyphClass: 2
Flags: W
LayerCount: 2
Fore
SplineSet
66.3379 463.684 m 128,-1,2
 94.7451 483.836 94.7451 483.836 109.442 484.176 c 128,-1,3
 124.14 484.517 124.14 484.517 125.087 484.517 c 0,0,0
 152.679 484.517 152.679 484.517 173.998 465.126 c 128,-1,4
 195.319 445.735 195.319 445.735 189.019 410 c 0,5,6
 182.611 373.665 182.611 373.665 154.074 352.833 c 128,-1,7
 125.536 332 125.536 332 96.8555 332 c 128,-1,8
 68.1748 332 68.1748 332 46.7871 352.234 c 128,-1,9
 25.4004 372.468 25.4004 372.468 31.8418 409 c 0,0,1
 37.9307 443.532 37.9307 443.532 66.3379 463.684 c 128,-1,2
6.18945 132.001 m 128,-1,12
 34.0537 152.832 34.0537 152.832 49.1641 153.174 c 128,-1,13
 64.2744 153.517 64.2744 153.517 65.208 153.517 c 0,0,0
 93.6143 153.517 93.6143 153.517 114.164 133.442 c 128,-1,14
 134.714 113.367 134.714 113.367 128.302 77 c 0,15,16
 121.637 39.2021 121.637 39.2021 93.6299 17.1016 c 128,-1,17
 65.6211 -5 65.6211 -5 35.9307 -5 c 128,-1,18
 6.23926 -5 6.23926 -5 -14.167 16.5098 c 128,-1,19
 -34.5723 38.0186 -34.5723 38.0186 -28.0518 75 c 0,10,11
 -21.6738 111.171 -21.6738 111.171 6.18945 132.001 c 128,-1,12
EndSplineSet
EndChar

StartChar: semicolon
Encoding: 59 59 30
Width: 154
GlyphClass: 2
Flags: W
LayerCount: 2
Fore
SplineSet
65.6377 469.684 m 128,-1,2
 93.5996 490 93.5996 490 122.651 490 c 128,-1,3
 151.703 490 151.703 490 172.902 470.891 c 128,-1,4
 194.102 451.781 194.102 451.781 187.793 416 c 0,5,6
 181.415 379.829 181.415 379.829 153.439 358.915 c 128,-1,7
 125.464 338 125.464 338 96.1309 338 c 128,-1,8
 66.7979 338 66.7979 338 46.001 358.316 c 128,-1,9
 25.2041 378.633 25.2041 378.633 31.4404 414 c 0,0,1
 37.6758 449.367 37.6758 449.367 65.6377 469.684 c 128,-1,2
14.4258 147.655 m 0,2,3
 41.4092 167.828 41.4092 167.828 70.1855 168.494 c 0,4,5
 71.0723 168.516 71.0723 168.516 71.9541 168.516 c 0,6,7
 100.449 168.516 100.449 168.516 119.49 147.761 c 0,8,9
 139.625 125.813 139.625 125.813 132.957 88 c 0,10,11
 128.854 64.7305 128.854 64.7305 114.574 41.833 c 0,12,13
 101.406 20.7197 101.406 20.7197 89.8262 8.37891 c 0,14,15
 77.8369 -4.40039 77.8369 -4.40039 53.7393 -20.1143 c 2,16,-1
 28.1953 -36.7012 l 2,17,18
 22.9111 -40.0537 22.9111 -40.0537 3.03906 -49.6758 c 0,19,20
 -13.5977 -57.7314 -13.5977 -57.7314 -21.3848 -43.8818 c 0,21,22
 -29.1709 -30.0322 -29.1709 -30.0322 -14.8506 -17.8574 c 0,23,24
 -11.3643 -14.8945 -11.3643 -14.8945 -5.24902 -6.42285 c 0,25,26
 2.24805 3.96582 2.24805 3.96582 9.46289 15.333 c 0,27,28
 14.2861 22.9326 14.2861 22.9326 17.9238 29.4902 c 1,29,30
 2.62891 31.7109 2.62891 31.7109 -8.47363 43.3516 c 0,31,32
 -22.4043 57.957 -22.4043 57.957 -21.9316 78.9307 c 0,33,34
 -21.8174 83.9707 -21.8174 83.9707 -20.873 89.3262 c 0,35,36
 -20.7949 89.7686 -20.7949 89.7686 -20.5586 90.8975 c 0,37,38
 -20.3213 92.0273 -20.3213 92.0273 -20.2412 92.4756 c 0,39,40
 -14.2266 126.234 -14.2266 126.234 14.4258 147.655 c 0,2,3
EndSplineSet
EndChar

StartChar: less
Encoding: 60 60 31
Width: 618
GlyphClass: 2
Flags: W
LayerCount: 2
Fore
SplineSet
601.3 628.177 m 1,0,-1
 575.81 483.617 l 1,1,-1
 328.369 370.338 l 1,0,0
 529.892 250.903 l 1,1,-1
 502.382 103.021 l 1,2,-1
 140.218 313.45 l 1,5,-1
 41.3896 375.558 l 1,6,-1
 142.879 420.001 l 1,7,-1
 601.3 628.177 l 1,0,-1
EndSplineSet
EndChar

StartChar: equal
Encoding: 61 61 32
Width: 665
GlyphClass: 2
Flags: W
LayerCount: 2
Fore
SplineSet
84.8477 309.044 m 1,0,-1
 566.664 307.954 l 1,1,-1
 541.186 179.956 l 1,2,-1
 59.3691 181.046 l 1,3,-1
 84.8477 309.044 l 1,0,-1
121.903 547.046 m 1,4,-1
 603.724 545.956 l 1,5,-1
 584.062 417.954 l 1,6,-1
 102.242 419.044 l 1,7,-1
 121.903 547.046 l 1,4,-1
EndSplineSet
EndChar

StartChar: greater
Encoding: 62 62 33
Width: 618
GlyphClass: 2
Flags: W
LayerCount: 2
Fore
SplineSet
494.307 420.001 m 1,1,-1
 580.123 375.558 l 1,2,-1
 459.392 313.45 l 1,3,-1
 23.0195 103.021 l 1,4,-1
 47.6602 250.903 l 1,5,-1
 291.302 370.338 l 1,0,0
 83.8096 483.617 l 1,1,-1
 109.3 628.177 l 1,2,-1
 494.307 420.001 l 1,1,-1
EndSplineSet
EndChar

StartChar: question
Encoding: 63 63 34
Width: 548
GlyphClass: 2
Flags: W
LayerCount: 2
Fore
SplineSet
250.732 644.243 m 128,-1,2
 231.399 636.485 231.399 636.485 219.156 624.577 c 128,-1,3
 206.913 612.669 206.913 612.669 188.704 596.321 c 2,4,-1
 167.324 577.127 l 1,5,-1
 122.312 681.233 l 1,6,-1
 134.086 692.287 l 2,5,6
 176.014 731.648 176.014 731.648 223.251 750.324 c 128,-1,7
 270.488 769 270.488 769 330.561 769 c 0,8,9
 427.502 769 427.502 769 476.302 713.815 c 128,-1,10
 525.1 658.631 525.1 658.631 509.119 568 c 0,11,12
 500.859 521.158 500.859 521.158 474.279 482.67 c 128,-1,13
 447.699 444.182 447.699 444.182 396.905 400.109 c 2,14,-1
 347.365 356.305 l 2,15,16
 307.054 319.7 307.054 319.7 298.716 302.803 c 128,-1,17
 290.378 285.905 290.378 285.905 281.755 237 c 2,18,-1
 281.548 235.827 l 1,19,-1
 271.28 200.896 l 1,20,-1
 134.509 193.909 l 1,21,-1
 145.753 248.303 l 2,21,22
 156.738 310.603 156.738 310.603 180.881 347.118 c 128,-1,23
 205.023 383.633 205.023 383.633 252.402 424.808 c 2,24,-1
 303.746 471.005 l 1,25,26
 318.572 483.21 l 130,-1,27
 333.397 495.415 333.397 495.415 342.452 505.065 c 128,-1,28
 351.507 514.716 351.507 514.716 358.506 522.849 c 128,-1,29
 365.504 530.982 365.504 530.982 369.547 538.914 c 128,-1,30
 373.589 546.846 373.589 546.846 374.71 553.2 c 0,0,0
 374.865 554.082 374.865 554.082 374.983 555.163 c 0,1,2
 375.104 556.244 375.104 556.244 375.201 556.906 c 0,31,32
 383.188 610.565 383.188 610.565 361.417 631.283 c 0,33,34
 339.645 652 339.645 652 296.931 652 c 0,0,1
 270.064 652 270.064 652 250.732 644.243 c 128,-1,2
136.786 117.001 m 128,-1,35
 164.65 137.832 164.65 137.832 179.761 138.174 c 128,-1,36
 194.871 138.517 194.871 138.517 195.805 138.517 c 0,0,0
 224.211 138.517 224.211 138.517 244.761 118.442 c 128,-1,37
 265.311 98.3672 265.311 98.3672 258.897 62 c 0,38,39
 252.233 24.2021 252.233 24.2021 224.226 2.10059 c 128,-1,40
 196.218 -20 196.218 -20 166.527 -20 c 128,-1,41
 136.835 -20 136.835 -20 116.43 1.50977 c 128,-1,42
 96.0244 23.0186 96.0244 23.0186 102.545 60 c 0,33,34
 108.923 96.1709 108.923 96.1709 136.786 117.001 c 128,-1,35
EndSplineSet
EndChar

StartChar: at
Encoding: 64 64 35
Width: 905
GlyphClass: 2
Flags: W
LayerCount: 2
Fore
SplineSet
600.604 43.9229 m 0,0,1
 580.143 33.7852 580.143 33.7852 545.194 21.3105 c 0,2,3
 509.226 8.4707 509.226 8.4707 467.451 3.16699 c 0,4,5
 426.758 -2 426.758 -2 373.464 -2 c 0,6,7
 304.978 -2 304.978 -2 248.518 19.6797 c 0,8,9
 191.886 41.4277 191.886 41.4277 156.42 77.3281 c 0,10,11
 121.54 112.637 121.54 112.637 99.4971 157.951 c 0,12,13
 77.3135 203.555 77.3135 203.555 72.1045 252.561 c 0,14,15
 66.9316 301.229 66.9316 301.229 75.5312 350 c 0,16,17
 101.328 496.301 101.328 496.301 208.735 602.796 c 0,18,19
 266.96 660.526 266.96 660.526 356.735 695.455 c 0,20,21
 445.525 730 445.525 730 528.535 730 c 0,22,23
 604.554 730 604.554 730 671.577 708.109 c 0,24,25
 741.029 685.426 741.029 685.426 778.063 647.066 c 0,26,27
 826.56 596.837 826.56 596.837 841.742 523.143 c 0,28,29
 856.463 451.693 856.463 451.693 842.234 371 c 0,30,31
 831.523 310.256 831.523 310.256 810.646 273.265 c 0,32,33
 788.354 233.765 788.354 233.765 737.384 194.968 c 0,34,35
 694.462 162.296 694.462 162.296 640.021 154.228 c 0,36,37
 632.129 153.059 632.129 153.059 624.513 152.435 c 1,38,-1
 677.635 86.3359 l 1,39,-1
 654.408 73.1035 l 2,40,41
 620.427 53.7441 620.427 53.7441 600.604 43.9229 c 0,0,1
547.859 544.686 m 1,42,-1
 549.679 555 l 1,43,-1
 664.202 555 l 1,44,-1
 641.846 465.519 l 2,45,46
 629.729 417.021 629.729 417.021 626.362 403.17 c 0,47,48
 623.243 390.333 623.243 390.333 620.219 373.18 c 0,49,50
 618.175 361.59 618.175 361.59 616.184 348.079 c 0,51,52
 611.409 315.668 611.409 315.668 610.035 281.832 c 1,53,54
 613.303 267.618 613.303 267.618 636.522 263.742 c 0,55,56
 642.167 262.8 642.167 262.8 647.436 262.8 c 0,57,58
 666.672 262.8 666.672 262.8 682.365 276.143 c 0,59,60
 708.405 298.279 708.405 298.279 715.542 310.527 c 0,61,62
 722.74 322.883 722.74 322.883 730.543 367.078 c 0,63,64
 730.634 367.594 730.634 367.594 730.815 368.593 c 0,65,66
 730.998 369.592 730.998 369.592 731.09 370.114 c 0,67,68
 751.639 486.653 751.639 486.653 690.144 556.528 c 0,69,70
 664.561 585.598 664.561 585.598 615.531 601.366 c 0,71,72
 563.811 618 563.811 618 509.787 618 c 0,73,74
 446.639 618 446.639 618 380.883 593.431 c 0,75,76
 316.446 569.354 316.446 569.354 279.087 529.804 c 0,77,78
 211.647 458.41 211.647 458.41 192.531 350 c 0,79,80
 186.165 313.892 186.165 313.892 195.495 273 c 0,81,82
 205.014 231.282 205.014 231.282 228.978 193.612 c 0,83,84
 252.395 156.804 252.395 156.804 295.827 131.713 c 0,85,86
 338.573 107.021 338.573 107.021 392.945 105.995 c 0,87,88
 407.824 105.714 407.824 105.714 413.028 105.714 c 0,89,90
 437.196 105.714 437.196 105.714 458.099 107.431 c 0,91,92
 486.595 109.771 486.595 109.771 505.12 114.749 c 0,93,94
 524.421 119.935 524.421 119.935 541.506 126.493 c 0,95,96
 557.187 132.514 557.187 132.514 569.428 139.69 c 2,97,-1
 591.17 152.437 l 1,98,99
 567.601 154.548 567.601 154.548 547.396 162.814 c 0,100,101
 516.575 175.423 516.575 175.423 501.736 198.812 c 1,102,103
 464.683 180.635 464.683 180.635 424.159 177.559 c 0,104,105
 415.106 176.872 415.106 176.872 406.349 176.872 c 0,106,107
 365.974 176.872 365.974 176.872 332.144 191.431 c 0,108,109
 289.685 209.703 289.685 209.703 266.781 255.265 c 0,110,111
 243.956 300.67 243.956 300.67 253.756 362.595 c 0,112,113
 254.341 366.285 254.341 366.285 254.726 368.467 c 0,114,115
 262.626 413.271 262.626 413.271 284.791 450.284 c 0,116,117
 308.775 490.334 308.775 490.334 341.761 513.965 c 0,118,119
 373.469 536.681 373.469 536.681 409.906 548.849 c 0,120,121
 442.341 559.68 442.341 559.68 475 559.68 c 0,122,123
 479.432 559.68 479.432 559.68 483.863 559.48 c 0,124,125
 520.186 557.841 520.186 557.841 547.859 544.686 c 1,42,-1
367.353 366 m 0,77,78
 362.575 338.906 362.575 338.906 372.116 318.637 c 128,-1,79
 381.657 298.367 381.657 298.367 399.413 291.136 c 128,-1,80
 417.168 283.904 417.168 283.904 436.934 283.904 c 1,0,0
 436.423 283.904 436.423 283.904 438.367 283.93 c 0,1,2
 440.312 283.954 440.312 283.954 450.666 284.35 c 128,-1,81
 461.02 284.745 461.02 284.745 480.3 297.517 c 128,-1,82
 499.581 310.288 499.581 310.288 508.781 331.448 c 0,83,84
 510.596 335.62 510.596 335.62 514.38 357.08 c 0,0,0
 515.29 362.24 515.29 362.24 517.89 378.501 c 128,-1,85
 520.49 394.763 520.49 394.763 521.516 405.128 c 1,0,0
 518.237 428.03 518.237 428.03 504.438 441.585 c 128,-1,88
 490.637 455.14 490.637 455.14 480.7 455.331 c 128,-1,89
 470.763 455.522 470.763 455.522 469.776 455.522 c 0,0,0
 449.032 455.522 449.032 455.522 427.937 447.274 c 128,-1,90
 406.842 439.025 406.842 439.025 389.768 417.654 c 128,-1,91
 372.692 396.282 372.692 396.282 367.353 366 c 0,77,78
EndSplineSet
EndChar

StartChar: A
Encoding: 65 65 36
Width: 674
GlyphClass: 2
Flags: W
LayerCount: 2
Fore
SplineSet
435.08 647.125 m 1,0,-1
 613.1 -19 l 1,1,-1
 474.679 -19 l 1,2,-1
 420.771 163 l 1,3,-1
 171.431 163 l 1,4,-1
 58.3389 -19 l 1,5,-1
 -79.8672 -19 l 1,6,-1
 330.224 663.621 l 1,7,-1
 398.656 782.365 l 1,8,-1
 435.08 647.125 l 1,0,-1
387.055 286 m 1,9,-1
 344.587 460.744 l 1,10,-1
 245.427 286 l 1,11,-1
 387.055 286 l 1,9,-1
EndSplineSet
EndChar

StartChar: B
Encoding: 66 66 37
Width: 517
GlyphClass: 2
Flags: W
LayerCount: 2
Fore
SplineSet
88.2197 708 m 1,0,-1
 314.275 708 l 1,1,-1
 316.854 706.051 l 1,2,3
 362.858 705.823 362.858 705.823 397.347 687.487 c 0,4,5
 434.34 667.818 434.34 667.818 452.129 635.814 c 0,6,7
 469.496 604.569 469.496 604.569 471.982 565.157 c 0,8,9
 473.488 541.308 473.488 541.308 469.434 518.314 c 0,10,11
 466.788 503.309 466.788 503.309 461.781 488.712 c 0,12,13
 448.832 450.959 448.832 450.959 418.666 418.089 c 0,14,15
 405.99 404.276 405.99 404.276 390.929 393.102 c 1,16,17
 412.987 383.956 412.987 383.956 429.724 366.51 c 0,18,19
 461.418 333.469 461.418 333.469 469.153 285.391 c 0,20,21
 475.227 247.643 475.227 247.643 467.797 205.504 c 0,22,23
 466.019 195.419 466.019 195.419 463.466 185.09 c 0,24,25
 450.232 131.519 450.232 131.519 418.827 85.8867 c 0,26,27
 386.352 38.7012 386.352 38.7012 330.047 8.75195 c 0,28,29
 277.613 -19.1377 277.613 -19.1377 215.481 -19.1377 c 0,30,31
 211.653 -19.1377 211.653 -19.1377 207.725 -19.0293 c 2,32,-1
 197.857 -19.9502 l 1,33,-1
 8.85352 -20 l 1,34,-1
 8.95703 -19.4121 l 1,35,-1
 -40.2197 -20.4121 l 1,36,-1
 88.2197 708 l 1,0,-1
195.471 596 m 1,37,-1
 165.672 427 l 1,38,-1
 256.231 427 l 1,39,40
 285.583 431.321 285.583 431.321 306.529 448.797 c 0,41,42
 327.739 466.493 327.739 466.493 334.819 489.188 c 0,43,44
 337.468 497.684 337.468 497.684 338.954 506.111 c 0,45,46
 341.925 522.959 341.925 522.959 340.261 539.682 c 0,47,48
 338.016 562.229 338.016 562.229 320.129 578.146 c 0,49,50
 302.11 594.183 302.11 594.183 271.756 595.008 c 2,51,-1
 252.389 595.533 l 1,52,-1
 195.471 596 l 1,37,-1
252.471 596 m 1,53,-1
 255.997 616 l 1,54,-1
 272.471 596 l 1,55,-1
 252.471 596 l 1,53,-1
145.746 314 m 1,56,-1
 110.657 115 l 1,57,-1
 243.401 114.997 l 2,58,59
 274.533 115.791 274.533 115.791 297.232 134.428 c 0,60,61
 320.383 153.435 320.383 153.435 328.472 181.271 c 0,62,63
 331.398 191.339 331.398 191.339 333.163 201.349 c 0,64,65
 336.912 222.612 336.912 222.612 335.435 243.716 c 0,66,67
 333.433 272.29 333.433 272.29 314.55 292.688 c 0,68,69
 296.48 312.208 296.48 312.208 267.031 313.007 c 2,70,-1
 247.664 313.533 l 1,71,-1
 145.746 314 l 1,56,-1
247.746 314 m 1,72,-1
 251.273 334 l 1,73,-1
 267.746 314 l 1,74,-1
 247.746 314 l 1,72,-1
EndSplineSet
EndChar

StartChar: C
Encoding: 67 67 38
Width: 694
GlyphClass: 2
Flags: W
LayerCount: 2
Fore
SplineSet
648.357 689.109 m 0,0,1
 669.49 678.415 669.49 678.415 679.464 670.654 c 128,-1,2
 689.438 662.893 689.438 662.893 707.966 644.186 c 2,3,-1
 722.746 629.261 l 1,4,-1
 602.342 536.878 l 1,5,-1
 592.212 553.721 l 2,6,7
 584.277 566.914 584.277 566.914 544.097 580.983 c 128,-1,8
 503.916 595.052 503.916 595.052 472.792 596.012 c 0,9,10
 467.374 596.178 467.374 596.178 463.878 596.178 c 0,11,12
 393.645 596.178 393.645 596.178 316.743 553.141 c 128,-1,13
 239.842 510.104 239.842 510.104 193.812 438.541 c 0,14,15
 159.274 384.843 159.274 384.843 150.064 332.611 c 0,16,17
 142.918 292.082 142.918 292.082 156.177 226.59 c 128,-1,18
 169.437 161.098 169.437 161.098 258.287 116.128 c 0,19,20
 302.188 93.9092 302.188 93.9092 327.315 93.459 c 129,-1,21
 352.443 93.0088 352.443 93.0088 355.018 92.9785 c 128,-1,22
 357.592 92.9473 357.592 92.9473 358.629 92.9473 c 0,23,24
 407.834 92.9473 407.834 92.9473 455.911 109.376 c 128,-1,25
 503.988 125.806 503.988 125.806 553.35 158.084 c 2,26,-1
 569.898 168.905 l 1,27,-1
 638.475 73.5547 l 1,28,-1
 621.431 60.2012 l 2,29,30
 567.036 17.583 567.036 17.583 498.649 -6.10156 c 128,-1,31
 430.262 -29.7861 430.262 -29.7861 389.835 -32.1992 c 128,-1,32
 349.407 -34.6133 349.407 -34.6133 331.009 -34.6133 c 0,33,34
 291.425 -34.6133 291.425 -34.6133 246.809 -27.9443 c 128,-1,35
 202.192 -21.2764 202.192 -21.2764 169.695 -2.76953 c 0,36,37
 37.0439 72.7764 37.0439 72.7764 19.6035 168.791 c 128,-1,38
 2.16211 264.805 2.16211 264.805 12.4521 323.162 c 0,39,40
 27.0977 406.22 27.0977 406.22 83.2559 493.469 c 0,41,42
 154.428 604.041 154.428 604.041 262.982 663.217 c 128,-1,43
 371.538 722.394 371.538 722.394 479.195 722.394 c 0,44,45
 485.852 722.394 485.852 722.394 497.455 721.984 c 0,46,47
 589.841 718.725 589.841 718.725 648.357 689.109 c 0,0,1
EndSplineSet
EndChar

StartChar: D
Encoding: 68 68 39
Width: 611
GlyphClass: 2
Flags: W
LayerCount: 2
Fore
SplineSet
243.209 712.333 m 0,0,0
 253.923 712.333 253.923 712.333 270.436 711.891 c 128,-1,2
 286.948 711.448 286.948 711.448 319.591 710.998 c 0,3,4
 380.021 710.166 380.021 710.166 429.937 692.488 c 128,-1,5
 479.853 674.81 479.853 674.81 510.011 645.976 c 128,-1,6
 540.168 617.143 540.168 617.143 557.155 589.905 c 128,-1,7
 574.143 562.667 574.143 562.667 582.384 534.553 c 0,8,9
 603.939 461.029 603.939 461.029 598.867 410.259 c 128,-1,10
 593.795 359.489 593.795 359.489 590.6 341.363 c 0,0,0
 579.636 279.188 579.636 279.188 548.773 213.117 c 128,-1,11
 517.912 147.046 517.912 147.046 452.212 85.7578 c 128,-1,12
 386.513 24.4697 386.513 24.4697 301.97 -2.93555 c 0,13,14
 279.584 -10.1914 279.584 -10.1914 224.053 -19.6953 c 2,15,16
 222.274 -20 l 1,17,-1
 220.523 -20 l 2,15,16
 204.696 -20 204.696 -20 175.608 -20.5 c 128,-1,17
 146.52 -21 146.52 -21 129.369 -21 c 128,-1,18
 112.219 -21 112.219 -21 73.2676 -19.9971 c 2,19,-1
 -45.4766 -20 l 1,20,-1
 83.418 711 l 1,21,-1
 208.399 711 l 2,0,0
 222.076 712.333 222.076 712.333 243.209 712.333 c 0,0,0
457.104 468.571 m 0,22,23
 443.906 526.816 443.906 526.816 401.28 560.908 c 128,-1,24
 358.652 595 358.652 595 289.964 595 c 0,25,26
 284.837 595 284.837 595 259.558 595.333 c 128,-1,27
 234.277 595.667 234.277 595.667 222.191 595.667 c 0,0,0
 208.396 595.667 208.396 595.667 195.154 595.452 c 1,0,0
 111.086 102.922 l 1,0,0
 136.575 102.72 136.575 102.72 150.695 102.283 c 128,-1,31
 164.815 101.846 164.815 101.846 169.697 101.846 c 0,0,0
 196.887 101.846 196.887 101.846 232.302 106.543 c 128,-1,32
 267.719 111.24 267.719 111.24 302.382 124.49 c 0,33,34
 349.951 142.675 349.951 142.675 385.391 187.744 c 128,-1,35
 420.83 232.813 420.83 232.813 434.408 276.742 c 128,-1,36
 447.984 320.67 447.984 320.67 453.911 354.281 c 0,0,0
 457.061 372.146 457.061 372.146 460.398 405.721 c 128,-1,37
 463.735 439.297 463.735 439.297 457.104 468.571 c 0,22,23
EndSplineSet
EndChar

StartChar: E
Encoding: 69 69 40
Width: 483
GlyphClass: 2
Flags: W
LayerCount: 2
Fore
SplineSet
98.624 713 m 1,0,-1
 504.624 713 l 1,1,-1
 482.583 588 l 1,2,-1
 208.583 588 l 1,3,-1
 181.076 432 l 1,4,-1
 377.076 432 l 1,5,-1
 355.388 309 l 1,6,-1
 159.388 309 l 1,7,-1
 122.888 102 l 1,8,-1
 405.888 102 l 1,9,-1
 384.376 -20 l 1,10,-1
 -30.624 -20 l 1,11,-1
 98.624 713 l 1,0,-1
EndSplineSet
EndChar

StartChar: F
Encoding: 70 70 41
Width: 469
GlyphClass: 2
Flags: W
LayerCount: 2
Fore
SplineSet
102.447 711 m 1,0,-1
 495.447 711 l 1,1,-1
 473.936 589 l 1,2,-1
 213.936 589 l 1,0,0
 186.252 432 l 1,0,0
 381.252 432 l 1,1,-1
 359.564 309 l 1,2,-1
 164.564 309 l 1,0,0
 106.553 -20 l 1,1,-1
 -26.4473 -20 l 1,2,-1
 102.447 711 l 1,0,-1
EndSplineSet
EndChar

StartChar: G
Encoding: 71 71 42
Width: 704
GlyphClass: 2
Flags: W
LayerCount: 2
Fore
SplineSet
649.148 115.96 m 2,0,1
 644.398 89.0254 644.398 89.0254 615.48 74.5244 c 1,2,3
 561.738 32.1572 561.738 32.1572 494.022 8.2168 c 128,-1,4
 426.306 -15.7246 426.306 -15.7246 382.878 -18.9932 c 128,-1,5
 339.451 -22.2607 339.451 -22.2607 316.751 -22.2607 c 0,6,7
 281.271 -22.2607 281.271 -22.2607 238.081 -16.2461 c 128,-1,8
 194.89 -10.2314 194.89 -10.2314 162.914 8.26562 c 0,9,10
 76.6533 58.1631 76.6533 58.1631 35.7422 135.479 c 128,-1,11
 -5.16992 212.795 -5.16992 212.795 -1.18359 263.296 c 128,-1,12
 2.80176 313.798 2.80176 313.798 6.11621 332.592 c 0,13,14
 17.1426 395.127 17.1426 395.127 53.1104 467.521 c 128,-1,15
 89.0791 539.916 89.0791 539.916 154.545 603.625 c 128,-1,16
 220.011 667.334 220.011 667.334 305.914 703.782 c 128,-1,17
 391.817 740.23 391.817 740.23 477.594 740.23 c 0,18,19
 484.789 740.23 484.789 740.23 491.859 739.988 c 0,20,21
 583.577 736.846 583.577 736.846 642.806 706.053 c 0,22,23
 664.95 694.539 664.95 694.539 674.363 687.216 c 128,-1,24
 683.774 679.893 683.774 679.893 702.303 661.186 c 2,25,-1
 716.966 646.378 l 1,26,-1
 595.41 551.834 l 1,27,-1
 585.826 570.706 l 2,28,29
 579.07 584.008 579.07 584.008 538.242 597.661 c 128,-1,30
 497.414 611.314 497.414 611.314 466.837 613.024 c 0,31,32
 464.113 613.177 464.113 613.177 458.307 613.177 c 0,33,34
 388.076 613.177 388.076 613.177 310.827 569.535 c 128,-1,35
 233.577 525.893 233.577 525.893 188.014 454.607 c 0,36,37
 153.351 400.374 153.351 400.374 143.911 346.839 c 0,38,39
 136.672 305.784 136.672 305.784 149.977 239.444 c 128,-1,40
 163.282 173.104 163.282 173.104 251.688 127.064 c 0,41,42
 292.271 105.931 292.271 105.931 316.841 105.47 c 129,-1,43
 341.409 105.009 341.409 105.009 344 104.977 c 128,-1,44
 346.591 104.944 346.591 104.944 347.634 104.944 c 0,45,46
 394.435 104.944 394.435 104.944 438.625 119.675 c 128,-1,47
 482.815 134.406 482.815 134.406 526.188 159.859 c 1,48,-1
 548.734 270 l 1,49,-1
 411.037 270 l 1,50,-1
 432.663 383.912 l 1,51,-1
 697.684 385.09 l 1,52,-1
 649.148 115.96 l 2,0,1
EndSplineSet
EndChar

StartChar: H
Encoding: 72 72 43
Width: 630
GlyphClass: 2
Flags: W
LayerCount: 2
Fore
SplineSet
525.712 714 m 1,0,-1
 656.712 714 l 1,1,-1
 527.288 -20 l 1,2,-1
 396.288 -20 l 1,3,-1
 451.137 291.061 l 1,0,0
 161.291 291.939 l 1,0,0
 106.288 -20 l 1,1,-1
 -26.7119 -20 l 1,2,-1
 102.007 710 l 1,3,-1
 233.734 710 l 1,4,-1
 218.632 617.137 l 1,10,-1
 182.813 414 l 1,0,0
 472.813 414 l 1,0,0
 525.712 714 l 1,0,-1
EndSplineSet
EndChar

StartChar: I
Encoding: 73 73 44
Width: 207
GlyphClass: 2
Flags: W
LayerCount: 2
Fore
SplineSet
102.771 716 m 1,0,-1
 232.772 716 l 1,1,-1
 104.229 -19 l 1,2,-1
 -25.7715 -19 l 1,3,-1
 102.771 716 l 1,0,-1
EndSplineSet
EndChar

StartChar: J
Encoding: 74 74 45
Width: 396
GlyphClass: 2
Flags: W
LayerCount: 2
Fore
SplineSet
75.7783 64.8438 m 129,-1,1
 92.0566 64.0127 92.0566 64.0127 94.9561 63.9131 c 128,-1,2
 97.8555 63.8135 97.8555 63.8135 99.0352 63.8135 c 0,3,4
 128.496 63.8135 128.496 63.8135 156.262 79.3105 c 128,-1,5
 184.028 94.8076 184.028 94.8076 208.137 133.022 c 128,-1,6
 232.246 171.237 232.246 171.237 241.27 222.415 c 0,7,8
 241.729 225.022 241.729 225.022 242.154 227.683 c 2,9,-1
 321.66 720 l 1,10,-1
 452.587 720 l 1,11,-1
 374.227 222.474 l 2,12,13
 373.369 216.67 373.369 216.67 372.351 210.893 c 0,14,15
 360.481 143.58 360.481 143.58 326.504 86.0635 c 128,-1,16
 292.525 28.5469 292.525 28.5469 244.591 -4.77441 c 128,-1,17
 196.654 -38.0947 196.654 -38.0947 153.499 -50.1367 c 128,-1,18
 110.344 -62.1787 110.344 -62.1787 76.8643 -62.1787 c 0,19,20
 58.3242 -62.1787 58.3242 -62.1787 23.6533 -56.667 c 128,-1,21
 -11.0186 -51.1553 -11.0186 -51.1553 -50.6533 -24.0762 c 2,22,-1
 -64.8789 -14.3574 l 1,23,-1
 15.874 101.781 l 1,24,-1
 32.2686 88.2139 l 2,25,0
 59.501 65.6758 59.501 65.6758 75.7783 64.8438 c 129,-1,1
EndSplineSet
EndChar

StartChar: K
Encoding: 75 75 46
Width: 636
GlyphClass: 2
Flags: W
LayerCount: 2
Fore
SplineSet
468.841 706 m 1,0,-1
 634.697 706 l 1,1,-1
 279.424 362.526 l 1,0,0
 568.681 -22 l 1,1,-1
 399.019 -22 l 1,2,-1
 155.755 306.584 l 1,0,0
 97.8174 -22 l 1,1,-1
 -35.1826 -22 l 1,2,-1
 93.1826 706 l 1,3,-1
 226.183 706 l 1,4,-1
 175.059 416.059 l 1,0,0
 468.841 706 l 1,0,-1
EndSplineSet
EndChar

StartChar: L
Encoding: 76 76 47
Width: 474
GlyphClass: 2
Flags: W
LayerCount: 2
Fore
SplineSet
119.398 105 m 1,0,0
 402.398 105 l 1,1,-1
 380.71 -18 l 1,2,-1
 -35.29 -18 l 1,3,-1
 93.29 711.216 l 1,4,-1
 226.038 709.786 l 1,5,-1
 119.398 105 l 1,0,0
EndSplineSet
EndChar

StartChar: M
Encoding: 77 77 48
Width: 734
GlyphClass: 2
Flags: W
LayerCount: 2
Fore
SplineSet
366.446 363.8 m 1,0,0
 741.471 776.38 l 1,1,-1
 639.088 -24 l 1,2,-1
 513.396 -24 l 1,3,-1
 559.91 402.418 l 1,0,0
 330.085 157.042 l 1,1,-1
 183.268 405.742 l 1,0,0
 79.3252 -21 l 1,1,-1
 -46.3643 -21 l 1,2,-1
 133.646 780.227 l 1,3,-1
 366.446 363.8 l 1,0,0
EndSplineSet
EndChar

StartChar: N
Encoding: 78 78 49
Width: 646
GlyphClass: 2
Flags: W
LayerCount: 2
Fore
SplineSet
178.879 414.662 m 1,0,0
 102.765 -17 l 1,1,-1
 -24.2354 -17 l 1,2,-1
 111.403 752.241 l 1,3,-1
 468.687 256.599 l 1,0,0
 546.891 716 l 1,1,-1
 675.013 716 l 1,2,-1
 534.597 -80.3379 l 1,3,-1
 178.879 414.662 l 1,0,0
EndSplineSet
EndChar

StartChar: O
Encoding: 79 79 50
Width: 752
GlyphClass: 2
Flags: W
LayerCount: 2
Fore
SplineSet
399.11 607.001 m 2,0,1
 345.653 606.964 345.653 606.964 299.713 585.646 c 128,-1,2
 253.772 564.329 253.772 564.329 221.972 529.137 c 128,-1,3
 190.173 493.944 190.173 493.944 168.734 449.507 c 128,-1,4
 147.296 405.07 147.296 405.07 139.413 360.367 c 0,5,6
 138.887 357.383 138.887 357.383 134.901 331.956 c 128,-1,7
 130.917 306.529 130.917 306.529 138.672 260.124 c 128,-1,8
 146.427 213.719 146.427 213.719 167.801 178.857 c 128,-1,9
 189.177 143.996 189.177 143.996 229.754 122.498 c 128,-1,10
 270.332 101 270.332 101 325.742 101 c 0,11,12
 382.354 101 382.354 101 433.081 122.617 c 128,-1,13
 483.807 144.234 483.807 144.234 518.94 179.562 c 128,-1,14
 554.073 214.889 554.073 214.889 578.124 261.161 c 128,-1,15
 602.174 307.433 602.174 307.433 606.783 332.206 c 128,-1,16
 611.392 356.979 611.392 356.979 611.622 358.282 c 0,17,18
 619.818 404.768 619.818 404.768 611.22 449.78 c 128,-1,19
 602.62 494.793 602.62 494.793 579.022 530.128 c 128,-1,20
 555.426 565.464 555.426 565.464 510.282 586.253 c 128,-1,21
 465.139 607.042 465.139 607.042 404.614 607.042 c 2,22,-1
 400.382 607.005 l 1,23,-1
 399.11 607.001 l 2,0,1
589.958 694.285 m 128,-1,25
 659.646 661.57 659.646 661.57 696.998 608.488 c 128,-1,26
 734.351 555.405 734.351 555.405 747.093 488.647 c 128,-1,27
 759.834 421.89 759.834 421.89 747.729 353.231 c 2,28,-1
 741.033 316.788 l 2,29,30
 734.338 280.345 734.338 280.345 697.794 213.463 c 128,-1,31
 661.25 146.582 661.25 146.582 605.784 94.0146 c 128,-1,32
 550.319 41.4463 550.319 41.4463 470.683 9.22266 c 128,-1,33
 391.045 -23 391.045 -23 301.877 -23 c 0,34,35
 214.539 -23 214.539 -23 149.155 9.3623 c 128,-1,36
 83.7715 41.7236 83.7715 41.7236 49.543 94.9014 c 128,-1,37
 15.3135 148.079 15.3135 148.079 3.95312 214.856 c 128,-1,38
 -7.40723 281.634 -7.40723 281.634 4.99316 351.964 c 128,-1,39
 17.3945 422.294 17.3945 422.294 51.7686 489.05 c 128,-1,40
 86.1416 555.806 86.1416 555.806 138.602 608.993 c 128,-1,41
 191.062 662.18 191.062 662.18 266.378 694.59 c 128,-1,42
 341.694 727 341.694 727 427.123 727 c 0,43,24
 520.271 727 520.271 727 589.958 694.285 c 128,-1,25
EndSplineSet
EndChar

StartChar: P
Encoding: 80 80 51
Width: 506
GlyphClass: 2
Flags: W
LayerCount: 2
Fore
SplineSet
323.276 711.998 m 2,1,2
 325.476 712.034 325.476 712.034 327.582 712.034 c 0,0,0
 392.648 712.034 392.648 712.034 437.309 680.971 c 128,-1,3
 481.967 649.908 481.967 649.908 496.141 602.729 c 128,-1,4
 510.314 555.547 510.314 555.547 500.771 501.424 c 0,0,0
 500.541 500.117 500.541 500.117 495.247 471.676 c 128,-1,5
 489.953 443.234 489.953 443.234 457.669 395.091 c 128,-1,6
 425.385 346.947 425.385 346.947 368.253 315.457 c 128,-1,7
 311.122 283.967 311.122 283.967 242.295 283.967 c 0,0,0
 240.164 283.967 240.164 283.967 237.865 284.002 c 2,8,-1
 152.778 283.189 l 1,0,0
 99.9229 -16.5703 l 1,1,-1
 -32.583 -19.4395 l 1,2,-1
 96.583 713.097 l 1,3,-1
 323.276 711.998 l 2,1,2
206.847 589.824 m 1,0,0
 174.257 405 l 1,0,0
 262.257 405 l 2,14,15
 288.045 405 288.045 405 309.579 418.204 c 128,-1,16
 331.113 431.408 331.113 431.408 344.203 451.679 c 128,-1,17
 357.291 471.949 357.291 471.949 360.523 486.124 c 128,-1,18
 363.756 500.299 363.756 500.299 364.32 503.497 c 0,0,0
 368.007 524.409 368.007 524.409 363.782 543.301 c 128,-1,19
 359.558 562.192 359.558 562.192 343.391 575.596 c 128,-1,20
 327.225 589 327.225 589 300.613 589 c 2,21,-1
 206.847 589.824 l 1,0,0
EndSplineSet
EndChar

StartChar: Q
Encoding: 81 81 52
Width: 763
GlyphClass: 2
Flags: W
LayerCount: 2
Fore
SplineSet
406.773 607.001 m 2,0,1
 353.313 606.964 353.313 606.964 307.33 585.626 c 128,-1,2
 261.346 564.289 261.346 564.289 229.104 529.114 c 128,-1,3
 196.864 493.938 196.864 493.938 175.927 449.602 c 128,-1,4
 154.989 405.265 154.989 405.265 147.108 360.572 c 0,0,0
 146.564 357.486 146.564 357.486 142.57 332.008 c 128,-1,5
 138.578 306.529 138.578 306.529 146.332 260.124 c 128,-1,6
 154.087 213.719 154.087 213.719 175.462 178.857 c 128,-1,7
 196.837 143.996 196.837 143.996 237.414 122.498 c 128,-1,8
 277.992 101 277.992 101 332.402 101 c 0,9,10
 389.977 101 389.977 101 440.207 122.602 c 128,-1,11
 490.437 144.204 490.437 144.204 525.621 179.583 c 128,-1,12
 560.806 214.961 560.806 214.961 585.304 261.196 c 128,-1,13
 609.802 307.431 609.802 307.431 618.275 355.483 c 128,-1,14
 626.748 403.536 626.748 403.536 618.491 449.201 c 128,-1,15
 610.234 494.865 610.234 494.865 586.67 530.151 c 128,-1,16
 563.104 565.438 563.104 565.438 517.479 586.24 c 128,-1,17
 471.855 607.042 471.855 607.042 412.193 607.042 c 2,0,0
 408.048 607.005 l 1,1,-1
 406.773 607.001 l 2,0,1
597.645 694.273 m 128,-1,20
 667.356 661.547 667.356 661.547 704.189 608.448 c 128,-1,21
 741.021 555.35 741.021 555.35 753.885 487.953 c 128,-1,22
 766.749 420.556 766.749 420.556 754.388 350.451 c 128,-1,23
 742.026 280.347 742.026 280.347 704.955 213.465 c 128,-1,24
 667.885 146.584 667.885 146.584 612.962 94.0273 c 128,-1,25
 558.04 41.4707 558.04 41.4707 478.373 9.23535 c 128,-1,26
 398.706 -23 398.706 -23 308.538 -23 c 0,27,28
 221.2 -23 221.2 -23 155.79 9.375 c 128,-1,29
 90.3799 41.75 90.3799 41.75 56.6895 94.916 c 128,-1,30
 23 148.082 23 148.082 11.1201 214.822 c 128,-1,31
 -0.759766 281.562 -0.759766 281.562 11.6543 351.964 c 128,-1,32
 24.0684 422.366 24.0684 422.366 58.9629 489.114 c 128,-1,33
 93.8584 555.862 93.8584 555.862 146.29 609.021 c 128,-1,34
 198.722 662.18 198.722 662.18 274.039 694.59 c 128,-1,35
 349.355 727 349.355 727 434.783 727 c 0,18,19
 527.933 727 527.933 727 597.645 694.273 c 128,-1,20
563.949 212.32 m 1,36,-1
 684.509 45.8799 l 1,37,-1
 562.933 -41.8369 l 1,38,-1
 456.267 111.821 l 1,39,-1
 391.657 203.433 l 1,40,-1
 510.602 287.574 l 1,41,-1
 563.949 212.32 l 1,36,-1
EndSplineSet
EndChar

StartChar: R
Encoding: 82 82 53
Width: 489
GlyphClass: 2
Flags: W
LayerCount: 2
Fore
SplineSet
320.996 720.998 m 2,1,2
 323.582 721.048 323.582 721.048 326.173 721.048 c 0,0,0
 379.815 721.048 379.815 721.048 420.396 699.39 c 128,-1,3
 460.976 677.731 460.976 677.731 480.207 641.538 c 128,-1,4
 499.44 605.345 499.44 605.345 501.418 569.644 c 128,-1,5
 503.395 533.943 503.395 533.943 498.792 507.842 c 0,0,0
 495.631 489.912 495.631 489.912 485.207 459.336 c 128,-1,6
 474.785 428.761 474.785 428.761 445.574 392.541 c 128,-1,7
 416.364 356.32 416.364 356.32 382.544 334.116 c 1,0,0
 490.607 -19 l 1,1,-1
 345.197 -19 l 1,2,-1
 249.624 293.229 l 1,0,0
 243.155 293 243.155 293 235.865 293 c 2,13,-1
 150.884 292.192 l 1,0,0
 100.014 -19 l 1,1,-1
 -33.1592 -19 l 1,2,-1
 93.957 719.903 l 1,3,-1
 320.996 720.998 l 2,1,2
204.549 598 m 1,0,0
 172.104 414 l 1,0,0
 261.104 414 l 2,19,20
 285.893 414 285.893 414 307.509 427.254 c 128,-1,21
 329.126 440.509 329.126 440.509 342.598 460.734 c 128,-1,22
 356.07 480.96 356.07 480.96 358.919 494.471 c 128,-1,23
 361.767 507.981 361.767 507.981 362.165 510.239 c 0,0,0
 366.076 532.421 366.076 532.421 361.74 551.807 c 128,-1,24
 357.404 571.192 357.404 571.192 341.239 584.596 c 128,-1,25
 325.072 598 325.072 598 298.549 598 c 2,26,-1
 204.549 598 l 1,0,0
EndSplineSet
EndChar

StartChar: S
Encoding: 83 83 54
Width: 528
GlyphClass: 2
Flags: W
LayerCount: 2
Fore
SplineSet
421.544 715.2 m 128,-1,2
 459.562 705.399 459.562 705.399 493.523 674.787 c 2,3,-1
 506.359 663.217 l 1,4,-1
 419.46 562.51 l 1,5,-1
 405.083 576.686 l 2,4,5
 374.056 607.28 374.056 607.28 318.173 607.28 c 0,0,0
 306.188 607.28 306.188 607.28 295.234 606.11 c 0,6,7
 265.84 602.973 265.84 602.973 243.297 583.809 c 128,-1,8
 220.754 564.646 220.754 564.646 216.699 551.554 c 128,-1,9
 212.645 538.462 212.645 538.462 212.128 535.529 c 0,0,0
 208.707 516.133 208.707 516.133 223.238 490.971 c 128,-1,10
 237.771 465.81 237.771 465.81 282.05 448.864 c 2,11,-1
 358.103 420.869 l 2,12,13
 386.445 410.065 386.445 410.065 411.873 391.673 c 128,-1,14
 437.301 373.281 437.301 373.281 457.18 344.538 c 128,-1,15
 477.058 315.795 477.058 315.795 485.673 282.549 c 128,-1,16
 494.289 249.304 494.289 249.304 487.014 208.041 c 0,0,0
 486.485 205.048 486.485 205.048 481.619 180.839 c 128,-1,17
 476.753 156.631 476.753 156.631 448.139 111.676 c 0,18,19
 361.315 -24.7246 361.315 -24.7246 185.279 -24.7246 c 0,0,0
 146.073 -24.7246 146.073 -24.7246 115.655 -19.748 c 0,20,21
 83.2197 -14.4414 83.2197 -14.4414 53.623 -4.57617 c 128,-1,22
 24.0273 5.28906 24.0273 5.28906 13.1455 10.665 c 128,-1,23
 2.26465 16.042 2.26465 16.042 -29.0439 34.3242 c 2,24,-1
 -40.8193 41.2002 l 1,25,-1
 8.67969 177.978 l 1,26,-1
 30.1426 167.146 l 2,25,26
 102.022 130.872 102.022 130.872 154.873 116.339 c 0,27,28
 185.196 108 185.196 108 214.422 108 c 128,-1,29
 243.646 108 243.646 108 275.643 122.5 c 128,-1,30
 307.638 137 307.638 137 329.228 162.908 c 0,31,32
 347.07 184.32 347.07 184.32 351.107 207.218 c 0,0,0
 353.89 222.997 353.89 222.997 346.372 249.205 c 128,-1,33
 338.854 275.412 338.854 275.412 294.961 293.296 c 0,34,35
 280.827 299.055 280.827 299.055 255.947 310.454 c 0,36,37
 231.069 321.853 231.069 321.853 221.51 324.942 c 0,36,37
 157.586 345.604 157.586 345.604 120.978 382.928 c 128,-1,38
 84.3711 420.251 84.3711 420.251 77.0898 458.417 c 128,-1,39
 69.8096 496.583 69.8096 496.583 75.7178 530.089 c 0,0,0
 77.9512 542.754 77.9512 542.754 87.1084 572.557 c 128,-1,40
 96.2666 602.36 96.2666 602.36 128.701 639.949 c 128,-1,41
 161.137 677.537 161.137 677.537 212.231 701.269 c 128,-1,42
 263.327 725 263.327 725 321.099 725 c 0,0,1
 383.527 725 383.527 725 421.544 715.2 c 128,-1,2
EndSplineSet
EndChar

StartChar: T
Encoding: 84 84 55
Width: 490
GlyphClass: 2
Flags: W
LayerCount: 2
Fore
SplineSet
60.0068 706 m 1,0,-1
 558.007 706 l 1,1,-1
 536.867 586.109 l 1,2,-1
 354.56 585.109 l 1,0,0
 243.861 -20 l 1,1,-1
 111.993 -20 l 1,2,-1
 115.705 1.0498 l 1,6,-1
 221.592 585.109 l 1,0,0
 38.8662 586.109 l 1,1,-1
 60.0068 706 l 1,0,-1
EndSplineSet
EndChar

StartChar: U
Encoding: 85 85 56
Width: 592
GlyphClass: 2
Flags: W
LayerCount: 2
Fore
SplineSet
153.31 266.048 m 2,0,1
 146.602 226.942 146.602 226.942 152.245 195.727 c 0,2,3
 157.851 164.728 157.851 164.728 172.171 146.302 c 128,-1,4
 186.601 127.734 186.601 127.734 207.641 117.847 c 128,-1,5
 228.594 108 228.594 108 251.942 108 c 128,-1,6
 275.125 108 275.125 108 299.494 118.219 c 0,7,8
 324.408 128.667 324.408 128.667 346.095 147.475 c 0,9,10
 367.348 165.906 367.348 165.906 384.422 197.377 c 0,11,12
 401.993 229.767 401.993 229.767 410.092 270.454 c 2,13,-1
 419.4 317.217 l 1,14,-1
 420.071 316.401 l 1,15,-1
 487.131 702 l 1,16,-1
 617.989 702 l 1,17,-1
 545.167 265.25 l 2,18,19
 544.351 260.344 544.351 260.344 544.135 259.119 c 0,20,21
 532.605 193.738 532.605 193.738 501.771 140.948 c 0,22,23
 469.25 85.2715 469.25 85.2715 425.329 50.7305 c 0,24,25
 381.933 16.6025 381.933 16.6025 330.631 -1.25195 c 0,26,27
 282.347 -18.0576 282.347 -18.0576 235.022 -18.0576 c 0,28,29
 232.156 -18.0576 232.156 -18.0576 229.296 -17.9951 c 0,30,31
 179.378 -16.918 179.378 -16.918 135.345 1.91602 c 128,-1,32
 91.209 20.7939 91.209 20.7939 60.4736 54.8291 c 0,33,34
 29.165 89.499 29.165 89.499 17.7598 144.857 c 0,35,36
 7.51855 194.562 7.51855 194.562 17.7764 252.737 c 0,37,38
 18.7812 258.438 18.7812 258.438 20.0039 264.28 c 2,39,-1
 95.1875 702.572 l 1,40,-1
 228.688 705.433 l 1,41,-1
 153.31 266.048 l 2,0,1
EndSplineSet
EndChar

StartChar: V
Encoding: 86 86 57
Width: 675
GlyphClass: 2
Flags: W
LayerCount: 2
Fore
SplineSet
448.721 437.141 m 1,0,-1
 616.481 713 l 1,1,-1
 754.35 713 l 1,2,-1
 258.622 -88.1201 l 1,3,-1
 230.964 31.3232 l 1,4,-1
 62.4385 713 l 1,5,-1
 199.823 713 l 1,6,-1
 269.358 436.738 l 1,7,-1
 317.677 231.103 l 1,0,0
 448.721 437.141 l 1,0,-1
EndSplineSet
EndChar

StartChar: W
Encoding: 87 87 58
Width: 865
GlyphClass: 2
Flags: W
LayerCount: 2
Fore
SplineSet
436.589 318.132 m 1,0,0
 198.251 -76.8359 l 1,1,-1
 68.4971 712 l 1,2,-1
 198.742 712 l 1,3,-1
 269.882 282.435 l 1,0,0
 443.631 567.85 l 1,5,-1
 492.771 650.108 l 1,6,-1
 512.267 566.762 l 1,7,-1
 584.673 283.596 l 1,0,0
 806.378 713.165 l 1,1,-1
 935.214 711.682 l 1,2,-1
 528.201 -76.0449 l 1,3,-1
 436.589 318.132 l 1,0,0
EndSplineSet
EndChar

StartChar: X
Encoding: 88 88 59
Width: 695
GlyphClass: 2
Flags: W
LayerCount: 2
Fore
SplineSet
35.4863 104.315 m 1,0,-1
 275.095 389.697 l 1,1,-1
 186.712 558.471 l 1,2,-1
 101.427 718 l 1,3,-1
 271.571 718 l 1,4,-1
 343.57 581.319 l 1,5,-1
 377.757 512.107 l 1,6,-1
 445.53 593.107 l 1,7,-1
 550.121 715.9 l 1,8,-1
 704.504 717.354 l 1,9,-1
 602.871 596 l 1,10,-1
 603.756 596 l 1,11,-1
 436.245 395.095 l 1,12,-1
 583.521 96.0723 l 1,13,-1
 583.312 94.8857 l 1,14,-1
 637.727 -21.3555 l 1,15,-1
 486.406 -19.8984 l 1,16,-1
 439.922 72.6553 l 1,17,-1
 334.454 274.396 l 1,18,-1
 174.017 82.3389 l 1,19,-1
 94.3574 -20 l 1,20,-1
 -74.6631 -20 l 1,21,-1
 35.4863 104.315 l 1,0,-1
EndSplineSet
EndChar

StartChar: Y
Encoding: 89 89 60
Width: 604
GlyphClass: 2
Flags: W
LayerCount: 2
Fore
SplineSet
43.3311 712 m 1,0,-1
 197.313 712 l 1,1,-1
 322.984 454.427 l 1,2,-1
 535.73 712 l 1,3,-1
 689.554 712 l 1,4,-1
 370.886 328.043 l 1,5,-1
 310.144 -16.4424 l 1,6,-1
 162.972 -20.5869 l 1,7,-1
 231.361 325.627 l 1,8,-1
 43.3311 712 l 1,0,-1
EndSplineSet
EndChar

StartChar: Z
Encoding: 90 90 61
Width: 795
GlyphClass: 2
Flags: W
LayerCount: 2
Fore
SplineSet
212.667 702 m 1,0,-1
 782.007 702 l 1,1,-1
 684.153 581.145 l 1,2,-1
 292.953 113 l 1,0,0
 654.81 113 l 1,1,-1
 631.724 -17.9277 l 1,2,-1
 16.876 -20.1426 l 1,3,-1
 45.8076 11.7891 l 1,6,7
 74.7891 43.6143 l 130,-1,8
 103.771 75.4385 103.771 75.4385 127.485 103.958 c 2,9,-1
 520.625 577 l 1,0,0
 190.626 577 l 1,1,-1
 212.667 702 l 1,0,-1
EndSplineSet
EndChar

StartChar: bracketleft
Encoding: 91 91 62
Width: 348
GlyphClass: 2
Flags: W
LayerCount: 2
Fore
SplineSet
-23.6318 -20 m 1,0,-1
 107.632 724.43 l 1,1,-1
 221.416 721.998 l 1,2,-1
 369.419 722 l 1,3,-1
 344.537 589 l 1,4,-1
 217.752 589 l 1,0,0
 133.644 112 l 1,0,0
 263.862 112 l 1,1,-1
 239.152 -20 l 1,2,-1
 -23.6318 -20 l 1,0,-1
EndSplineSet
EndChar

StartChar: backslash
Encoding: 92 92 63
Width: 492
GlyphClass: 2
Flags: W
LayerCount: 2
Fore
SplineSet
246.55 -20 m 1,0,-1
 95.4473 724.588 l 1,1,-1
 237.911 721.729 l 1,2,-1
 396.63 -20 l 1,3,-1
 246.55 -20 l 1,0,-1
EndSplineSet
EndChar

StartChar: bracketright
Encoding: 93 93 64
Width: 344
GlyphClass: 2
Flags: W
LayerCount: 2
Fore
SplineSet
238.368 -20 m 1,0,-1
 -24.416 -20 l 1,1,-1
 -2.5752 112 l 1,2,-1
 127.644 112 l 1,0,0
 211.752 589 l 1,0,0
 84.9658 589 l 1,1,-1
 106.987 722 l 1,2,-1
 254.989 721.998 l 1,8,-1
 369.632 724.43 l 1,9,-1
 238.368 -20 l 1,0,-1
EndSplineSet
EndChar

StartChar: asciicircum
Encoding: 94 94 65
Width: 605
GlyphClass: 2
Flags: W
LayerCount: 2
Fore
SplineSet
463.165 510 m 1,0,-1
 327.745 510 l 1,1,-1
 295.696 573.695 l 1,2,-1
 236.385 510.107 l 1,3,-1
 94.0312 508.562 l 1,4,-1
 332.605 768.508 l 1,5,-1
 463.165 510 l 1,0,-1
EndSplineSet
EndChar

StartChar: underscore
Encoding: 95 95 66
Width: 559
GlyphClass: 2
Flags: W
LayerCount: 2
Fore
SplineSet
541.756 20 m 1,0,-1
 520.244 -102 l 1,1,-1
 17.2441 -102 l 1,2,-1
 38.7559 20 l 1,3,-1
 541.756 20 l 1,0,-1
EndSplineSet
EndChar

StartChar: grave
Encoding: 96 96 67
Width: 1000
GlyphClass: 2
Flags: W
LayerCount: 2
Fore
SplineSet
482.218 1014.89 m 1,0,-1
 620.106 837.216 l 1,1,-1
 530.018 764.572 l 1,2,-1
 373.827 909.211 l 1,3,-1
 482.218 1014.89 l 1,0,-1
EndSplineSet
EndChar

StartChar: a
Encoding: 97 97 68
Width: 509
GlyphClass: 2
Flags: W
LayerCount: 2
Fore
SplineSet
51.7314 315.779 m 0,0,1
 81.3096 365.195 81.3096 365.195 122.278 395.286 c 0,2,3
 162.272 424.66 162.272 424.66 208.432 439.877 c 0,4,5
 247.871 452.879 247.871 452.879 287.01 452.879 c 0,6,7
 293.979 452.879 293.979 452.879 300.934 452.466 c 0,8,9
 345.832 449.797 345.832 449.797 383.681 431.258 c 2,10,-1
 388.116 428.977 l 1,11,-1
 391.294 447 l 1,12,-1
 524.342 447 l 1,13,-1
 440.902 -20 l 1,14,-1
 309.949 -20 l 1,15,-1
 312.88 -3.38184 l 1,16,17
 282.978 -16.4824 282.978 -16.4824 250.869 -22.6201 c 0,18,19
 226.575 -27.2627 226.575 -27.2627 203.4 -27.2627 c 0,20,21
 177.583 -27.2627 177.583 -27.2627 153.252 -21.5029 c 0,22,23
 107.596 -10.6934 107.596 -10.6934 72.2246 15.8242 c 0,24,25
 35.7109 43.1982 35.7109 43.1982 18.6621 93.3223 c 0,26,27
 1.41895 144.014 1.41895 144.014 11.9473 206.83 c 0,28,29
 21.8369 265.835 21.8369 265.835 51.7314 315.779 c 0,0,1
138.505 210 m 0,30,31
 131.604 170.866 131.604 170.866 144.726 142.677 c 128,-1,32
 157.848 114.487 157.848 114.487 183.593 104.484 c 128,-1,33
 209.339 94.4805 209.339 94.4805 238.878 94.4805 c 1,34,35
 238.574 94.4805 238.574 94.4805 239.726 94.4854 c 128,-1,36
 240.876 94.4912 240.876 94.4912 255.055 94.6963 c 128,-1,37
 269.232 94.9014 269.232 94.9014 296.206 113.31 c 128,-1,38
 323.178 131.718 323.178 131.718 336.758 162.186 c 0,39,40
 340.921 171.525 340.921 171.525 345.469 197.32 c 0,41,42
 346.674 204.153 346.674 204.153 350.502 229.397 c 128,-1,43
 354.329 254.641 354.329 254.641 354.044 261.948 c 0,44,45
 353.029 287.874 353.029 287.874 337.332 306.408 c 128,-1,46
 321.634 324.942 321.634 324.942 304.793 329.431 c 128,-1,47
 287.95 333.92 287.95 333.92 274.429 333.92 c 0,48,49
 263.684 333.92 263.684 333.92 244.985 330.545 c 128,-1,50
 226.286 327.17 226.286 327.17 203.484 312.438 c 128,-1,51
 180.684 297.705 180.684 297.705 162.616 270.992 c 128,-1,52
 144.549 244.278 144.549 244.278 138.505 210 c 0,30,31
EndSplineSet
EndChar

StartChar: b
Encoding: 98 98 69
Width: 511
GlyphClass: 2
Flags: W
LayerCount: 2
Fore
SplineSet
418.419 93.3223 m 0,0,1
 383.693 43.1982 383.693 43.1982 337.526 15.8242 c 0,2,3
 292.804 -10.6934 292.804 -10.6934 243.336 -21.5029 c 0,4,5
 216.973 -27.2627 216.973 -27.2627 191.156 -27.2627 c 0,6,7
 167.98 -27.2627 167.98 -27.2627 145.324 -22.6201 c 0,8,9
 115.381 -16.4824 115.381 -16.4824 90.0977 -3.38184 c 1,10,-1
 87.167 -20 l 1,11,-1
 -43.8057 -20 l 1,12,-1
 94.0869 768 l 1,13,-1
 227.113 768 l 1,14,-1
 166.582 424.712 l 1,15,16
 184.764 434.334 184.764 434.334 200.006 439.045 c 0,17,18
 235.331 449.961 235.331 449.961 270.826 450.498 c 0,19,20
 272.923 450.529 272.923 450.529 275.012 450.529 c 0,21,22
 308.488 450.529 308.488 450.529 339.121 442.385 c 0,23,24
 372.343 433.552 372.343 433.552 399.575 413.188 c 0,25,26
 426.688 392.912 426.688 392.912 444.149 364.383 c 0,27,28
 461.804 335.542 461.804 335.542 467.688 294.596 c 0,29,30
 473.701 252.732 473.701 252.732 465.163 206.83 c 0,31,32
 453.452 143.889 453.452 143.889 418.419 93.3223 c 0,0,1
330.899 211 m 0,21,22
 337.832 250.321 337.832 250.321 325.109 279.152 c 128,-1,23
 312.386 307.982 312.386 307.982 288.192 318.75 c 128,-1,24
 263.999 329.519 263.999 329.519 235.776 329.519 c 0,0,0
 234.689 329.519 234.689 329.519 220.792 329.312 c 128,-1,25
 206.894 329.104 206.894 329.104 180.396 310.454 c 128,-1,26
 153.897 291.804 153.897 291.804 141.284 260.996 c 0,27,28
 138.653 254.569 138.653 254.569 133.643 229.757 c 128,-1,29
 128.631 204.944 128.631 204.944 127.478 198.4 c 0,0,0
 123.246 174.405 123.246 174.405 124.12 165.356 c 0,30,31
 127.081 134.671 127.081 134.671 146.657 117.285 c 128,-1,32
 166.233 99.8984 166.233 99.8984 179.491 99.7002 c 129,-1,33
 192.748 99.502 192.748 99.502 193.856 99.4912 c 0,34,35
 194.965 99.4805 194.965 99.4805 195.412 99.4805 c 0,0,0
 223.814 99.4805 223.814 99.4805 251.695 109.433 c 128,-1,34
 279.576 119.385 279.576 119.385 301.886 146.181 c 128,-1,35
 324.194 172.977 324.194 172.977 330.899 211 c 0,21,22
EndSplineSet
EndChar

StartChar: c
Encoding: 99 99 70
Width: 421
GlyphClass: 2
Flags: W
LayerCount: 2
Fore
SplineSet
418.901 421.546 m 2,0,-1
 436.076 411.328 l 1,1,-1
 436.71 408.882 l 1,2,-1
 438.979 406.787 l 1,3,-1
 451.414 395.578 l 1,4,-1
 354.561 277.08 l 1,5,-1
 341.757 301.531 l 2,6,7
 341.056 302.572 341.056 302.572 340.38 303.265 c 0,8,9
 335.617 308.135 335.617 308.135 323.312 313.431 c 0,10,11
 304.139 321.682 304.139 321.682 291.738 323.124 c 0,12,13
 286.259 323.762 286.259 323.762 278.569 323.762 c 0,14,15
 250.24 323.762 250.24 323.762 221.707 311.784 c 0,16,17
 188.63 297.899 188.63 297.899 166.7 267.446 c 0,18,19
 143.636 235.418 143.636 235.418 138.823 208.124 c 0,20,21
 136.836 196.854 136.836 196.854 137.646 185.851 c 0,22,23
 140.448 147.825 140.448 147.825 176.895 124.32 c 0,24,25
 197.55 111 197.55 111 225.313 109.975 c 0,26,27
 235.232 109.608 235.232 109.608 236.373 109.608 c 0,28,29
 269.389 109.608 269.389 109.608 300.936 124.821 c 0,30,31
 315.776 131.978 315.776 131.978 317.686 133.364 c 2,32,-1
 338.621 148.576 l 1,33,-1
 383.759 35.8984 l 1,34,-1
 369.702 25.0693 l 2,35,36
 311.157 -20.0234 311.157 -20.0234 211.938 -20.0234 c 0,37,38
 211.19 -20.0234 211.19 -20.0234 209.642 -20.0117 c 128,-1,39
 208.093 -20 208.093 -20 207.342 -19.999 c 0,40,41
 128.695 -19.9814 128.695 -19.9814 88.8203 6.89941 c 0,42,43
 9.37305 60.4561 9.37305 60.4561 0.328125 148.116 c 0,44,45
 -2.67188 177.199 -2.67188 177.199 2.52148 206.653 c 0,46,47
 13.0938 266.615 13.0938 266.615 57.1006 326.716 c 0,48,49
 105.841 393.282 105.841 393.282 179.979 425.587 c 0,50,51
 239.088 451.343 239.088 451.343 298.33 451.343 c 0,52,53
 313.348 451.343 313.348 451.343 326.414 449.888 c 0,54,55
 383.137 443.573 383.137 443.573 418.901 421.546 c 2,0,-1
EndSplineSet
EndChar

StartChar: d
Encoding: 100 100 71
Width: 515
GlyphClass: 2
Flags: W
LayerCount: 2
Fore
SplineSet
-4.84375 212.971 m 0,0,1
 4.17871 264.14 4.17871 264.14 28.1738 307.547 c 0,2,3
 54.0039 354.273 54.0039 354.273 89.3945 383.406 c 0,4,5
 123.599 411.562 123.599 411.562 165.217 430.438 c 0,6,7
 207.938 449.814 207.938 449.814 249.971 451.484 c 0,8,9
 257.038 451.765 257.038 451.765 264.041 451.765 c 0,10,11
 297.742 451.765 297.742 451.765 328.26 445.588 c 0,12,13
 348.453 441.5 348.453 441.5 370.093 433.456 c 1,14,-1
 429.081 768 l 1,15,-1
 562.107 768 l 1,16,-1
 422.109 -20 l 1,17,-1
 292.656 -20 l 1,18,-1
 295.182 -3.15527 l 1,19,20
 291.604 -5.10449 291.604 -5.10449 288.447 -6.37012 c 0,21,22
 245.075 -23.7617 245.075 -23.7617 199.184 -26.4648 c 0,23,24
 191.738 -26.9033 191.738 -26.9033 184.447 -26.9033 c 0,25,26
 146.383 -26.9033 146.383 -26.9033 112.698 -14.9736 c 0,27,28
 72.9805 -0.908203 72.9805 -0.908203 42.5791 26.1475 c 0,29,30
 11.0654 54.1924 11.0654 54.1924 -2.11328 101.74 c 0,31,32
 -15.0713 148.493 -15.0713 148.493 -5.90137 206.619 c 0,33,34
 -5.37109 209.981 -5.37109 209.981 -4.84375 212.971 c 0,0,1
128.867 211 m 0,22,23
 122.184 173.095 122.184 173.095 135.481 146.261 c 128,-1,24
 148.778 119.428 148.778 119.428 173.201 109.454 c 128,-1,25
 197.624 99.4805 197.624 99.4805 226.026 99.4805 c 1,0,0
 225.732 99.4805 225.732 99.4805 226.844 99.4854 c 0,1,2
 227.952 99.4912 227.952 99.4912 241.652 99.6943 c 128,-1,26
 255.353 99.8984 255.353 99.8984 281.353 117.482 c 128,-1,27
 307.352 135.065 307.352 135.065 320.272 164.704 c 0,28,29
 323.636 172.42 323.636 172.42 328.916 202.367 c 0,0,0
 329.786 207.299 329.786 207.299 333.14 227.805 c 128,-1,30
 336.492 248.312 336.492 248.312 337.045 260.804 c 1,0,0
 333.327 292.774 333.327 292.774 313.925 310.94 c 128,-1,33
 294.521 329.106 294.521 329.106 280.957 329.312 c 128,-1,34
 267.394 329.519 267.394 329.519 266.322 329.519 c 0,0,0
 238.488 329.519 238.488 329.519 210.014 318.725 c 128,-1,35
 181.541 307.931 181.541 307.931 158.671 279.126 c 128,-1,36
 135.801 250.321 135.801 250.321 128.867 211 c 0,22,23
EndSplineSet
EndChar

StartChar: e
Encoding: 101 101 72
Width: 500
GlyphClass: 2
Flags: W
LayerCount: 2
Fore
SplineSet
340.801 1.91992 m 0,0,1
 304.285 -13.8789 304.285 -13.8789 258.733 -18.8838 c 0,2,3
 239.471 -21 239.471 -21 216.211 -21 c 0,4,5
 184.698 -21 184.698 -21 162.401 -16.6768 c 0,6,7
 104.09 -5.37012 104.09 -5.37012 66.1221 30.6367 c 128,-1,8
 28.1553 66.6445 28.1553 66.6445 16.8672 113.232 c 128,-1,9
 5.58008 159.82 5.58008 159.82 14.667 211.355 c 0,10,11
 14.918 212.777 14.918 212.777 19.9922 239.976 c 128,-1,12
 25.0654 267.174 25.0654 267.174 53.6826 314.741 c 128,-1,13
 82.2988 362.308 82.2988 362.308 133.432 399.219 c 128,-1,14
 184.562 436.13 184.562 436.13 245.026 447.632 c 0,15,16
 273.246 453 273.246 453 305.789 453 c 0,17,18
 336.844 453 336.844 453 358.699 448.658 c 0,19,20
 422.55 435.973 422.55 435.973 455.535 391.166 c 128,-1,21
 488.521 346.359 488.521 346.359 489.423 304.785 c 128,-1,22
 490.324 263.211 490.324 263.211 485.284 234.625 c 128,-1,23
 480.277 206.229 480.277 206.229 469.721 176.484 c 2,24,-1
 463.889 160.052 l 1,25,-1
 151.224 159.09 l 1,26,27
 157.367 141.854 157.367 141.854 172.975 127.909 c 128,-1,28
 188.581 113.963 188.581 113.963 245.388 107.83 c 0,29,30
 254.403 106.857 254.403 106.857 257.612 106.857 c 0,31,32
 262.647 106.857 262.647 106.857 272.126 107.759 c 128,-1,33
 281.606 108.661 281.606 108.661 305.942 117.015 c 128,-1,34
 330.277 125.368 330.277 125.368 348.71 140.331 c 2,35,-1
 349.657 141.143 l 1,36,-1
 362.646 152.184 l 1,37,-1
 450.369 93.3242 l 1,38,-1
 446.986 74.1377 l 1,39,-1
 441.817 68.7207 l 2,40,41
 404.29 29.3887 404.29 29.3887 340.801 1.91992 c 0,0,1
359.723 271.903 m 1,42,43
 356.839 336 356.839 336 284.159 336 c 0,44,45
 236.091 336 236.091 336 208.574 313.788 c 128,-1,46
 181.057 291.576 181.057 291.576 169.298 271.107 c 1,47,-1
 359.723 271.903 l 1,42,43
EndSplineSet
EndChar

StartChar: f
Encoding: 102 102 73
Width: 359
GlyphClass: 2
Flags: W
LayerCount: 2
Fore
SplineSet
61.8818 326 m 1,0,0
 11.8818 326 l 1,1,-1
 32.3359 442 l 1,2,-1
 86.7373 442 l 1,0,0
 98.0117 493.882 98.0117 493.882 121.062 539.435 c 128,-1,6
 144.111 584.988 144.111 584.988 176.452 611.521 c 128,-1,7
 208.792 638.053 208.792 638.053 239.981 650.026 c 128,-1,8
 271.171 662 271.171 662 301.128 662 c 0,9,10
 320.773 662 320.773 662 335.004 657.979 c 128,-1,11
 349.236 653.955 349.236 653.955 361.188 648.49 c 128,-1,12
 373.141 643.025 373.141 643.025 379.347 641.403 c 2,13,-1
 405.15 634.654 l 1,14,-1
 312.132 520.708 l 1,15,-1
 286.159 535.874 l 1,0,0
 261.233 534.511 261.233 534.511 246.688 515.435 c 128,-1,17
 232.142 496.359 232.142 496.359 220.668 442 c 1,0,0
 323.336 442 l 1,1,-1
 302.529 324 l 1,2,-1
 196.588 324 l 1,0,0
 136.932 -20 l 1,1,-1
 0.87207 -20 l 1,2,-1
 61.8818 326 l 1,0,0
EndSplineSet
EndChar

StartChar: g
Encoding: 103 103 74
Width: 476
GlyphClass: 2
Flags: W
LayerCount: 2
Fore
SplineSet
157 224 m 0,0,1
 151.199 191.097 151.199 191.097 163.86 165.559 c 128,-1,2
 176.522 140.021 176.522 140.021 199.99 129.01 c 128,-1,3
 223.457 118 223.457 118 249.285 118 c 128,-1,4
 275.111 118 275.111 118 298.378 134.791 c 128,-1,5
 321.645 151.582 321.645 151.582 334.511 181.46 c 1,6,7
 336.468 192.035 336.468 192.035 340.306 209.839 c 128,-1,8
 344.143 227.643 344.143 227.643 345.727 236.625 c 0,9,10
 346.772 242.559 346.772 242.559 347.569 249.195 c 0,11,12
 347.761 250.788 347.761 250.788 347.825 251.17 c 0,13,14
 352.53 278.737 352.53 278.737 342.912 296.513 c 128,-1,15
 333.295 314.289 333.295 314.289 316.704 320.667 c 128,-1,16
 300.114 327.044 300.114 327.044 281.283 327.044 c 0,17,18
 275.929 327.044 275.929 327.044 260.237 325.733 c 128,-1,19
 244.547 324.423 244.547 324.423 221.788 313.202 c 128,-1,20
 199.029 301.98 199.029 301.98 180.784 278.692 c 128,-1,21
 162.538 255.404 162.538 255.404 157 224 c 0,0,1
315.268 -180.319 m 0,22,23
 257.723 -216.813 257.723 -216.813 183.431 -218.495 c 0,24,25
 179.833 -218.576 179.833 -218.576 176.286 -218.576 c 0,26,27
 109.7 -218.576 109.7 -218.576 60.6143 -189.625 c 2,28,-1
 27.5527 -170.125 l 2,29,30
 19.7305 -165.472 19.7305 -165.472 9.81738 -154.866 c 2,31,-1
 0.237305 -144.618 l 1,32,-1
 70.3828 -41.9727 l 1,33,-1
 139.256 -81.1738 l 2,34,35
 157.765 -91.3223 157.765 -91.3223 182.473 -93.0479 c 0,36,37
 187.522 -93.4004 187.522 -93.4004 192.534 -93.4004 c 0,38,39
 212.381 -93.4004 212.381 -93.4004 231.732 -87.8535 c 0,40,41
 255.085 -81.1602 255.085 -81.1602 276.729 -64.2012 c 0,42,43
 296.054 -49.0605 296.054 -49.0605 306.564 -27.4658 c 1,44,-1
 310.481 -0.164062 l 1,45,-1
 313.996 18.0879 l 1,46,47
 300.01 11.0146 300.01 11.0146 284.483 6.05566 c 0,48,49
 249.608 -5.08301 249.608 -5.08301 214.423 -5.08301 c 0,50,51
 211.238 -5.08301 211.238 -5.08301 208.052 -4.99219 c 0,52,53
 169.691 -3.89062 169.691 -3.89062 134.091 11.4307 c 0,54,55
 98.7939 26.6201 98.7939 26.6201 72.8467 52.1807 c 0,56,57
 46.0303 78.5957 46.0303 78.5957 34.1709 121.224 c 0,58,59
 22.0654 164.732 22.0654 164.732 30.2012 213.782 c 0,60,61
 38.9404 266.479 38.9404 266.479 66.2881 313.928 c 0,62,63
 93.2783 360.76 93.2783 360.76 131.473 390.379 c 0,64,65
 168.621 419.188 168.621 419.188 211.19 435.499 c 0,66,67
 251.808 451.062 251.808 451.062 293.49 451.062 c 0,68,69
 296.253 451.062 296.253 451.062 299.019 450.994 c 0,70,71
 342.623 449.912 342.623 449.912 380.708 431.258 c 2,72,-1
 384.168 429.499 l 1,73,-1
 386.815 447 l 1,74,-1
 521.417 447 l 1,75,-1
 441.553 5.95215 l 2,76,77
 419.831 -114.006 419.831 -114.006 315.268 -180.319 c 0,22,23
EndSplineSet
EndChar

StartChar: h
Encoding: 104 104 75
Width: 487
GlyphClass: 2
Flags: W
LayerCount: 2
Fore
SplineSet
431.403 229 m 2,0,-1
 403.632 71.5 l 2,1,2
 401.907 61.7217 401.907 61.7217 398.177 43.4443 c 0,3,4
 394.561 25.7236 394.561 25.7236 389.848 -1 c 2,5,-1
 386.321 -21 l 1,6,-1
 252.321 -21 l 1,7,-1
 255.848 -1 l 2,8,9
 261.519 31.1562 261.519 31.1562 267.69 63.3125 c 0,10,11
 273.803 95.1562 273.803 95.1562 280.212 131.5 c 2,12,-1
 298.461 235 l 2,13,14
 304.409 268.732 304.409 268.732 295.868 290.648 c 0,15,16
 287.711 311.581 287.711 311.581 272.381 319.376 c 0,17,18
 258.727 326.32 258.727 326.32 241.441 326.32 c 0,19,20
 238.057 326.32 238.057 326.32 234.522 326.057 c 0,21,22
 212.456 324.413 212.456 324.413 192.066 313.351 c 0,23,24
 171.927 302.423 171.927 302.423 155.847 281.71 c 0,25,26
 140.127 261.46 140.127 261.46 135.461 235 c 2,27,-1
 90.3213 -21 l 1,28,-1
 -39.6514 -21 l 1,29,-1
 97.1396 760.75 l 1,30,-1
 231.679 769.332 l 1,31,-1
 171.072 425.615 l 1,32,33
 187.796 435.07 187.796 435.07 203.42 440.015 c 0,34,35
 241.293 452 241.293 452 277.725 452 c 0,36,37
 375.544 452 375.544 452 412.982 389.229 c 0,38,39
 449.006 328.827 449.006 328.827 431.403 229 c 2,0,-1
EndSplineSet
EndChar

StartChar: i
Encoding: 105 105 76
Width: 207
GlyphClass: 2
Flags: W
LayerCount: 2
Fore
SplineSet
106.609 596.146 m 128,-1,2
 132.72 614.817 132.72 614.817 146.446 615.168 c 128,-1,3
 160.172 615.519 160.172 615.519 161.146 615.519 c 0,0,0
 186.749 615.519 186.749 615.519 206.319 597.611 c 128,-1,4
 225.891 579.704 225.891 579.704 219.948 546 c 0,5,6
 213.944 511.95 213.944 511.95 187.691 491.975 c 128,-1,7
 161.438 472 161.438 472 134.499 472 c 128,-1,8
 107.558 472 107.558 472 88.1445 491.37 c 128,-1,9
 68.7305 510.74 68.7305 510.74 74.7715 545 c 0,0,1
 80.498 577.479 80.498 577.479 106.609 596.146 c 128,-1,2
66.458 453 m 1,2,-1
 198.55 453 l 1,3,-1
 114.794 -22 l 1,4,-1
 -15.1143 -22 l 1,5,-1
 66.458 453 l 1,2,-1
EndSplineSet
EndChar

StartChar: j
Encoding: 106 106 77
Width: 207
GlyphClass: 2
Flags: W
LayerCount: 2
Fore
SplineSet
115.425 596.146 m 128,-1,2
 141.536 614.817 141.536 614.817 155.262 615.168 c 128,-1,3
 168.988 615.519 168.988 615.519 169.962 615.519 c 0,0,0
 195.565 615.519 195.565 615.519 215.136 597.611 c 128,-1,4
 234.707 579.704 234.707 579.704 228.765 546 c 0,5,6
 222.76 511.95 222.76 511.95 196.508 491.975 c 128,-1,7
 170.255 472 170.255 472 143.315 472 c 128,-1,8
 116.374 472 116.374 472 96.9609 491.37 c 128,-1,9
 77.5469 510.74 77.5469 510.74 83.5879 545 c 0,0,1
 89.3145 577.479 89.3145 577.479 115.425 596.146 c 128,-1,2
74.8369 450 m 1,2,-1
 206.875 450 l 1,3,-1
 104.94 -122 l 1,4,-1
 -26.0225 -122 l 1,5,-1
 74.8369 450 l 1,2,-1
EndSplineSet
EndChar

StartChar: k
Encoding: 107 107 78
Width: 490
GlyphClass: 2
Flags: W
LayerCount: 2
Fore
SplineSet
146.739 286.379 m 1,0,0
 333.412 445.07 l 1,1,-1
 507.075 443.597 l 1,2,-1
 253.393 227.005 l 1,0,0
 455.425 -19.5967 l 1,1,-1
 281.219 -21.0703 l 1,2,-1
 125.721 167.716 l 1,0,0
 92.6211 -20 l 1,1,-1
 -40.4053 -20 l 1,2,-1
 99.5938 768 l 1,3,-1
 232.606 768 l 1,4,-1
 146.739 286.379 l 1,0,0
EndSplineSet
EndChar

StartChar: l
Encoding: 108 108 79
Width: 210
GlyphClass: 2
Flags: W
LayerCount: 2
Fore
SplineSet
144.019 237.981 m 1,0,-1
 98.5293 -20 l 1,1,-1
 -34.4707 -20 l 1,2,-1
 110.471 802 l 1,3,-1
 244.508 802 l 1,4,-1
 144.019 237.981 l 1,0,-1
EndSplineSet
EndChar

StartChar: m
Encoding: 109 109 80
Width: 746
GlyphClass: 2
Flags: W
LayerCount: 2
Fore
SplineSet
360.158 442.096 m 0,0,1
 384.292 431.826 384.292 431.826 405.66 408.424 c 0,2,3
 407.091 406.857 407.091 406.857 409.997 405.264 c 0,4,5
 411.587 404.392 411.587 404.392 412.794 404.157 c 0,6,7
 413.533 404.014 413.533 404.014 414.643 403.725 c 0,8,9
 415.752 403.436 415.752 403.436 416.124 403.403 c 1,10,11
 416.297 403.444 416.297 403.444 423.439 408.102 c 0,12,13
 428.817 411.607 428.817 411.607 436.332 415.904 c 0,14,15
 438.966 417.41 438.966 417.41 440.04 418.058 c 0,16,17
 465.389 433.341 465.389 433.341 497.47 442.947 c 0,18,19
 521.286 450.079 521.286 450.079 529.275 450.475 c 0,20,21
 533.142 450.667 533.142 450.667 537.309 450.667 c 0,22,23
 540.05 450.667 540.05 450.667 545.443 450.329 c 0,24,25
 550.837 449.992 550.837 449.992 553.953 449.971 c 0,26,27
 650.49 449.312 650.49 449.312 688.152 385.134 c 0,28,29
 724.755 322.76 724.755 322.76 707.165 223 c 2,30,-1
 680.099 69.5 l 2,31,32
 678.545 60.6895 678.545 60.6895 675.158 44.375 c 0,33,34
 671.902 28.6865 671.902 28.6865 667.021 1 c 2,35,-1
 663.53 -18.791 l 1,36,-1
 528.28 -20.2119 l 1,37,-1
 542.512 60.5 l 2,38,39
 547.562 89.1475 547.562 89.1475 554.086 123.294 c 0,40,41
 560.554 157.15 560.554 157.15 572.518 225 c 0,42,43
 578.398 258.355 578.398 258.355 571.06 281.688 c 0,44,45
 564.021 304.064 564.021 304.064 550.529 313.54 c 0,46,47
 537.062 323 537.062 323 519.298 323 c 0,48,49
 501.138 323 501.138 323 484.209 314.162 c 0,50,51
 467.607 305.495 467.607 305.495 453.283 285.497 c 0,52,53
 438.561 264.945 438.561 264.945 433.457 236 c 0,54,55
 432.393 229.961 432.393 229.961 390.828 -0.0869141 c 2,56,-1
 387.23 -20 l 1,57,-1
 260.317 -20 l 1,58,-1
 275.129 64 l 2,59,60
 280.62 95.1426 280.62 95.1426 287.406 130.781 c 0,61,62
 294.139 166.141 294.139 166.141 305.928 233 c 0,63,64
 311.959 267.202 311.959 267.202 304.231 290.427 c 0,65,66
 296.878 312.523 296.878 312.523 283.17 321.057 c 0,67,68
 269.575 329.521 269.575 329.521 251.941 329.521 c 0,69,70
 251.157 329.521 251.157 329.521 250.361 329.504 c 0,71,72
 231.295 329.108 231.295 329.108 213.563 320.057 c 0,73,74
 196.345 311.268 196.345 311.268 181.622 291.577 c 0,75,76
 166.75 271.688 166.75 271.688 162.044 245 c 2,77,-1
 115.317 -20 l 1,78,-1
 -14.6357 -20 l 1,79,-1
 66.9678 449 l 1,80,-1
 200.015 449 l 1,81,-1
 196.84 430.995 l 1,82,83
 210.243 437.459 210.243 437.459 235.502 444.656 c 0,84,85
 264.784 453 264.784 453 295.72 453 c 0,86,87
 334.534 453 334.534 453 360.158 442.096 c 0,0,1
EndSplineSet
EndChar

StartChar: n
Encoding: 110 110 81
Width: 426
GlyphClass: 2
Flags: W
LayerCount: 2
Fore
SplineSet
426.726 229.956 m 2,0,-1
 381.564 -20 l 1,1,-1
 247.651 -20 l 1,2,-1
 262.728 65.5 l 2,3,4
 268.485 98.1533 268.485 98.1533 275.532 135.271 c 0,5,6
 282.529 172.134 282.529 172.134 294.32 239 c 0,7,8
 300.337 273.123 300.337 273.123 292.579 295.794 c 0,9,10
 285.22 317.302 285.22 317.302 271.595 325.377 c 0,11,12
 259.272 332.68 259.272 332.68 243.548 332.68 c 0,13,14
 240.517 332.629 240.517 332.629 239.061 332.539 c 0,15,16
 219.676 331.341 219.676 331.341 201.063 321.314 c 0,17,18
 183.104 311.639 183.104 311.639 168.675 291.497 c 0,19,20
 153.952 270.944 153.952 270.944 149.216 244.082 c 2,21,-1
 104.816 -20 l 1,22,-1
 -25.3018 -20 l 1,23,-1
 56.3018 449 l 1,24,-1
 189.349 449 l 1,25,-1
 185.876 429.304 l 1,26,-1
 204.559 437.938 l 2,27,28
 228.867 449 228.867 449 289.349 449 c 0,29,30
 385.938 449 385.938 449 416.265 388.742 c 0,31,32
 444.745 332.153 444.745 332.153 426.726 229.956 c 2,0,-1
EndSplineSet
EndChar

StartChar: o
Encoding: 111 111 82
Width: 499
GlyphClass: 2
Flags: W
LayerCount: 2
Fore
SplineSet
270.041 342 m 0,0,1
 233.018 342 233.018 342 202.715 324.176 c 128,-1,2
 172.412 306.353 172.412 306.353 155.468 280.354 c 128,-1,3
 138.524 254.356 138.524 254.356 135.41 237.987 c 128,-1,4
 132.296 221.618 132.296 221.618 132.104 220.523 c 0,5,6
 126.763 190.237 126.763 190.237 133.876 164.403 c 128,-1,7
 140.987 138.568 140.987 138.568 164.499 121.284 c 128,-1,8
 188.01 104 188.01 104 225.075 104 c 0,9,10
 282.361 104 282.361 104 321.64 140.394 c 0,11,12
 348.039 164.855 348.039 164.855 356.539 189.198 c 128,-1,13
 365.038 213.54 365.038 213.54 367.337 226.576 c 0,14,15
 371.067 247.734 371.067 247.734 367.59 272.808 c 128,-1,16
 364.11 297.882 364.11 297.882 338.729 319.941 c 128,-1,17
 313.349 342 313.349 342 270.041 342 c 0,0,1
419.19 418.975 m 128,-1,19
 469.931 383.949 469.931 383.949 485.736 331.757 c 128,-1,20
 501.543 279.565 501.543 279.565 491.022 219.9 c 0,21,22
 490.795 218.611 490.795 218.611 485.021 187.425 c 128,-1,23
 479.245 156.238 479.245 156.238 443.558 103.067 c 128,-1,24
 407.871 49.8965 407.871 49.8965 343.826 14.9482 c 128,-1,25
 279.779 -20 279.779 -20 203.211 -20 c 0,26,27
 125.642 -20 125.642 -20 73.8516 14.9951 c 128,-1,28
 22.0605 49.9902 22.0605 49.9902 6.49707 102.234 c 128,-1,29
 -9.06641 154.478 -9.06641 154.478 1.21875 212.806 c 0,30,31
 1.66211 215.323 1.66211 215.323 7.83789 247.149 c 128,-1,32
 14.0127 278.976 14.0127 278.976 50.1348 331.574 c 128,-1,33
 86.2568 384.173 86.2568 384.173 150.238 419.086 c 128,-1,34
 214.221 454 214.221 454 290.789 454 c 0,35,18
 368.45 454 368.45 454 419.19 418.975 c 128,-1,19
EndSplineSet
EndChar

StartChar: p
Encoding: 112 112 83
Width: 507
GlyphClass: 2
Flags: W
LayerCount: 2
Fore
SplineSet
457.874 93.4775 m 0,0,1
 423.587 43.1904 423.587 43.1904 376.759 15.7568 c 0,2,3
 331.588 -10.707 331.588 -10.707 282.184 -21.5029 c 0,4,5
 255.82 -27.2627 255.82 -27.2627 230.004 -27.2627 c 0,6,7
 206.828 -27.2627 206.828 -27.2627 184.172 -22.6201 c 0,8,9
 154.485 -16.5352 154.485 -16.5352 129.758 -3.59961 c 1,10,-1
 90.4873 -221 l 1,11,-1
 -39.3945 -221 l 1,12,-1
 77.3271 447 l 1,13,-1
 210.359 447 l 1,14,-1
 207.299 429.638 l 1,15,16
 236.685 442.553 236.685 442.553 268.807 448.628 c 0,17,18
 292.188 453.05 292.188 453.05 314.523 453.05 c 0,19,20
 341.887 453.05 341.887 453.05 367.557 446.416 c 0,21,22
 413.533 434.532 413.533 434.532 449.104 406.436 c 0,23,24
 485.903 377.366 485.903 377.366 501.366 324.488 c 0,25,26
 515.986 274.498 515.986 274.498 504.996 212.168 c 0,27,28
 504.309 208.367 504.309 208.367 503.979 206.667 c 0,29,30
 491.69 143.075 491.69 143.075 457.874 93.4775 c 0,0,1
370.747 211 m 0,17,18
 377.68 250.321 377.68 250.321 364.968 279.126 c 128,-1,19
 352.256 307.931 352.256 307.931 327.59 318.725 c 128,-1,20
 302.922 329.519 302.922 329.519 275.088 329.519 c 0,0,0
 274.017 329.519 274.017 329.519 260.38 329.312 c 128,-1,21
 246.744 329.106 246.744 329.106 220.934 310.94 c 128,-1,22
 195.124 292.773 195.124 292.773 180.131 260.801 c 1,0,0
 176.279 248.308 176.279 248.308 172.4 227.804 c 128,-1,25
 168.523 207.301 168.523 207.301 167.653 202.367 c 0,0,0
 162.373 172.42 162.373 172.42 163.016 164.704 c 0,26,27
 165.483 135.065 165.483 135.065 185.282 117.482 c 128,-1,28
 205.081 99.8984 205.081 99.8984 218.339 99.7002 c 129,-1,29
 231.596 99.502 231.596 99.502 232.704 99.4912 c 0,30,31
 233.812 99.4805 233.812 99.4805 234.26 99.4805 c 0,0,0
 262.662 99.4805 262.662 99.4805 290.603 109.454 c 128,-1,30
 318.542 119.428 318.542 119.428 341.303 146.261 c 128,-1,31
 364.062 173.095 364.062 173.095 370.747 211 c 0,17,18
EndSplineSet
EndChar

StartChar: q
Encoding: 113 113 84
Width: 497
GlyphClass: 2
Flags: W
LayerCount: 2
Fore
SplineSet
31.2178 213.628 m 0,0,1
 39.0459 258.02 39.0459 258.02 58.3623 296.25 c 0,2,3
 79.3291 337.744 79.3291 337.744 108.322 367.101 c 0,4,5
 136.98 396.118 136.98 396.118 172.283 416.361 c 0,6,7
 207.775 436.714 207.775 436.714 245.09 444.988 c 0,8,9
 277.242 452.117 277.242 452.117 308.977 452.117 c 0,10,11
 313.2 452.117 313.2 452.117 317.419 451.991 c 0,12,13
 351.264 450.976 351.264 450.976 385.594 437.812 c 0,14,15
 396.55 433.612 396.55 433.612 405.214 428.692 c 1,16,-1
 408.442 447 l 1,17,-1
 541.474 447 l 1,18,-1
 422.624 -221 l 1,19,-1
 292.741 -221 l 1,20,-1
 330.139 -3.59961 l 1,21,22
 300.851 -16.5352 300.851 -16.5352 269.017 -22.6201 c 0,23,24
 244.723 -27.2627 244.723 -27.2627 221.548 -27.2627 c 0,25,26
 195.73 -27.2627 195.73 -27.2627 171.399 -21.5029 c 0,27,28
 125.802 -10.707 125.802 -10.707 89.9629 15.7568 c 0,29,30
 52.8096 43.1904 52.8096 43.1904 36.2568 93.4775 c 0,31,32
 19.9443 143.038 19.9443 143.038 30.0586 206.608 c 0,33,34
 30.7793 211.138 30.7793 211.138 31.2178 213.628 c 0,0,1
164.829 211 m 0,20,21
 158.146 173.095 158.146 173.095 171.442 146.261 c 128,-1,22
 184.74 119.428 184.74 119.428 209.163 109.454 c 128,-1,23
 233.586 99.4805 233.586 99.4805 261.988 99.4805 c 1,0,0
 261.694 99.4805 261.694 99.4805 262.805 99.4854 c 0,1,2
 263.914 99.4912 263.914 99.4912 277.614 99.6943 c 128,-1,24
 291.313 99.8984 291.313 99.8984 317.314 117.482 c 128,-1,25
 343.313 135.065 343.313 135.065 356.233 164.704 c 0,26,27
 359.598 172.42 359.598 172.42 364.878 202.367 c 0,0,0
 365.747 207.299 365.747 207.299 369.102 227.805 c 128,-1,28
 372.454 248.312 372.454 248.312 373.007 260.804 c 1,0,0
 369.289 292.774 369.289 292.774 349.886 310.94 c 128,-1,31
 330.482 329.106 330.482 329.106 316.919 329.312 c 128,-1,32
 303.355 329.519 303.355 329.519 302.284 329.519 c 0,0,0
 274.45 329.519 274.45 329.519 245.976 318.725 c 128,-1,33
 217.503 307.931 217.503 307.931 194.633 279.126 c 128,-1,34
 171.763 250.321 171.763 250.321 164.829 211 c 0,20,21
EndSplineSet
EndChar

StartChar: r
Encoding: 114 114 85
Width: 343
GlyphClass: 2
Flags: W
LayerCount: 2
Fore
SplineSet
366.12 445.141 m 2,0,-1
 382.43 436.893 l 1,1,-1
 311.676 321.911 l 1,2,-1
 296.26 325.477 l 2,3,4
 286.79 327.667 286.79 327.667 275.898 327.667 c 0,5,6
 261.817 327.667 261.817 327.667 245.337 324.012 c 0,7,8
 216.96 317.72 216.96 317.72 197.844 300.405 c 0,9,10
 179.721 283.989 179.721 283.989 161.338 254.377 c 0,11,12
 144.349 227.01 144.349 227.01 140.17 203.951 c 2,13,-1
 99.584 -20 l 1,14,-1
 -30.2715 -20 l 1,15,-1
 51.332 449 l 1,16,-1
 184.613 449 l 1,17,-1
 178.841 418.291 l 1,18,19
 209.075 441.469 209.075 441.469 240.257 450.608 c 0,20,21
 272.298 460 272.298 460 303.318 460 c 0,22,23
 336.734 460 336.734 460 366.12 445.141 c 2,0,-1
EndSplineSet
EndChar

StartChar: s
Encoding: 115 115 86
Width: 416
GlyphClass: 2
Flags: W
LayerCount: 2
Fore
SplineSet
-4.11133 78.6973 m 1,0,-1
 106.248 162.963 l 1,1,-1
 116.42 146.404 l 2,2,3
 138.813 109.957 138.813 109.957 188.728 103.843 c 0,4,5
 196.45 102.896 196.45 102.896 201.928 102.896 c 0,6,7
 217.612 102.896 217.612 102.896 229.085 108.389 c 0,8,9
 241.379 114.274 241.379 114.274 246.576 120.438 c 0,10,11
 248.294 122.477 248.294 122.477 249.059 124.022 c 0,12,13
 250.208 126.344 250.208 126.344 250.551 127.615 c 2,14,-1
 250.793 128.702 l 2,15,16
 251.258 131.574 251.258 131.574 250.481 134.669 c 0,17,18
 249.988 136.642 249.988 136.642 249.012 138.763 c 0,19,20
 244.297 149.014 244.297 149.014 225.593 154.807 c 0,21,22
 143.147 180.342 143.147 180.342 136.039 183.354 c 0,23,24
 94.8145 200.821 94.8145 200.821 81.0107 239.604 c 0,25,26
 68.4092 275.009 68.4092 275.009 75.2842 314 c 0,27,28
 79.0713 335.481 79.0713 335.481 91.2637 358.257 c 0,29,30
 103.445 381.013 103.445 381.013 125.548 403.188 c 0,31,32
 149.1 426.812 149.1 426.812 189.628 441.203 c 0,33,34
 228.485 455 228.485 455 276.146 455 c 0,35,36
 368.576 455 368.576 455 406.168 407.967 c 2,37,-1
 416.068 395.581 l 1,38,-1
 324.383 298.245 l 1,39,-1
 311.624 316.984 l 2,40,41
 296.533 339.15 296.533 339.15 267.575 343.206 c 0,42,43
 262.701 343.889 262.701 343.889 258.504 343.889 c 0,44,45
 252.269 343.889 252.269 343.889 245.039 342.755 c 0,46,47
 234.165 341.05 234.165 341.05 222.233 333.066 c 0,48,49
 214.765 328.068 214.765 328.068 212.989 318 c 0,50,51
 209.271 296.916 209.271 296.916 239.398 286.41 c 2,52,-1
 284.727 277.427 l 1,53,-1
 285.761 277.083 l 2,54,55
 338.87 259.445 338.87 259.445 363.523 225.379 c 0,56,57
 389.08 190.064 389.08 190.064 383.92 150.422 c 0,58,59
 383.352 146.062 383.352 146.062 382.592 141.75 c 0,60,61
 376.968 109.854 376.968 109.854 360.884 80.9072 c 0,62,63
 342.492 47.8066 342.492 47.8066 314.067 24.5449 c 0,64,65
 280.356 -3.04395 280.356 -3.04395 241.79 -12.8301 c 0,66,67
 205.929 -21.9287 205.929 -21.9287 160.389 -22.9932 c 0,68,69
 158.186 -23.0449 158.186 -23.0449 156.795 -23.0449 c 0,70,71
 119.584 -23.0449 119.584 -23.0449 69.6602 -1.00781 c 0,72,73
 14.6133 23.2891 14.6133 23.2891 0.566406 64.8535 c 2,74,-1
 -4.11133 78.6973 l 1,0,-1
EndSplineSet
EndChar

StartChar: t
Encoding: 116 116 87
Width: 243
GlyphClass: 2
Flags: W
LayerCount: 2
Fore
SplineSet
219.797 442 m 1,0,0
 267.797 442 l 1,1,-1
 245.933 318 l 1,2,-1
 196.933 318 l 1,0,0
 136.981 -22 l 1,1,-1
 1.98145 -22 l 1,2,-1
 62.2852 320 l 1,0,0
 19.2852 320 l 1,1,-1
 40.7969 442 l 1,2,-1
 86.7969 442 l 1,0,0
 103.019 534 l 1,1,-1
 236.019 534 l 1,2,-1
 219.797 442 l 1,0,0
EndSplineSet
EndChar

StartChar: u
Encoding: 117 117 88
Width: 472
GlyphClass: 2
Flags: W
LayerCount: 2
Fore
SplineSet
38.0342 308.257 m 0,0,1
 45.3857 347.128 45.3857 347.128 47.0381 356.5 c 2,2,-1
 63.3486 449 l 1,3,-1
 197.349 449 l 1,4,-1
 151.68 190 l 2,5,6
 145.711 156.146 145.711 156.146 153.202 136.152 c 0,7,8
 159.925 118.21 159.925 118.21 172.524 113.282 c 0,9,10
 180.475 110.173 180.475 110.173 189.756 110.173 c 0,11,12
 196.853 110.173 196.853 110.173 204.864 111.974 c 0,13,14
 224.876 116.472 224.876 116.472 244.253 129.767 c 128,-1,15
 263.661 143.081 263.661 143.081 279.729 166.206 c 0,16,17
 295.482 188.877 295.482 188.877 300.256 215.953 c 2,18,-1
 340.255 449 l 1,19,-1
 471.302 449 l 1,20,-1
 389.698 -20 l 1,21,-1
 257.267 -20 l 1,22,-1
 262.72 17.5938 l 1,23,24
 246.283 3.39258 246.283 3.39258 234.789 -1.88867 c 0,25,26
 195.373 -20 195.373 -20 156.651 -20 c 0,27,28
 59.0625 -20 59.0625 -20 28.7344 40.2578 c 0,29,30
 0.254883 96.8467 0.254883 96.8467 18.2666 199 c 0,31,32
 30.6328 269.128 30.6328 269.128 38.0342 308.257 c 0,0,1
EndSplineSet
EndChar

StartChar: v
Encoding: 118 118 89
Width: 467
GlyphClass: 2
Flags: W
LayerCount: 2
Fore
SplineSet
515.756 448.664 m 1,0,-1
 182.344 -86.7852 l 1,1,-1
 46.4648 446.686 l 1,2,-1
 186.155 448.139 l 1,3,-1
 240.384 230.155 l 1,0,0
 381.656 450.141 l 1,1,-1
 515.756 448.664 l 1,0,-1
EndSplineSet
EndChar

StartChar: w
Encoding: 119 119 90
Width: 585
GlyphClass: 2
Flags: W
LayerCount: 2
Fore
SplineSet
400.424 227.101 m 1,0,0
 520.862 450.152 l 1,1,-1
 655.041 448.691 l 1,2,-1
 368.269 -80.8545 l 1,3,-1
 299.54 123.474 l 1,0,0
 151.956 -78.8008 l 1,1,-1
 49.5605 446.703 l 1,2,-1
 188.332 448.146 l 1,3,-1
 232.033 222.593 l 1,0,0
 347.813 385.196 l 1,1,-1
 400.424 227.101 l 1,0,0
EndSplineSet
EndChar

StartChar: x
Encoding: 120 120 91
Width: 492
GlyphClass: 2
Flags: W
LayerCount: 2
Fore
SplineSet
63.3672 104.415 m 1,0,-1
 174.496 234.062 l 1,1,-1
 130.013 323.586 l 1,2,-1
 63.4072 446.678 l 1,3,-1
 233.635 448.095 l 1,4,-1
 274.698 351.645 l 1,5,-1
 355.642 448 l 1,6,-1
 509.741 448 l 1,7,-1
 382.415 296.959 l 1,8,-1
 330.772 235.027 l 1,9,-1
 455.046 -21.3545 l 1,10,-1
 301.175 -19.9004 l 1,11,-1
 232.406 117.895 l 1,12,-1
 202.829 82.3584 l 1,13,-1
 123.153 -20 l 1,14,-1
 -46.8672 -20 l 1,15,-1
 63.3672 104.415 l 1,0,-1
EndSplineSet
EndChar

StartChar: y
Encoding: 121 121 92
Width: 462
GlyphClass: 2
Flags: W
LayerCount: 2
Fore
SplineSet
153.721 75.5176 m 1,0,0
 46.2402 446.676 l 1,1,-1
 186.276 448.132 l 1,2,-1
 253.221 226.022 l 1,0,0
 407.943 450.135 l 1,1,-1
 542.622 448.651 l 1,2,-1
 99.4307 -220 l 1,3,-1
 -53.1299 -220 l 1,4,-1
 153.721 75.5176 l 1,0,0
EndSplineSet
EndChar

StartChar: z
Encoding: 122 122 93
Width: 446
GlyphClass: 2
Flags: W
LayerCount: 2
Fore
SplineSet
58.084 325.903 m 1,0,-1
 78.9082 444 l 1,1,-1
 489.278 444 l 1,2,-1
 394.846 331.981 l 1,3,-1
 207.277 106 l 1,0,0
 418.31 106 l 1,1,-1
 396.092 -20 l 1,2,-1
 -49.6973 -20 l 1,3,-1
 247.331 326.816 l 1,0,0
 58.084 325.903 l 1,0,-1
EndSplineSet
EndChar

StartChar: braceleft
Encoding: 123 123 94
Width: 268
GlyphClass: 2
Flags: W
LayerCount: 2
Fore
SplineSet
182.607 -8.20312 m 2,0,-1
 189.282 -14.208 l 1,1,-1
 162.167 -167.991 l 1,2,-1
 135.877 -153.979 l 2,3,4
 60.3311 -113.716 60.3311 -113.716 20.3047 -37.4844 c 0,5,6
 -19.8887 39.0645 -19.8887 39.0645 -10.4092 146.112 c 0,7,8
 -10.2969 147.375 -10.2969 147.375 -7.87598 157.675 c 0,9,10
 -5.91211 166.022 -5.91211 166.022 -3.41895 177.369 c 0,11,12
 -2.6709 180.768 -2.6709 180.768 -1.9834 184.667 c 0,13,14
 -0.56543 192.709 -0.56543 192.709 0.578125 202.752 c 0,15,16
 2.28223 217.727 2.28223 217.727 2.41797 231.712 c 0,17,18
 2.54785 245.261 2.54785 245.261 0.486328 259.36 c 0,19,20
 -1.37891 272.115 -1.37891 272.115 -5.73535 280.733 c 0,21,22
 -9.54297 288.265 -9.54297 288.265 -17.0527 293.54 c 0,23,24
 -23.4033 298 -23.4033 298 -33.667 298 c 1,25,-1
 -26.6133 338 l 1,26,27
 -8.04199 338 -8.04199 338 5.85742 356.154 c 0,28,29
 24.3213 380.271 24.3213 380.271 32.0361 409.284 c 0,30,31
 40.5811 441.425 40.5811 441.425 45.9258 471.5 c 0,32,33
 50.9541 499.792 50.9541 499.792 52.9854 505.238 c 0,34,35
 79.1143 608.868 79.1143 608.868 145.978 682.332 c 0,36,37
 213.178 756.168 213.178 756.168 304.655 793.323 c 2,38,-1
 334.833 805.58 l 1,39,-1
 309.46 661.679 l 1,40,-1
 299.993 655.699 l 2,41,42
 214.522 601.709 214.522 601.709 186.596 503.741 c 0,43,44
 186.112 502.04 186.112 502.04 185.336 498.004 c 0,45,46
 184.56 493.968 184.56 493.968 183.201 486.501 c 0,47,48
 181.842 479.034 181.842 479.034 180.806 473.667 c 0,49,50
 174.875 442.94 174.875 442.94 165.775 408.716 c 0,51,52
 155.696 370.809 155.696 370.809 131.28 338.479 c 0,53,54
 123.714 328.462 123.714 328.462 115.104 320.988 c 1,55,56
 122.301 313.512 122.301 313.512 126.457 303.899 c 0,57,58
 132.229 290.55 132.229 290.55 135.251 272.502 c 0,59,60
 138.252 254.577 138.252 254.577 137.424 237.06 c 0,61,62
 136.658 220.887 136.658 220.887 134.671 203.71 c 0,63,64
 132.691 186.605 132.691 186.605 130.557 174.5 c 2,65,-1
 126.747 152.893 l 1,66,-1
 126.431 151.791 l 2,67,68
 124.957 146.664 124.957 146.664 124.384 145.226 c 0,69,70
 124.286 144.785 124.286 144.785 124.287 144.782 c 0,71,72
 115.162 52.4736 115.162 52.4736 182.607 -8.20312 c 2,0,-1
104.179 144 m 0,41,-1
EndSplineSet
EndChar

StartChar: bar
Encoding: 124 124 95
Width: 207
GlyphClass: 2
Flags: W
LayerCount: 2
Fore
SplineSet
151.505 237.938 m 1,0,-1
 103.856 -20 l 1,1,-1
 -28.9766 -20 l 1,2,-1
 100.977 717 l 1,3,-1
 234.933 717 l 1,4,-1
 151.505 237.938 l 1,0,-1
EndSplineSet
EndChar

StartChar: braceright
Encoding: 125 125 96
Width: 268
GlyphClass: 2
Flags: W
LayerCount: 2
Fore
SplineSet
14.7539 152.932 m 2,0,1
 15.4561 162.587 15.4561 162.587 17.5566 174.5 c 0,2,3
 19.6914 186.605 19.6914 186.605 23.7441 203.71 c 0,4,5
 27.8145 220.887 27.8145 220.887 32.752 237.06 c 0,6,7
 38.0156 254.295 38.0156 254.295 46.6533 271.966 c 0,8,9
 55.7656 290.607 55.7656 290.607 67.2148 304.426 c 0,10,11
 74.8779 313.676 74.8779 313.676 84.5527 320.952 c 1,12,13
 78.3779 328.439 78.3779 328.439 74.2549 338.255 c 0,14,15
 60.5771 370.807 60.5771 370.807 64.4639 409.012 c 0,16,17
 67.9287 443.089 67.9287 443.089 72.8115 473.667 c 0,18,19
 73.6826 479.124 73.6826 479.124 74.958 486.604 c 0,20,21
 76.2324 494.084 76.2324 494.084 76.873 498.076 c 0,22,23
 77.5127 502.069 77.5127 502.069 77.627 503.761 c 0,24,25
 84.2432 601.715 84.2432 601.715 17.8174 655.699 c 2,26,-1
 10.46 661.679 l 1,27,-1
 35.833 805.58 l 1,28,-1
 61.6885 793.323 l 2,29,30
 140.064 756.168 140.064 756.168 181.226 682.332 c 0,31,32
 222.802 607.756 222.802 607.756 211.403 502.705 c 0,33,34
 210.402 493.479 210.402 493.479 207.069 472.345 c 0,35,36
 201.02 433.995 201.02 433.995 198.876 409.284 c 0,37,38
 196.359 380.271 196.359 380.271 206.317 356.154 c 0,39,40
 213.815 338 213.815 338 232.387 338 c 1,41,-1
 225.333 298 l 1,42,43
 215.069 298 215.069 298 207.146 293.54 c 0,44,45
 197.776 288.265 197.776 288.265 191.312 280.733 c 0,46,47
 183.708 271.872 183.708 271.872 176.772 258.812 c 0,48,49
 169.586 245.283 169.586 245.283 165.583 232.356 c 0,50,51
 161.153 218.052 161.153 218.052 157.5 202.752 c 0,52,53
 155.101 192.709 155.101 192.709 153.683 184.667 c 0,54,55
 152.995 180.769 152.995 180.769 152.544 177.369 c 0,56,57
 151.037 166.022 151.037 166.022 150.057 157.675 c 0,58,59
 148.846 147.386 148.846 147.386 148.513 146.112 c 0,60,61
 120.438 39.29 120.438 39.29 53.0527 -37.4844 c 0,62,63
 -13.8574 -113.716 -13.8574 -113.716 -103.603 -153.979 c 2,64,-1
 -134.833 -167.991 l 1,65,-1
 -107.718 -14.208 l 1,66,-1
 -98.9238 -8.20312 l 2,67,68
 -10.1875 52.4014 -10.1875 52.4014 13.3477 144.782 c 2,69,-1
 14.7539 152.932 l 2,0,1
33.1787 144 m 0,42,-1
EndSplineSet
EndChar

StartChar: asciitilde
Encoding: 126 126 97
Width: 496
GlyphClass: 2
Flags: W
LayerCount: 2
Fore
SplineSet
398.137 600.816 m 1,0,1
 401.688 583.142 401.688 583.142 398.724 566.333 c 0,2,3
 397.017 556.652 397.017 556.652 393.168 547.367 c 0,4,5
 381.205 518.5 381.205 518.5 353.595 502.646 c 0,6,7
 330 489.099 330 489.099 304.934 484.37 c 0,8,9
 296.447 482.77 296.447 482.77 288.254 482.77 c 0,10,11
 269.876 482.77 269.876 482.77 253.524 490.762 c 0,12,13
 228.948 502.773 228.948 502.773 220.662 530.401 c 2,14,-1
 215.352 548.114 l 1,15,-1
 297.438 585.833 l 1,16,-1
 303.229 567.944 l 2,17,18
 304.592 563.73 304.592 563.73 307.639 563.39 c 1,19,20
 307.596 563.39 307.596 563.39 307.639 563.39 c 129,-1,21
 307.652 563.389 307.652 563.389 307.648 563.389 c 1,22,-1
 307.648 563.389 l 1,23,24
 308.702 563.311 308.702 563.311 308.945 563.312 c 0,25,26
 311.764 563.312 311.764 563.312 313.727 565.516 c 1,27,-1
 313.957 565.42 l 1,28,29
 313.98 565.991 313.98 565.991 313.814 566.785 c 1,30,31
 314.094 565.971 314.094 565.971 314.225 565.613 c 128,-1,32
 314.356 565.255 314.356 565.255 313.763 567.154 c 1,33,-1
 298.812 585.304 l 1,34,-1
 403.106 628.999 l 1,35,-1
 398.137 600.816 l 1,0,1
125.863 497.184 m 1,36,37
 122.312 514.858 122.312 514.858 125.276 531.667 c 0,38,39
 126.983 541.348 126.983 541.348 130.832 550.633 c 0,40,41
 142.795 579.5 142.795 579.5 170.405 595.354 c 0,42,43
 193.999 608.901 193.999 608.901 219.066 613.63 c 0,44,45
 227.553 615.23 227.553 615.23 235.746 615.23 c 0,46,47
 254.124 615.23 254.124 615.23 270.476 607.238 c 0,48,49
 295.052 595.227 295.052 595.227 303.338 567.599 c 2,50,-1
 308.648 549.886 l 1,51,-1
 226.562 512.167 l 1,52,-1
 220.771 530.056 l 2,53,54
 219.405 534.275 219.405 534.275 216.349 534.609 c 0,55,56
 215.289 534.689 215.289 534.689 215.055 534.688 c 0,57,58
 212.551 534.688 212.551 534.688 210.273 532.484 c 1,59,60
 209.822 531.802 209.822 531.802 209.994 531.551 c 128,-1,61
 210.165 531.301 210.165 531.301 210.185 531.226 c 129,-1,62
 210.174 531.271 210.174 531.271 210.184 531.273 c 1,63,-1
 210.3 530.771 l 1,64,-1
 225.188 512.696 l 1,65,-1
 120.894 469.001 l 1,66,-1
 125.863 497.184 l 1,36,37
216.349 534.609 m 129,-1,67
 216.371 534.609 216.371 534.609 216.349 534.609 c 129,-1,67
EndSplineSet
EndChar

StartChar: exclamdown
Encoding: 161 161 98
Width: 238
GlyphClass: 2
Flags: W
LayerCount: 2
Fore
SplineSet
-10.3535 -19 m 1,0,-1
 67.915 462 l 1,1,-1
 198.964 462 l 1,2,-1
 119.605 -19 l 1,3,-1
 -10.3535 -19 l 1,0,-1
119.029 692.491 m 128,-1,13
 147.02 714 147.02 714 176.711 714 c 128,-1,12
 206.403 714 206.403 714 226.617 691.899 c 128,-1,11
 246.83 669.798 246.83 669.798 240.165 632 c 0,9,10
 233.753 595.633 233.753 595.633 206.124 575.559 c 128,-1,8
 178.494 555.484 178.494 555.484 150.088 555.484 c 0,0,0
 149.154 555.484 149.154 555.484 134.165 555.826 c 128,-1,7
 119.175 556.168 119.175 556.168 98.6572 576.999 c 128,-1,6
 78.1396 597.829 78.1396 597.829 84.5176 634 c 0,4,5
 91.0381 670.981 91.0381 670.981 119.029 692.491 c 128,-1,13
EndSplineSet
EndChar

StartChar: yen
Encoding: 165 165 99
Width: 604
GlyphClass: 2
Flags: W
LayerCount: 2
Fore
SplineSet
6.28418 220 m 1,0,-1
 547.295 220 l 1,1,-1
 521.815 92 l 1,2,-1
 -19.1953 92 l 1,3,-1
 6.28418 220 l 1,0,-1
34.1133 400 m 1,4,-1
 575.124 400 l 1,5,-1
 555.464 272 l 1,6,-1
 14.4531 272 l 1,7,-1
 34.1133 400 l 1,4,-1
43.3311 712 m 1,8,-1
 197.313 712 l 1,9,-1
 322.984 454.427 l 1,10,-1
 535.73 712 l 1,11,-1
 689.554 712 l 1,12,-1
 370.886 328.043 l 1,13,-1
 310.144 -16.4424 l 1,14,-1
 162.972 -20.5869 l 1,15,-1
 231.361 325.627 l 1,16,-1
 43.3311 712 l 1,8,-1
EndSplineSet
EndChar

StartChar: dieresis
Encoding: 168 168 100
Width: 713
GlyphClass: 2
Flags: W
LayerCount: 2
Fore
SplineSet
174.864 862.491 m 128,-1,1
 202.854 884 202.854 884 232.276 884 c 128,-1,2
 261.7 884 261.7 884 282.498 863.684 c 128,-1,3
 303.294 843.367 303.294 843.367 296.882 807 c 0,4,5
 290.217 769.202 290.217 769.202 262.21 747.101 c 128,-1,6
 234.202 725 234.202 725 204.511 725 c 128,-1,7
 174.818 725 174.818 725 154.413 746.509 c 128,-1,8
 134.008 768.019 134.008 768.019 140.529 805 c 0,9,0
 146.873 840.981 146.873 840.981 174.864 862.491 c 128,-1,1
421.982 857.491 m 128,-1,11
 449.974 879 449.974 879 479.396 879 c 128,-1,12
 508.818 879 508.818 879 529.616 858.684 c 128,-1,13
 550.412 838.367 550.412 838.367 544 802 c 0,14,15
 537.335 764.202 537.335 764.202 509.328 742.101 c 128,-1,16
 481.32 720 481.32 720 451.628 720 c 128,-1,17
 421.938 720 421.938 720 401.532 741.509 c 128,-1,18
 381.127 763.019 381.127 763.019 387.647 800 c 0,19,10
 393.992 835.981 393.992 835.981 421.982 857.491 c 128,-1,11
EndSplineSet
EndChar

StartChar: guillemotleft
Encoding: 171 171 101
Width: 605
GlyphClass: 2
Flags: W
LayerCount: 2
Fore
SplineSet
496.286 465.934 m 1,0,-1
 472.389 330.409 l 1,1,-1
 401.062 287.129 l 1,0,0
 456.168 239.031 l 1,1,-1
 432.847 97.9873 l 1,2,-1
 207.726 289.635 l 1,3,-1
 496.286 465.934 l 1,0,-1
289.593 467.676 m 1,4,-1
 265.938 333.521 l 1,5,-1
 194.46 289.42 l 1,0,0
 249.715 242.133 l 1,1,-1
 226.189 99.9492 l 1,2,-1
 0.15918 292.748 l 1,3,-1
 289.593 467.676 l 1,4,-1
EndSplineSet
EndChar

StartChar: degree
Encoding: 176 176 102
Width: 560
GlyphClass: 2
Flags: W
LayerCount: 2
Fore
SplineSet
282.275 807.628 m 0,0,1
 282.091 807.628 282.091 807.628 281.93 807.605 c 0,2,3
 281.298 807.517 281.298 807.517 279.602 806.725 c 0,4,5
 277.338 805.666 277.338 805.666 276.691 802 c 0,6,7
 275.968 797.896 275.968 797.896 277.312 797.11 c 0,8,9
 277.344 797.095 277.344 797.095 277.495 797.013 c 0,10,11
 278.102 796.683 278.102 796.683 278.245 796.621 c 0,12,13
 279.093 796.252 279.093 796.252 279.789 796.252 c 0,14,15
 280.179 796.271 280.179 796.271 280.262 796.281 c 0,16,17
 281.322 796.418 281.322 796.418 283.125 797.244 c 128,-1,18
 285.005 798.105 285.005 798.105 285.868 803 c 0,19,20
 286.372 805.857 286.372 805.857 284.804 806.756 c 0,21,22
 284.606 806.916 284.606 806.916 283.817 807.248 c 0,23,24
 283.218 807.501 283.218 807.501 282.275 807.628 c 0,0,1
282.275 807.628 m 1,25,-1
 282.275 807.628 l 1,25,-1
279.789 796.252 m 1,26,-1
 279.789 796.252 l 1,26,-1
277.312 797.11 m 1,27,28
 277.328 797.102 277.328 797.102 277.335 797.096 c 1,29,-1
 277.312 797.11 l 1,27,28
277.335 797.096 m 1,30,-1
 277.335 797.096 l 1,30,-1
229.078 864.426 m 128,-1,32
 260.298 886.205 260.298 886.205 290.248 886.205 c 0,33,34
 293.642 886.205 293.642 886.205 311.248 884.832 c 128,-1,35
 328.856 883.459 328.856 883.459 352.901 860.468 c 128,-1,36
 376.947 837.479 376.947 837.479 370.163 799 c 0,37,38
 363.055 758.688 363.055 758.688 330.686 734.982 c 128,-1,39
 298.317 711.278 298.317 711.278 280.931 710.614 c 128,-1,40
 263.545 709.95 263.545 709.95 261.871 709.95 c 0,41,42
 229.92 709.95 229.92 709.95 206.412 733.898 c 128,-1,43
 182.906 757.847 182.906 757.847 190.516 801 c 0,44,31
 197.858 842.646 197.858 842.646 229.078 864.426 c 128,-1,32
EndSplineSet
EndChar

StartChar: plusminus
Encoding: 177 177 103
Width: 495
GlyphClass: 2
Flags: W
LayerCount: 2
Fore
SplineSet
407.339 107 m 1,0,-1
 -20.6611 107 l 1,1,-1
 2.25195 236.948 l 1,2,-1
 430.446 238.052 l 1,3,-1
 407.339 107 l 1,0,-1
319.503 453.147 m 1,0,0
 293.147 298 l 1,1,-1
 162.018 298 l 1,2,-1
 189.322 452.857 l 1,0,0
 48.1465 451.857 l 1,1,-1
 71.1191 582.141 l 1,2,-1
 213.525 581.144 l 1,0,0
 236.246 727 l 1,1,-1
 366.661 727 l 1,2,-1
 341.296 583.146 l 1,0,0
 478.473 584.146 l 1,1,-1
 455.55 454.146 l 1,2,-1
 319.503 453.147 l 1,0,0
EndSplineSet
EndChar

StartChar: uni00B2
Encoding: 178 178 104
Width: 402
GlyphClass: 2
Flags: W
LayerCount: 2
Fore
SplineSet
292.68 734.539 m 2,1,2
 315.719 762.421 315.719 762.421 319.482 783.766 c 0,0,0
 320.123 787.396 320.123 787.396 320.282 797.998 c 128,-1,3
 320.441 808.598 320.441 808.598 300.344 813.531 c 0,4,5
 297.494 814.23 297.494 814.23 294.159 814.23 c 0,0,0
 285.448 814.23 285.448 814.23 272.402 809.145 c 128,-1,6
 259.356 804.059 259.356 804.059 253.045 791.676 c 2,7,-1
 240.617 767.291 l 1,8,-1
 173.702 815.651 l 1,9,-1
 184.021 831.548 l 2,8,9
 225.898 896.07 225.898 896.07 304.62 896.07 c 0,0,0
 306.221 896.07 306.221 896.07 309.949 895.994 c 0,10,11
 368.066 894.806 368.066 894.806 391.109 864.765 c 128,-1,12
 414.153 834.724 414.153 834.724 406.849 793.3 c 0,0,0
 405.331 784.689 405.331 784.689 396.563 755.595 c 128,-1,13
 387.796 726.5 387.796 726.5 340.326 673.199 c 2,14,-1
 263.712 590.294 l 1,0,0
 380.712 591.146 l 1,1,-1
 365.521 505 l 1,2,-1
 75.9551 505 l 1,3,-1
 292.68 734.539 l 2,1,2
EndSplineSet
EndChar

StartChar: uni00B3
Encoding: 179 179 105
Width: 382
GlyphClass: 2
Flags: W
LayerCount: 2
Fore
SplineSet
296.943 767.09 m 128,-1,2
 302.589 776.38 302.589 776.38 303.954 784.125 c 0,0,0
 305.216 791.278 305.216 791.278 303.021 798.056 c 0,3,4
 299.282 809.609 299.282 809.609 282.396 813.453 c 0,5,6
 276.573 814.777 276.573 814.777 269.575 814.777 c 0,0,0
 260.874 814.777 260.874 814.777 249.511 812.181 c 128,-1,7
 238.147 809.585 238.147 809.585 230.611 799.287 c 2,8,-1
 217.075 780.792 l 1,9,-1
 151.434 827.446 l 1,10,-1
 166.911 844.696 l 2,9,10
 211.229 894.089 211.229 894.089 287.612 894.089 c 0,0,0
 288.658 894.089 288.658 894.089 290.869 894.044 c 0,1,2
 293.081 893.998 293.081 893.998 294.108 893.996 c 0,11,12
 331.846 893.912 331.846 893.912 357.541 875.185 c 128,-1,13
 383.235 856.457 383.235 856.457 388.972 833.132 c 128,-1,14
 394.708 809.808 394.708 809.808 390.979 788.656 c 0,0,0
 389.079 777.884 389.079 777.884 382.597 759.62 c 128,-1,15
 376.114 741.355 376.114 741.355 356.43 719.457 c 1,0,0
 376.508 688.137 376.508 688.137 377.227 663.469 c 128,-1,18
 377.946 638.801 377.946 638.801 375.524 625.069 c 0,0,0
 370.842 598.511 370.842 598.511 352.122 570.832 c 128,-1,19
 333.402 543.153 333.402 543.153 295.347 521.143 c 128,-1,20
 257.291 499.132 257.291 499.132 214.551 499.007 c 0,21,22
 213.385 499.004 213.385 499.004 210.788 498.936 c 0,23,24
 208.19 498.867 208.19 498.867 206.961 498.867 c 0,0,0
 151.665 498.867 151.665 498.867 102.829 527.316 c 2,23,-1
 82.8076 538.98 l 1,24,-1
 149.054 603.342 l 1,25,-1
 161.631 597.276 l 2,24,25
 176.891 589.918 176.891 589.918 189.251 586.459 c 128,-1,26
 201.611 583 201.611 583 205.302 583 c 130,-1,27
 230.991 583 l 2,28,29
 256.45 583 256.45 583 270.102 598.847 c 128,-1,30
 283.755 614.694 283.755 614.694 286.256 628.878 c 0,0,0
 287.433 635.549 287.433 635.549 286.115 649.01 c 128,-1,31
 284.798 662.471 284.798 662.471 265.739 670.073 c 1,0,0
 204.091 671.419 l 1,1,-1
 215.655 748.518 l 1,2,-1
 276 749.948 l 1,0,0
 278.767 750.579 278.767 750.579 280.178 751.133 c 0,1,2
 282.511 752.047 282.511 752.047 284.659 753.454 c 0,3,4
 291.298 757.8 291.298 757.8 296.943 767.09 c 128,-1,2
EndSplineSet
EndChar

StartChar: acute
Encoding: 180 180 106
Width: 1000
GlyphClass: 2
Flags: W
LayerCount: 2
Fore
SplineSet
446.92 1014.89 m 1,0,-1
 518.043 909.211 l 1,1,-1
 310.845 764.572 l 1,2,-1
 246.374 837.216 l 1,3,-1
 446.92 1014.89 l 1,0,-1
EndSplineSet
EndChar

StartChar: uni00B9
Encoding: 185 185 107
Width: 284
GlyphClass: 2
Flags: W
LayerCount: 2
Fore
SplineSet
219.01 589 m 1,0,-1
 220.01 589 l 1,1,-1
 206.08 510 l 1,2,-1
 117.08 510 l 1,3,-1
 127.476 568.954 l 1,4,-1
 158.775 751.229 l 1,5,-1
 113.652 799.704 l 1,6,-1
 209.618 877.079 l 1,7,-1
 279.059 940.107 l 1,8,-1
 261.886 832.172 l 1,9,-1
 219.01 589 l 1,0,-1
EndSplineSet
EndChar

StartChar: guillemotright
Encoding: 187 187 108
Width: 605
GlyphClass: 2
Flags: W
LayerCount: 2
Fore
SplineSet
46.2861 465.934 m 1,0,-1
 272.674 289.635 l 1,1,-1
 -20.0332 97.9873 l 1,2,-1
 6.38574 239.031 l 1,3,-1
 78.4531 287.129 l 1,0,0
 22.3896 330.409 l 1,1,-1
 46.2861 465.934 l 1,0,-1
253.593 467.676 m 1,2,-1
 481.338 292.748 l 1,3,-1
 187.315 99.9492 l 1,4,-1
 213.933 242.133 l 1,5,-1
 285.863 289.42 l 1,0,0
 229.938 333.521 l 1,1,-1
 253.593 467.676 l 1,2,-1
EndSplineSet
EndChar

StartChar: questiondown
Encoding: 191 191 109
Width: 548
GlyphClass: 2
Flags: W
LayerCount: 2
Fore
SplineSet
297.086 104.72 m 128,-1,2
 316.325 112.439 316.325 112.439 328.679 124.82 c 128,-1,3
 341.03 137.2 341.03 137.2 359.384 153.679 c 2,4,-1
 380.764 172.873 l 1,5,-1
 425.775 68.7666 l 1,6,-1
 414.002 57.7129 l 2,5,6
 372.162 18.4346 372.162 18.4346 324.849 -0.783203 c 128,-1,7
 277.535 -20 277.535 -20 217.351 -20 c 0,8,9
 120.351 -20 120.351 -20 71.6748 35.7148 c 128,-1,10
 22.999 91.4287 22.999 91.4287 38.9688 182 c 0,11,12
 47.041 227.78 47.041 227.78 73.6914 266.778 c 128,-1,13
 100.341 305.776 100.341 305.776 151.183 349.891 c 2,14,-1
 200.723 393.695 l 2,15,16
 241.035 430.3 241.035 430.3 249.372 447.197 c 128,-1,17
 257.71 464.095 257.71 464.095 266.333 513 c 2,18,-1
 266.54 514.173 l 1,19,-1
 276.809 549.104 l 1,20,-1
 413.579 556.091 l 1,21,-1
 402.335 501.697 l 2,21,22
 391.35 439.397 391.35 439.397 367.207 402.882 c 128,-1,23
 343.064 366.367 343.064 366.367 295.686 325.192 c 2,24,-1
 244.944 279.527 l 2,25,26
 234.599 269.815 234.599 269.815 224.528 262.077 c 128,-1,27
 214.458 254.339 214.458 254.339 205.609 244.906 c 128,-1,28
 196.759 235.474 196.759 235.474 189.597 226.805 c 128,-1,29
 182.433 218.136 182.433 218.136 178.445 210.528 c 128,-1,30
 174.458 202.921 174.458 202.921 173.375 196.78 c 2,0,0
 172.887 193.091 l 2,31,32
 165.754 145.346 165.754 145.346 183.926 121.173 c 0,33,34
 202.096 97 202.096 97 250.981 97 c 0,0,1
 277.847 97 277.847 97 297.086 104.72 c 128,-1,2
411.302 632.999 m 128,-1,35
 383.438 612.168 383.438 612.168 368.328 611.826 c 128,-1,36
 353.218 611.484 353.218 611.484 352.283 611.484 c 0,0,0
 323.878 611.484 323.878 611.484 303.327 631.559 c 128,-1,37
 282.778 651.633 282.778 651.633 289.19 688 c 0,38,39
 295.855 725.798 295.855 725.798 323.862 747.899 c 128,-1,40
 351.87 770 351.87 770 381.562 770 c 128,-1,41
 411.253 770 411.253 770 431.658 748.491 c 128,-1,42
 452.063 726.981 452.063 726.981 445.543 690 c 0,33,34
 439.165 653.829 439.165 653.829 411.302 632.999 c 128,-1,35
EndSplineSet
EndChar

StartChar: Odieresis
Encoding: 214 214 127
Width: 812
GlyphClass: 2
Flags: W
LayerCount: 2
Fore
SplineSet
321.562 -3 m 0
EndSplineSet
Refer: 50 79 N 1 0 0 1 0 0 2
Refer: 100 168 S 1 0 0 1 96 0 2
EndChar

StartChar: multiply
Encoding: 215 215 128
Width: 495
GlyphClass: 2
Flags: W
LayerCount: 2
Fore
SplineSet
337.999 360.138 m 1,0,0
 428.84 251.064 l 1,1,-1
 320.283 158.78 l 1,2,-1
 229.622 267.638 l 1,0,0
 113.913 167.572 l 1,1,-1
 37.7832 260 l 1,2,-1
 156.181 360.65 l 1,0,0
 68.8135 460.65 l 1,1,-1
 177.781 553.284 l 1,2,-1
 261.676 451.431 l 1,0,0
 374.955 549.431 l 1,1,-1
 451.027 457.073 l 1,2,-1
 337.999 360.138 l 1,0,0
EndSplineSet
EndChar

StartChar: germandbls
Encoding: 223 223 130
Width: 517
GlyphClass: 2
Flags: W
LayerCount: 2
Fore
SplineSet
197.857 -19.9502 m 1,0,-1
 8.85352 -20 l 1,1,-1
 8.95703 -19.4121 l 1,2,-1
 -40.2197 -20.4121 l 1,3,-1
 88.2197 708 l 1,4,-1
 314.275 708 l 1,5,-1
 316.854 706.051 l 1,6,7
 362.858 705.823 362.858 705.823 397.347 687.487 c 0,8,9
 434.34 667.818 434.34 667.818 452.129 635.814 c 0,10,11
 469.496 604.569 469.496 604.569 471.982 565.157 c 0,12,13
 473.488 541.308 473.488 541.308 469.434 518.314 c 0,14,15
 466.788 503.309 466.788 503.309 461.781 488.712 c 0,16,17
 448.832 450.959 448.832 450.959 418.666 418.089 c 0,18,19
 405.99 404.276 405.99 404.276 390.929 393.102 c 1,20,21
 412.987 383.956 412.987 383.956 429.724 366.51 c 0,22,23
 461.418 333.469 461.418 333.469 469.153 285.391 c 0,24,25
 475.227 247.643 475.227 247.643 467.797 205.504 c 0,26,27
 466.019 195.419 466.019 195.419 463.466 185.09 c 0,28,29
 450.232 131.519 450.232 131.519 418.827 85.8867 c 0,30,31
 386.352 38.7012 386.352 38.7012 330.047 8.75195 c 0,32,33
 277.613 -19.1377 277.613 -19.1377 215.481 -19.1377 c 0,34,35
 211.653 -19.1377 211.653 -19.1377 207.725 -19.0293 c 2,36,-1
 197.857 -19.9502 l 1,0,-1
252.471 596 m 1,37,-1
 195.438 596 l 1,38,-1
 164.83 424 l 1,39,-1
 183.143 424 l 2,40,41
 196.616 424 196.616 424 224.852 425.473 c 0,42,43
 227.949 425.634 227.949 425.634 240.392 426.098 c 0,44,45
 252.834 426.562 252.834 426.562 256.005 426.967 c 0,46,47
 284.764 430.637 284.764 430.637 306.529 448.797 c 0,48,49
 327.739 466.493 327.739 466.493 334.819 489.188 c 0,50,51
 337.468 497.683 337.468 497.683 338.954 506.111 c 0,52,53
 341.925 522.959 341.925 522.959 340.261 539.682 c 0,54,55
 338.016 562.229 338.016 562.229 320.129 578.146 c 0,56,57
 302.11 594.183 302.11 594.183 271.756 595.008 c 2,58,-1
 252.471 596 l 1,37,-1
145.257 314 m 1,59,-1
 109.845 115 l 1,60,-1
 243.657 115 l 2,61,62
 274.611 115 274.611 115 297.056 133.428 c 0,63,64
 320.206 152.435 320.206 152.435 328.296 180.271 c 0,65,66
 331.222 190.339 331.222 190.339 332.986 200.349 c 0,67,68
 336.736 221.612 336.736 221.612 335.258 242.716 c 0,69,70
 333.249 271.396 333.249 271.396 314.337 292.325 c 0,71,72
 296.367 312.211 296.367 312.211 267.031 313.007 c 2,73,-1
 247.664 313.533 l 1,74,-1
 163.746 314 l 1,75,-1
 145.257 314 l 1,59,-1
EndSplineSet
EndChar

StartChar: dotlessi
Encoding: 305 305 165
Width: 207
GlyphClass: 2
Flags: W
LayerCount: 2
Fore
SplineSet
80.7861 453 m 1,0,-1
 212.878 453 l 1,1,-1
 129.122 -22 l 1,2,-1
 -0.786133 -22 l 1,3,-1
 80.7861 453 l 1,0,-1
EndSplineSet
EndChar

StartChar: jcircumflex
Encoding: 309 309 167
Width: 207
GlyphClass: 2
Flags: W
LayerCount: 2
Fore
SplineSet
64.4346 450 m 1,0,-1
 196.473 450 l 1,1,-1
 94.5381 -122 l 1,2,-1
 -36.4248 -122 l 1,3,-1
 64.4346 450 l 1,0,-1
EndSplineSet
Refer: 65 94 S 1 0 0 1 -151.171 -35 2
EndChar

StartChar: uni030A
Encoding: 778 778 174
Width: 154
GlyphClass: 2
Flags: W
LayerCount: 2
Fore
SplineSet
77.7959 796.748 m 0,0,1
 77.4365 796.731 77.4365 796.731 77.3672 796.723 c 0,2,3
 76.8691 796.657 76.8691 796.657 75.0361 795.914 c 0,4,5
 73.3926 795.248 73.3926 795.248 72.6436 791 c 0,6,7
 71.9209 786.9 71.9209 786.9 73.2793 786.102 c 0,8,9
 73.2949 786.093 73.2949 786.093 73.3027 786.086 c 1,10,11
 73.2891 786.102 73.2891 786.102 73.2793 786.102 c 1,12,13
 74.0781 785.681 74.0781 785.681 74.0957 785.673 c 0,14,15
 74.5488 785.477 74.5488 785.477 75.3096 785.372 c 0,16,17
 76.71 785.539 76.71 785.539 78.5693 786.45 c 0,18,19
 81.0566 787.668 81.0566 787.668 81.8203 792 c 0,20,21
 82.3242 794.857 82.3242 794.857 80.7559 795.756 c 0,22,23
 80.4834 795.956 80.4834 795.956 79.6621 796.301 c 0,24,25
 78.9824 796.588 78.9824 796.588 77.7959 796.748 c 0,0,1
77.7959 796.748 m 1,26,-1
 77.7959 796.748 l 1,26,-1
75.3096 785.372 m 1,27,-1
 75.3096 785.372 l 1,27,-1
25.1836 854.016 m 128,-1,10
 56.3496 875.211 56.3496 875.211 86.0625 875.211 c 0,0,0
 89.5225 875.211 89.5225 875.211 107.165 873.835 c 128,-1,11
 124.809 872.459 124.809 872.459 148.854 849.468 c 128,-1,12
 172.899 826.479 172.899 826.479 166.115 788 c 0,13,14
 159.007 747.688 159.007 747.688 126.544 723.913 c 128,-1,15
 94.0811 700.14 94.0811 700.14 77.0459 699.812 c 128,-1,16
 60.0107 699.486 60.0107 699.486 59.1426 699.486 c 0,0,0
 26.6377 699.486 26.6377 699.486 2.7334 723.086 c 128,-1,17
 -21.1699 746.688 -21.1699 746.688 -13.5322 790 c 0,8,9
 -5.98242 832.82 -5.98242 832.82 25.1836 854.016 c 128,-1,10
EndSplineSet
EndChar

StartChar: Delta
Encoding: 916 916 175
Width: 674
GlyphClass: 2
Flags: W
LayerCount: 2
Fore
SplineSet
435.168 647.125 m 1,1,-1
 613.188 -19 l 1,2,-1
 487.553 -18.999 l 1,3,-1
 401.377 -19.999 l 1,4,-1
 126.138 -19.999 l 1,5,-1
 45.3145 -18.999 l 1,6,-1
 -79.7793 -19 l 1,7,-1
 330.312 663.621 l 1,8,-1
 398.744 782.365 l 1,9,-1
 435.168 647.125 l 1,1,-1
444.802 102 m 1,0,0
 345.485 463.068 l 1,0,0
 136.39 102 l 1,0,0
 444.802 102 l 1,0,0
EndSplineSet
EndChar

StartChar: beta
Encoding: 946 946 176
Width: 517
GlyphClass: 2
Flags: W
LayerCount: 2
Fore
SplineSet
75.2471 -140 m 1,0,-1
 -1.72656 -140 l 1,1,-1
 -1.62305 -139.412 l 1,2,-1
 -50.7988 -140.412 l 1,3,-1
 98.7988 708 l 1,4,-1
 324.854 708 l 1,5,-1
 327.435 706.051 l 1,6,7
 373.438 705.823 373.438 705.823 407.926 687.487 c 0,8,9
 444.92 667.818 444.92 667.818 462.709 635.814 c 0,10,11
 480.075 604.569 480.075 604.569 482.562 565.157 c 0,12,13
 484.067 541.308 484.067 541.308 480.014 518.314 c 0,14,15
 477.367 503.309 477.367 503.309 472.36 488.712 c 0,16,17
 459.412 450.959 459.412 450.959 429.246 418.089 c 0,18,19
 416.57 404.276 416.57 404.276 401.508 393.102 c 1,20,21
 423.567 383.956 423.567 383.956 440.303 366.51 c 0,22,23
 471.998 333.469 471.998 333.469 479.732 285.391 c 0,24,25
 485.807 247.643 485.807 247.643 478.376 205.504 c 0,26,27
 476.598 195.419 476.598 195.419 474.046 185.09 c 0,28,29
 460.812 131.519 460.812 131.519 429.406 85.8867 c 0,30,31
 396.932 38.7012 396.932 38.7012 340.627 8.75195 c 0,32,33
 288.193 -19.1377 288.193 -19.1377 226.061 -19.1377 c 0,34,35
 222.233 -19.1377 222.233 -19.1377 218.304 -19.0293 c 2,36,-1
 208.437 -19.9502 l 1,37,-1
 96.5693 -20 l 1,38,-1
 75.2471 -140 l 1,0,-1
263.051 596 m 1,39,-1
 206.023 596 l 1,40,-1
 175.461 424 l 1,41,-1
 193.722 424 l 2,42,43
 207.196 424 207.196 424 235.431 425.473 c 0,44,45
 238.529 425.634 238.529 425.634 250.971 426.098 c 0,46,47
 263.414 426.562 263.414 426.562 266.584 426.967 c 0,48,49
 295.344 430.637 295.344 430.637 317.108 448.797 c 0,50,51
 338.318 466.493 338.318 466.493 345.398 489.188 c 0,52,53
 348.048 497.683 348.048 497.683 349.533 506.111 c 0,54,55
 352.504 522.959 352.504 522.959 350.84 539.682 c 0,56,57
 348.596 562.229 348.596 562.229 330.708 578.146 c 0,58,59
 312.689 594.183 312.689 594.183 282.335 595.008 c 2,60,-1
 263.051 596 l 1,39,-1
155.916 314 m 1,61,-1
 120.556 115 l 1,62,-1
 254.237 115 l 2,63,64
 285.191 115 285.191 115 307.636 133.428 c 0,65,66
 330.786 152.435 330.786 152.435 338.875 180.271 c 0,67,68
 341.802 190.339 341.802 190.339 343.566 200.349 c 0,69,70
 347.315 221.612 347.315 221.612 345.838 242.716 c 0,71,72
 343.829 271.396 343.829 271.396 324.916 292.325 c 0,73,74
 306.946 312.211 306.946 312.211 277.611 313.007 c 2,75,-1
 258.244 313.533 l 1,76,-1
 174.326 314 l 1,77,-1
 155.916 314 l 1,61,-1
EndSplineSet
EndChar

StartChar: quoteleft
Encoding: 8216 8216 177
Width: 187
GlyphClass: 2
Flags: W
LayerCount: 2
Fore
SplineSet
138.369 612.812 m 0,0,1
 134.388 594.893 134.388 594.893 124.374 582.134 c 0,2,3
 120.828 577.616 120.828 577.616 116.493 573.441 c 0,4,5
 96.6992 554.378 96.6992 554.378 73.8184 548.247 c 0,6,7
 66.4502 546.271 66.4502 546.271 59.4014 546.271 c 0,8,9
 39.8926 546.271 39.8926 546.271 26.8721 559.383 c 0,10,11
 21.7656 564.523 21.7656 564.523 18.9629 569.261 c 0,12,13
 8.9043 586.258 8.9043 586.258 11.126 614.306 c 0,14,15
 11.4541 618.45 11.4541 618.45 12.7393 625.734 c 0,16,17
 20.7266 671.034 20.7266 671.034 52.5859 709.838 c 0,18,19
 88.6406 753.749 88.6406 753.749 124.294 764.974 c 2,20,-1
 184.234 783.845 l 1,21,-1
 141.754 734.67 l 2,22,23
 132.216 723.626 132.216 723.626 125.997 693.444 c 2,24,-1
 125.073 688.598 l 2,25,26
 122.234 670.476 122.234 670.476 123.989 662.581 c 0,27,28
 124.4 660.729 124.4 660.729 125.01 659.479 c 0,29,30
 141.821 644.043 141.821 644.043 139.319 621.686 c 0,31,32
 139.283 621.367 139.283 621.367 139.021 617.969 c 0,33,34
 138.759 614.57 138.759 614.57 138.369 612.812 c 0,0,1
EndSplineSet
EndChar

StartChar: quoteright
Encoding: 8217 8217 178
Width: 187
GlyphClass: 2
Flags: W
LayerCount: 2
Fore
SplineSet
44.5332 691.885 m 0,0,0
 47.9932 711.509 47.9932 711.509 64.4834 730.121 c 128,-1,2
 80.9736 748.733 80.9736 748.733 97.2021 754.153 c 128,-1,3
 113.43 759.572 113.43 759.572 121.381 759.333 c 0,0,0
 134.224 758.948 134.224 758.948 144.249 753.523 c 0,1,2
 149.346 750.765 149.346 750.765 153.655 746.925 c 128,-1,4
 157.965 743.085 157.965 743.085 160.629 739.414 c 0,5,6
 161.857 737.722 161.857 737.722 162.955 735.895 c 0,7,8
 172.373 720.223 172.373 720.223 172.097 696.109 c 0,5,6
 171.989 686.667 171.989 686.667 169.754 673.99 c 0,0,0
 162.921 635.238 162.921 635.238 133.734 594.354 c 128,-1,7
 104.549 553.467 104.549 553.467 70.8184 539.693 c 2,8,9
 11.6787 515.546 l 1,10,-1
 50.2891 567.806 l 2,8,9
 56.5869 576.33 56.5869 576.33 60.4502 598.239 c 0,0,0
 61.6084 604.807 61.6084 604.807 62.9912 617.27 c 128,-1,10
 64.374 629.733 64.374 629.733 62.1709 638.41 c 0,11,12
 61.3721 641.558 61.3721 641.558 61.1152 641.753 c 0,11,12
 42.4795 655.98 42.4795 655.98 43.5264 679.141 c 0,0,0
 43.9541 688.601 43.9541 688.601 44.5332 691.885 c 0,0,0
EndSplineSet
EndChar

StartChar: quotedblleft
Encoding: 8220 8220 179
Width: 292
GlyphClass: 2
Flags: W
LayerCount: 2
Fore
SplineSet
261.533 616.918 m 0,0,0
 257.641 594.842 257.641 594.842 238.763 575.507 c 128,-1,2
 219.887 556.173 219.887 556.173 203.97 552.472 c 128,-1,3
 188.053 548.771 188.053 548.771 182.615 549 c 0,0,0
 167.757 549.625 167.757 549.625 157.262 556.138 c 0,1,2
 151.915 559.457 151.915 559.457 147.792 563.8 c 128,-1,4
 143.669 568.143 143.669 568.143 141.285 572.096 c 0,5,6
 140.698 573.069 140.698 573.069 139.271 575.788 c 0,7,8
 131.335 591.923 131.335 591.923 133.237 616.49 c 0,5,6
 133.411 618.723 133.411 618.723 134.497 624.882 c 0,0,0
 142.754 671.71 142.754 671.71 176.688 713.713 c 128,-1,7
 210.623 755.716 210.623 755.716 246.382 766.974 c 2,8,9
 309.497 786.845 l 1,10,-1
 263.403 736.173 l 2,8,9
 254.449 726.33 254.449 726.33 251.369 710.119 c 128,-1,10
 248.289 693.908 248.289 693.908 248.207 693.372 c 0,0,0
 245.089 673.146 245.089 673.146 246.651 665.086 c 0,1,2
 246.965 663.47 246.965 663.47 247.439 662.33 c 1,0,0
 264.751 646.358 264.751 646.358 262.372 623.77 c 0,0,1
 261.824 618.57 261.824 618.57 261.533 616.918 c 0,0,0
138.104 612.812 m 0,0,1
 134.123 594.893 134.123 594.893 124.109 582.134 c 0,2,3
 120.564 577.616 120.564 577.616 116.229 573.441 c 0,4,5
 96.4346 554.378 96.4346 554.378 73.5537 548.247 c 0,6,7
 66.1855 546.271 66.1855 546.271 59.1367 546.271 c 0,8,9
 39.6279 546.271 39.6279 546.271 26.6084 559.383 c 0,10,11
 21.502 564.523 21.502 564.523 18.6982 569.261 c 0,12,13
 8.63965 586.258 8.63965 586.258 10.8613 614.306 c 0,14,15
 11.1904 618.45 11.1904 618.45 12.4746 625.734 c 0,16,17
 20.4619 671.034 20.4619 671.034 52.3213 709.838 c 0,18,19
 88.376 753.749 88.376 753.749 124.029 764.974 c 2,20,-1
 183.97 783.845 l 1,21,-1
 141.49 734.67 l 2,22,23
 131.951 723.626 131.951 723.626 125.732 693.444 c 2,24,-1
 124.81 688.598 l 2,25,26
 121.97 670.476 121.97 670.476 123.725 662.581 c 0,27,28
 124.136 660.729 124.136 660.729 124.746 659.479 c 0,29,30
 141.557 644.043 141.557 644.043 139.055 621.686 c 0,31,32
 139.019 621.367 139.019 621.367 138.757 617.969 c 0,33,34
 138.494 614.57 138.494 614.57 138.104 612.812 c 0,0,1
EndSplineSet
EndChar

StartChar: quotedblright
Encoding: 8221 8221 180
Width: 358
GlyphClass: 2
Flags: W
LayerCount: 2
Fore
SplineSet
179.876 694.458 m 0,0,0
 181.986 703.664 181.986 703.664 184.082 708.651 c 0,1,2
 185.054 710.964 185.054 710.964 186.205 713.243 c 0,3,4
 190.678 722.102 190.678 722.102 203.567 737.021 c 128,-1,2
 216.457 751.943 216.457 751.943 232.656 756.888 c 128,-1,3
 248.856 761.832 248.856 761.832 256.336 761.613 c 0,0,0
 269.121 761.238 269.121 761.238 279.163 756.073 c 0,1,2
 284.364 753.396 284.364 753.396 288.747 749.67 c 128,-1,4
 293.13 745.943 293.13 745.943 295.854 742.311 c 0,5,6
 307.831 726.333 307.831 726.333 307.515 699.08 c 0,5,6
 307.404 689.654 307.404 689.654 305.107 676.625 c 0,0,0
 298.171 637.291 298.171 637.291 269.157 597.028 c 128,-1,7
 240.143 556.765 240.143 556.765 206.709 541.97 c 2,8,9
 144.687 514.521 l 1,10,-1
 185.53 569.805 l 2,8,9
 191.829 578.33 191.829 578.33 195.692 600.239 c 0,0,0
 196.841 606.755 196.841 606.755 198.281 619.661 c 128,-1,10
 199.722 632.567 199.722 632.567 197.258 641.662 c 0,11,12
 196.605 644.072 196.605 644.072 195.723 645.363 c 0,0,0
 178.028 659.507 178.028 659.507 178.937 682.028 c 0,0,0
 179.344 692.135 179.344 692.135 179.876 694.458 c 0,0,0
44.4219 691.885 m 0,0,0
 47.8828 711.509 47.8828 711.509 64.373 730.121 c 128,-1,15
 80.8633 748.733 80.8633 748.733 97.0908 754.153 c 128,-1,16
 113.319 759.572 113.319 759.572 121.271 759.333 c 0,0,0
 134.112 758.948 134.112 758.948 144.139 753.523 c 0,1,2
 149.235 750.765 149.235 750.765 153.545 746.925 c 128,-1,17
 157.854 743.085 157.854 743.085 160.519 739.414 c 0,18,19
 161.747 737.722 161.747 737.722 162.845 735.895 c 0,20,21
 172.263 720.223 172.263 720.223 171.986 696.109 c 0,18,19
 171.879 686.667 171.879 686.667 169.644 673.99 c 0,0,0
 162.811 635.238 162.811 635.238 133.624 594.354 c 128,-1,20
 104.438 553.467 104.438 553.467 70.708 539.693 c 2,21,22
 11.5684 515.546 l 1,23,-1
 50.1787 567.806 l 2,21,22
 56.4766 576.33 56.4766 576.33 60.3398 598.239 c 0,0,0
 61.498 604.807 61.498 604.807 62.8809 617.27 c 128,-1,23
 64.2627 629.733 64.2627 629.733 62.0605 638.41 c 0,24,25
 61.2617 641.558 61.2617 641.558 61.0049 641.753 c 0,24,25
 42.3682 655.98 42.3682 655.98 43.415 679.141 c 0,0,0
 43.8438 688.601 43.8438 688.601 44.4219 691.885 c 0,0,0
EndSplineSet
EndChar

StartChar: Euro
Encoding: 8364 8364 182
Width: 715
Flags: W
LayerCount: 2
Fore
SplineSet
592.521 313 m 1,0,-1
 526.374 191 l 1,1,-1
 -30.2178 191 l 1,2,-1
 35.9277 313 l 1,3,-1
 592.521 313 l 1,0,-1
674.014 475 m 1,4,-1
 604.854 355 l 1,5,-1
 5.78418 355 l 1,6,-1
 65.9434 475 l 1,7,-1
 674.014 475 l 1,4,-1
756.762 648.726 m 1,8,-1
 684.173 506.3 l 1,9,-1
 669.602 547.652 l 2,14,15
 664.455 562.259 664.455 562.259 627.223 578.456 c 0,16,17
 596.499 591.822 596.499 591.822 537.718 594.014 c 0,18,19
 533.304 594.178 533.304 594.178 528.88 594.178 c 0,0,0
 458.646 594.178 458.646 594.178 381.745 551.141 c 128,-1,20
 304.844 508.104 304.844 508.104 258.813 436.541 c 0,21,22
 224.275 382.843 224.275 382.843 215.065 330.611 c 0,0,0
 207.919 290.082 207.919 290.082 221.178 224.59 c 128,-1,23
 234.438 159.098 234.438 159.098 323.289 114.128 c 0,24,25
 367.189 91.9092 367.189 91.9092 392.316 91.459 c 129,-1,26
 417.445 91.0088 417.445 91.0088 420.019 90.9785 c 0,27,28
 422.594 90.9473 422.594 90.9473 423.631 90.9473 c 0,0,0
 472.835 90.9473 472.835 90.9473 520.912 107.376 c 128,-1,27
 568.989 123.806 568.989 123.806 618.351 156.084 c 2,28,-1
 654.395 179.652 l 1,29,-1
 628.387 32.1523 l 1,30,-1
 620.79 26.2012 l 2,29,30
 565.067 -17.458 565.067 -17.458 529.417 -24.666 c 128,-1,31
 493.766 -31.875 493.766 -31.875 454.088 -34.2441 c 128,-1,32
 414.409 -36.6133 414.409 -36.6133 396.01 -36.6133 c 0,0,0
 356.426 -36.6133 356.426 -36.6133 311.81 -29.9443 c 128,-1,33
 267.193 -23.2764 267.193 -23.2764 234.697 -4.76953 c 0,34,35
 102.046 70.7764 102.046 70.7764 84.6045 166.791 c 128,-1,36
 67.1641 262.805 67.1641 262.805 77.4541 321.162 c 0,0,0
 92.0996 404.22 92.0996 404.22 148.257 491.469 c 0,37,38
 219.429 602.041 219.429 602.041 327.97 661.209 c 128,-1,40
 436.511 720.378 436.511 720.378 544.484 720.378 c 0,0,0
 552.482 720.378 552.482 720.378 562.49 719.983 c 0,8,9
 622.96 717.595 622.96 717.595 691.01 688.052 c 0,0,0
 728.251 671.884 728.251 671.884 746.201 657.304 c 2,10,11
 756.762 648.726 l 1,8,-1
EndSplineSet
EndChar

StartChar: brokenbar
Encoding: 166 166 187
Width: 207
Flags: W
LayerCount: 2
Fore
SplineSet
40.708 335 m 1,0,-1
 164.519 335 l 1,1,-1
 105.303 -20 l 1,2,-1
 -21.8887 -20 l 1,3,-1
 40.708 335 l 1,0,-1
108.953 716 m 1,4,-1
 232.952 716 l 1,5,-1
 170.286 367 l 1,6,-1
 46.2861 367 l 1,7,-1
 108.953 716 l 1,4,-1
EndSplineSet
EndChar

